<?xml version="1.0" encoding="UTF-8" standalone="no"?>
<!DOCTYPE svg PUBLIC "-//W3C//DTD SVG 1.1//EN"
 "http://www.w3.org/Graphics/SVG/1.1/DTD/svg11.dtd">
<!-- Generated by graphviz version 2.42.4 (0)
 -->
<!-- Title: system&#45;design&#45;document&#45;diagram&#45;05 Pages: 1 -->
<svg width="459pt" height="387pt"
 viewBox="0.00 0.00 459.00 387.00" xmlns="http://www.w3.org/2000/svg" xmlns:xlink="http://www.w3.org/1999/xlink">
<g id="graph0" class="graph" transform="scale(1 1) rotate(0) translate(4 383)">
<title>system&#45;design&#45;document&#45;diagram&#45;05</title>
<polygon fill="white" stroke="transparent" points="-4,4 -4,-383 455,-383 455,4 -4,4"/>
<g id="clust1" class="cluster">
<title>cluster_1_PKI</title>
<path fill="white" stroke="#cbd5e1" d="M317,-200C317,-200 431,-200 431,-200 437,-200 443,-206 443,-212 443,-212 443,-359 443,-359 443,-365 437,-371 431,-371 431,-371 317,-371 317,-371 311,-371 305,-365 305,-359 305,-359 305,-212 305,-212 305,-206 311,-200 317,-200"/>
<text text-anchor="middle" x="374" y="-357.4" font-family="Arial" font-size="12.00">PKI Infrastructure</text>
</g>
<g id="clust2" class="cluster">
<title>cluster_2_CertMgr</title>
<path fill="white" stroke="#cbd5e1" d="M74,-106C74,-106 277,-106 277,-106 283,-106 289,-112 289,-118 289,-118 289,-261 289,-261 289,-267 283,-273 277,-273 277,-273 74,-273 74,-273 68,-273 62,-267 62,-261 62,-261 62,-118 62,-118 62,-112 68,-106 74,-106"/>
<text text-anchor="middle" x="175.5" y="-259.4" font-family="Arial" font-size="12.00">cert&#45;manager Components</text>
</g>
<g id="clust3" class="cluster">
<title>cluster_3_Services</title>
<path fill="white" stroke="#cbd5e1" d="M24,-8C24,-8 386,-8 386,-8 392,-8 398,-14 398,-20 398,-20 398,-69 398,-69 398,-75 392,-81 386,-81 386,-81 24,-81 24,-81 18,-81 12,-75 12,-69 12,-69 12,-20 12,-20 12,-14 18,-8 24,-8"/>
<text text-anchor="middle" x="205" y="-67.4" font-family="Arial" font-size="12.00">Service Certificates</text>
</g>
<!-- Services -->
<g id="node1" class="node">
<title>Services</title>
<path fill="#f8fafc" stroke="#334155" d="M42,-150C42,-150 12,-150 12,-150 6,-150 0,-144 0,-138 0,-138 0,-126 0,-126 0,-120 6,-114 12,-114 12,-114 42,-114 42,-114 48,-114 54,-120 54,-126 54,-126 54,-138 54,-138 54,-144 48,-150 42,-150"/>
<text text-anchor="middle" x="27" y="-129.5" font-family="Arial" font-size="10.00">Services</text>
</g>
<!-- RootCA -->
<g id="node2" class="node">
<title>RootCA</title>
<path fill="#f8fafc" stroke="#334155" d="M415.5,-342C415.5,-342 332.5,-342 332.5,-342 326.5,-342 320.5,-336 320.5,-330 320.5,-330 320.5,-318 320.5,-318 320.5,-312 326.5,-306 332.5,-306 332.5,-306 415.5,-306 415.5,-306 421.5,-306 427.5,-312 427.5,-318 427.5,-318 427.5,-330 427.5,-330 427.5,-336 421.5,-342 415.5,-342"/>
<text text-anchor="middle" x="374" y="-327" font-family="Arial" font-size="10.00">Root CA Secret</text>
<text text-anchor="middle" x="374" y="-316" font-family="Arial" font-size="10.00">platform&#45;ca&#45;secret&#45;v1</text>
</g>
<!-- ClusterIssuer -->
<g id="node3" class="node">
<title>ClusterIssuer</title>
<path fill="#f8fafc" stroke="#334155" d="M423,-244C423,-244 325,-244 325,-244 319,-244 313,-238 313,-232 313,-232 313,-220 313,-220 313,-214 319,-208 325,-208 325,-208 423,-208 423,-208 429,-208 435,-214 435,-220 435,-220 435,-232 435,-232 435,-238 429,-244 423,-244"/>
<text text-anchor="middle" x="374" y="-229" font-family="Arial" font-size="10.00">ClusterIssuer</text>
<text text-anchor="middle" x="374" y="-218" font-family="Arial" font-size="10.00">platform&#45;ca&#45;clusterissuer</text>
</g>
<!-- RootCA&#45;&gt;ClusterIssuer -->
<g id="edge1" class="edge">
<title>RootCA&#45;&gt;ClusterIssuer</title>
<path fill="none" stroke="#475569" d="M374,-305.84C374,-290.96 374,-269.22 374,-252.34"/>
<polygon fill="#475569" stroke="#475569" points="376.8,-252.01 374,-244.01 371.2,-252.01 376.8,-252.01"/>
</g>
<!-- Controller -->
<g id="node4" class="node">
<title>Controller</title>
<path fill="#f8fafc" stroke="#334155" d="M268.5,-150C268.5,-150 175.5,-150 175.5,-150 169.5,-150 163.5,-144 163.5,-138 163.5,-138 163.5,-126 163.5,-126 163.5,-120 169.5,-114 175.5,-114 175.5,-114 268.5,-114 268.5,-114 274.5,-114 280.5,-120 280.5,-126 280.5,-126 280.5,-138 280.5,-138 280.5,-144 274.5,-150 268.5,-150"/>
<text text-anchor="middle" x="222" y="-129.5" font-family="Arial" font-size="10.00">cert&#45;manager Controller</text>
</g>
<!-- ClusterIssuer&#45;&gt;Controller -->
<g id="edge2" class="edge">
<title>ClusterIssuer&#45;&gt;Controller</title>
<path fill="none" stroke="#475569" d="M345.77,-207.91C320.78,-192.79 284.22,-170.66 257.31,-154.37"/>
<polygon fill="#475569" stroke="#475569" points="258.63,-151.9 250.34,-150.15 255.73,-156.69 258.63,-151.9"/>
</g>
<!-- IstioCerts -->
<g id="node7" class="node">
<title>IstioCerts</title>
<path fill="#f8fafc" stroke="#334155" d="M111.5,-52C111.5,-52 32.5,-52 32.5,-52 26.5,-52 20.5,-46 20.5,-40 20.5,-40 20.5,-28 20.5,-28 20.5,-22 26.5,-16 32.5,-16 32.5,-16 111.5,-16 111.5,-16 117.5,-16 123.5,-22 123.5,-28 123.5,-28 123.5,-40 123.5,-40 123.5,-46 117.5,-52 111.5,-52"/>
<text text-anchor="middle" x="72" y="-37" font-family="Arial" font-size="10.00">Istio CA Certificates</text>
<text text-anchor="middle" x="72" y="-26" font-family="Arial" font-size="10.00">Per Cluster</text>
</g>
<!-- Controller&#45;&gt;IstioCerts -->
<g id="edge3" class="edge">
<title>Controller&#45;&gt;IstioCerts</title>
<path fill="none" stroke="#475569" d="M193.33,-113.97C177.5,-104.45 157.53,-92.27 140,-81 127.98,-73.28 114.96,-64.55 103.55,-56.8"/>
<polygon fill="#475569" stroke="#475569" points="104.87,-54.3 96.68,-52.11 101.71,-58.93 104.87,-54.3"/>
</g>
<!-- MongoDBCerts -->
<g id="node8" class="node">
<title>MongoDBCerts</title>
<path fill="#f8fafc" stroke="#334155" d="M276,-52C276,-52 168,-52 168,-52 162,-52 156,-46 156,-40 156,-40 156,-28 156,-28 156,-22 162,-16 168,-16 168,-16 276,-16 276,-16 282,-16 288,-22 288,-28 288,-28 288,-40 288,-40 288,-46 282,-52 276,-52"/>
<text text-anchor="middle" x="222" y="-31.5" font-family="Arial" font-size="10.00">MongoDB TLS Certificates</text>
</g>
<!-- Controller&#45;&gt;MongoDBCerts -->
<g id="edge4" class="edge">
<title>Controller&#45;&gt;MongoDBCerts</title>
<path fill="none" stroke="#475569" d="M222,-113.84C222,-98.96 222,-77.22 222,-60.34"/>
<polygon fill="#475569" stroke="#475569" points="224.8,-60.01 222,-52.01 219.2,-60.01 224.8,-60.01"/>
</g>
<!-- GrafanaCerts -->
<g id="node9" class="node">
<title>GrafanaCerts</title>
<path fill="#f8fafc" stroke="#334155" d="M377.5,-52C377.5,-52 332.5,-52 332.5,-52 326.5,-52 320.5,-46 320.5,-40 320.5,-40 320.5,-28 320.5,-28 320.5,-22 326.5,-16 332.5,-16 332.5,-16 377.5,-16 377.5,-16 383.5,-16 389.5,-22 389.5,-28 389.5,-28 389.5,-40 389.5,-40 389.5,-46 383.5,-52 377.5,-52"/>
<text text-anchor="middle" x="355" y="-31.5" font-family="Arial" font-size="10.00">Grafana TLS</text>
</g>
<!-- Controller&#45;&gt;GrafanaCerts -->
<g id="edge5" class="edge">
<title>Controller&#45;&gt;GrafanaCerts</title>
<path fill="none" stroke="#475569" d="M253.26,-113.79C268.94,-104.69 287.96,-92.96 304,-81 313.45,-73.96 323.2,-65.5 331.61,-57.76"/>
<polygon fill="#475569" stroke="#475569" points="333.82,-59.53 337.76,-52.03 330,-55.44 333.82,-59.53"/>
</g>
<!-- Webhook -->
<g id="node5" class="node">
<title>Webhook</title>
<path fill="#f8fafc" stroke="#334155" d="M268.5,-244C268.5,-244 177.5,-244 177.5,-244 171.5,-244 165.5,-238 165.5,-232 165.5,-232 165.5,-220 165.5,-220 165.5,-214 171.5,-208 177.5,-208 177.5,-208 268.5,-208 268.5,-208 274.5,-208 280.5,-214 280.5,-220 280.5,-220 280.5,-232 280.5,-232 280.5,-238 274.5,-244 268.5,-244"/>
<text text-anchor="middle" x="223" y="-223.5" font-family="Arial" font-size="10.00">cert&#45;manager Webhook</text>
</g>
<!-- Webhook&#45;&gt;Controller -->
<g id="edge6" class="edge">
<title>Webhook&#45;&gt;Controller</title>
<path fill="none" stroke="#475569" stroke-dasharray="5,2" d="M222.81,-207.7C222.66,-193.82 222.45,-174.14 222.28,-158.46"/>
<polygon fill="#475569" stroke="#475569" points="225.07,-158.2 222.19,-150.23 219.47,-158.26 225.07,-158.2"/>
<text text-anchor="middle" x="241" y="-176.8" font-family="Arial" font-size="9.00">Validates</text>
</g>
<!-- CAInjector -->
<g id="node6" class="node">
<title>CAInjector</title>
<path fill="#f8fafc" stroke="#334155" d="M121.5,-244C121.5,-244 82.5,-244 82.5,-244 76.5,-244 70.5,-238 70.5,-232 70.5,-232 70.5,-220 70.5,-220 70.5,-214 76.5,-208 82.5,-208 82.5,-208 121.5,-208 121.5,-208 127.5,-208 133.5,-214 133.5,-220 133.5,-220 133.5,-232 133.5,-232 133.5,-238 127.5,-244 121.5,-244"/>
<text text-anchor="middle" x="102" y="-223.5" font-family="Arial" font-size="10.00">CA Injector</text>
</g>
<!-- CAInjector&#45;&gt;Services -->
<g id="edge7" class="edge">
<title>CAInjector&#45;&gt;Services</title>
<path fill="none" stroke="#475569" stroke-dasharray="5,2" d="M87.89,-207.7C76.16,-193.3 59.34,-172.67 46.35,-156.74"/>
<polygon fill="#475569" stroke="#475569" points="48.27,-154.66 41.04,-150.23 43.93,-158.2 48.27,-154.66"/>
<text text-anchor="middle" x="79.5" y="-176.8" font-family="Arial" font-size="9.00">Injects</text>
</g>
</g>
</svg>
