<?xml version="1.0" encoding="UTF-8" standalone="no"?>
<!DOCTYPE svg PUBLIC "-//W3C//DTD SVG 1.1//EN"
 "http://www.w3.org/Graphics/SVG/1.1/DTD/svg11.dtd">
<!-- Generated by graphviz version 2.42.4 (0)
 -->
<!-- Title: system&#45;design&#45;document&#45;diagram&#45;04 Pages: 1 -->
<svg width="382pt" height="595pt"
 viewBox="0.00 0.00 382.00 595.00" xmlns="http://www.w3.org/2000/svg" xmlns:xlink="http://www.w3.org/1999/xlink">
<g id="graph0" class="graph" transform="scale(1 1) rotate(0) translate(4 591)">
<title>system&#45;design&#45;document&#45;diagram&#45;04</title>
<polygon fill="white" stroke="transparent" points="-4,4 -4,-591 378,-591 378,4 -4,4"/>
<g id="clust1" class="cluster">
<title>cluster_1_External</title>
<path fill="white" stroke="#cbd5e1" d="M137,-506C137,-506 209,-506 209,-506 215,-506 221,-512 221,-518 221,-518 221,-567 221,-567 221,-573 215,-579 209,-579 209,-579 137,-579 137,-579 131,-579 125,-573 125,-567 125,-567 125,-518 125,-518 125,-512 131,-506 137,-506"/>
<text text-anchor="middle" x="173" y="-565.4" font-family="Arial" font-size="12.00">External Traffic</text>
</g>
<g id="clust2" class="cluster">
<title>cluster_2_LB</title>
<path fill="white" stroke="#cbd5e1" d="M121,-423C121,-423 225,-423 225,-423 231,-423 237,-429 237,-435 237,-435 237,-484 237,-484 237,-490 231,-496 225,-496 225,-496 121,-496 121,-496 115,-496 109,-490 109,-484 109,-484 109,-435 109,-435 109,-429 115,-423 121,-423"/>
<text text-anchor="middle" x="173" y="-482.4" font-family="Arial" font-size="12.00">MetalLB Layer 2</text>
</g>
<g id="clust3" class="cluster">
<title>cluster_3_Ingress</title>
<path fill="white" stroke="#cbd5e1" d="M129,-257C129,-257 217,-257 217,-257 223,-257 229,-263 229,-269 229,-269 229,-401 229,-401 229,-407 223,-413 217,-413 217,-413 129,-413 129,-413 123,-413 117,-407 117,-401 117,-401 117,-269 117,-269 117,-263 123,-257 129,-257"/>
<text text-anchor="middle" x="173" y="-399.4" font-family="Arial" font-size="12.00">Contour Ingress</text>
</g>
<g id="clust4" class="cluster">
<title>cluster_4_Mesh</title>
<path fill="white" stroke="#cbd5e1" d="M126,-91C126,-91 220,-91 220,-91 226,-91 232,-97 232,-103 232,-103 232,-235 232,-235 232,-241 226,-247 220,-247 220,-247 126,-247 126,-247 120,-247 114,-241 114,-235 114,-235 114,-103 114,-103 114,-97 120,-91 126,-91"/>
<text text-anchor="middle" x="173" y="-233.4" font-family="Arial" font-size="12.00">Istio Service Mesh</text>
</g>
<g id="clust5" class="cluster">
<title>cluster_5_Apps</title>
<path fill="white" stroke="#cbd5e1" d="M20,-8C20,-8 354,-8 354,-8 360,-8 366,-14 366,-20 366,-20 366,-69 366,-69 366,-75 360,-81 354,-81 354,-81 20,-81 20,-81 14,-81 8,-75 8,-69 8,-69 8,-20 8,-20 8,-14 14,-8 20,-8"/>
<text text-anchor="middle" x="187" y="-67.4" font-family="Arial" font-size="12.00">Applications</text>
</g>
<!-- Users -->
<g id="node1" class="node">
<title>Users</title>
<path fill="#f8fafc" stroke="#334155" d="M191.5,-550C191.5,-550 154.5,-550 154.5,-550 148.5,-550 142.5,-544 142.5,-538 142.5,-538 142.5,-526 142.5,-526 142.5,-520 148.5,-514 154.5,-514 154.5,-514 191.5,-514 191.5,-514 197.5,-514 203.5,-520 203.5,-526 203.5,-526 203.5,-538 203.5,-538 203.5,-544 197.5,-550 191.5,-550"/>
<text text-anchor="middle" x="173" y="-529.5" font-family="Arial" font-size="10.00">End Users</text>
</g>
<!-- MetalLB_Pool -->
<g id="node2" class="node">
<title>MetalLB_Pool</title>
<path fill="#ffecb3" stroke="#334155" d="M217,-467C217,-467 129,-467 129,-467 123,-467 117,-461 117,-455 117,-455 117,-443 117,-443 117,-437 123,-431 129,-431 129,-431 217,-431 217,-431 223,-431 229,-437 229,-443 229,-443 229,-455 229,-455 229,-461 223,-467 217,-467"/>
<text text-anchor="middle" x="173" y="-452" font-family="Arial" font-size="10.00">IP Address Pools</text>
<text text-anchor="middle" x="173" y="-441" font-family="Arial" font-size="10.00">Layer 2 Advertisement</text>
</g>
<!-- Users&#45;&gt;MetalLB_Pool -->
<g id="edge1" class="edge">
<title>Users&#45;&gt;MetalLB_Pool</title>
<path fill="none" stroke="#475569" d="M173,-513.82C173,-502.65 173,-487.9 173,-475.38"/>
<polygon fill="#475569" stroke="#475569" points="175.8,-475.15 173,-467.15 170.2,-475.15 175.8,-475.15"/>
</g>
<!-- Envoy -->
<g id="node3" class="node">
<title>Envoy</title>
<path fill="#c5cae9" stroke="#334155" d="M209.5,-384C209.5,-384 136.5,-384 136.5,-384 130.5,-384 124.5,-378 124.5,-372 124.5,-372 124.5,-360 124.5,-360 124.5,-354 130.5,-348 136.5,-348 136.5,-348 209.5,-348 209.5,-348 215.5,-348 221.5,-354 221.5,-360 221.5,-360 221.5,-372 221.5,-372 221.5,-378 215.5,-384 209.5,-384"/>
<text text-anchor="middle" x="173" y="-369" font-family="Arial" font-size="10.00">Envoy DaemonSet</text>
<text text-anchor="middle" x="173" y="-358" font-family="Arial" font-size="10.00">LoadBalancer Type</text>
</g>
<!-- MetalLB_Pool&#45;&gt;Envoy -->
<g id="edge2" class="edge">
<title>MetalLB_Pool&#45;&gt;Envoy</title>
<path fill="none" stroke="#475569" d="M173,-430.82C173,-419.65 173,-404.9 173,-392.38"/>
<polygon fill="#475569" stroke="#475569" points="175.8,-392.15 173,-384.15 170.2,-392.15 175.8,-392.15"/>
</g>
<!-- ContourCtrl -->
<g id="node4" class="node">
<title>ContourCtrl</title>
<path fill="#f8fafc" stroke="#334155" d="M208,-301C208,-301 138,-301 138,-301 132,-301 126,-295 126,-289 126,-289 126,-277 126,-277 126,-271 132,-265 138,-265 138,-265 208,-265 208,-265 214,-265 220,-271 220,-277 220,-277 220,-289 220,-289 220,-295 214,-301 208,-301"/>
<text text-anchor="middle" x="173" y="-280.5" font-family="Arial" font-size="10.00">Contour Controller</text>
</g>
<!-- Envoy&#45;&gt;ContourCtrl -->
<g id="edge3" class="edge">
<title>Envoy&#45;&gt;ContourCtrl</title>
<path fill="none" stroke="#475569" d="M173,-347.82C173,-336.65 173,-321.9 173,-309.38"/>
<polygon fill="#475569" stroke="#475569" points="175.8,-309.15 173,-301.15 170.2,-309.15 175.8,-309.15"/>
</g>
<!-- EW_GW -->
<g id="node5" class="node">
<title>EW_GW</title>
<path fill="#c5cae9" stroke="#334155" d="M212,-218C212,-218 134,-218 134,-218 128,-218 122,-212 122,-206 122,-206 122,-194 122,-194 122,-188 128,-182 134,-182 134,-182 212,-182 212,-182 218,-182 224,-188 224,-194 224,-194 224,-206 224,-206 224,-212 218,-218 212,-218"/>
<text text-anchor="middle" x="173" y="-203" font-family="Arial" font-size="10.00">East&#45;West Gateway</text>
<text text-anchor="middle" x="173" y="-192" font-family="Arial" font-size="10.00">Cross&#45;cluster Traffic</text>
</g>
<!-- ContourCtrl&#45;&gt;EW_GW -->
<g id="edge4" class="edge">
<title>ContourCtrl&#45;&gt;EW_GW</title>
<path fill="none" stroke="#475569" d="M173,-264.82C173,-253.65 173,-238.9 173,-226.38"/>
<polygon fill="#475569" stroke="#475569" points="175.8,-226.15 173,-218.15 170.2,-226.15 175.8,-226.15"/>
</g>
<!-- Sidecar -->
<g id="node6" class="node">
<title>Sidecar</title>
<path fill="#c5cae9" stroke="#334155" d="M205,-135C205,-135 141,-135 141,-135 135,-135 129,-129 129,-123 129,-123 129,-111 129,-111 129,-105 135,-99 141,-99 141,-99 205,-99 205,-99 211,-99 217,-105 217,-111 217,-111 217,-123 217,-123 217,-129 211,-135 205,-135"/>
<text text-anchor="middle" x="173" y="-120" font-family="Arial" font-size="10.00">Envoy Sidecars</text>
<text text-anchor="middle" x="173" y="-109" font-family="Arial" font-size="10.00">Application Pods</text>
</g>
<!-- EW_GW&#45;&gt;Sidecar -->
<g id="edge5" class="edge">
<title>EW_GW&#45;&gt;Sidecar</title>
<path fill="none" stroke="#475569" d="M173,-181.82C173,-170.65 173,-155.9 173,-143.38"/>
<polygon fill="#475569" stroke="#475569" points="175.8,-143.15 173,-135.15 170.2,-143.15 175.8,-143.15"/>
</g>
<!-- RocketChat -->
<g id="node7" class="node">
<title>RocketChat</title>
<path fill="#f8fafc" stroke="#334155" d="M346,-52C346,-52 264,-52 264,-52 258,-52 252,-46 252,-40 252,-40 252,-28 252,-28 252,-22 258,-16 264,-16 264,-16 346,-16 346,-16 352,-16 358,-22 358,-28 358,-28 358,-40 358,-40 358,-46 352,-52 346,-52"/>
<text text-anchor="middle" x="305" y="-31.5" font-family="Arial" font-size="10.00">Rocket.Chat Service</text>
</g>
<!-- Sidecar&#45;&gt;RocketChat -->
<g id="edge6" class="edge">
<title>Sidecar&#45;&gt;RocketChat</title>
<path fill="none" stroke="#475569" d="M205.01,-98.87C215.03,-93.33 226.06,-87.06 236,-81 248.54,-73.36 262.03,-64.5 273.74,-56.62"/>
<polygon fill="#475569" stroke="#475569" points="275.35,-58.91 280.4,-52.1 272.21,-54.27 275.35,-58.91"/>
</g>
<!-- MongoDB -->
<g id="node8" class="node">
<title>MongoDB</title>
<path fill="#f8fafc" stroke="#334155" d="M208,-52C208,-52 138,-52 138,-52 132,-52 126,-46 126,-40 126,-40 126,-28 126,-28 126,-22 132,-16 138,-16 138,-16 208,-16 208,-16 214,-16 220,-22 220,-28 220,-28 220,-40 220,-40 220,-46 214,-52 208,-52"/>
<text text-anchor="middle" x="173" y="-31.5" font-family="Arial" font-size="10.00">MongoDB Service</text>
</g>
<!-- Sidecar&#45;&gt;MongoDB -->
<g id="edge7" class="edge">
<title>Sidecar&#45;&gt;MongoDB</title>
<path fill="none" stroke="#475569" d="M173,-98.82C173,-87.65 173,-72.9 173,-60.38"/>
<polygon fill="#475569" stroke="#475569" points="175.8,-60.15 173,-52.15 170.2,-60.15 175.8,-60.15"/>
</g>
<!-- NATS -->
<g id="node9" class="node">
<title>NATS</title>
<path fill="#f8fafc" stroke="#334155" d="M81.5,-52C81.5,-52 28.5,-52 28.5,-52 22.5,-52 16.5,-46 16.5,-40 16.5,-40 16.5,-28 16.5,-28 16.5,-22 22.5,-16 28.5,-16 28.5,-16 81.5,-16 81.5,-16 87.5,-16 93.5,-22 93.5,-28 93.5,-28 93.5,-40 93.5,-40 93.5,-46 87.5,-52 81.5,-52"/>
<text text-anchor="middle" x="55" y="-31.5" font-family="Arial" font-size="10.00">NATS Service</text>
</g>
<!-- Sidecar&#45;&gt;NATS -->
<g id="edge8" class="edge">
<title>Sidecar&#45;&gt;NATS</title>
<path fill="none" stroke="#475569" d="M139.59,-98.98C129.82,-93.59 119.28,-87.38 110,-81 99.66,-73.9 88.94,-65.26 79.74,-57.4"/>
<polygon fill="#475569" stroke="#475569" points="81.52,-55.23 73.64,-52.11 77.85,-59.46 81.52,-55.23"/>
</g>
</g>
</svg>
