<?xml version="1.0" encoding="UTF-8" standalone="no"?>
<!DOCTYPE svg PUBLIC "-//W3C//DTD SVG 1.1//EN"
 "http://www.w3.org/Graphics/SVG/1.1/DTD/svg11.dtd">
<!-- Generated by graphviz version 2.42.4 (0)
 -->
<!-- Title: system&#45;design&#45;document&#45;diagram&#45;11 Pages: 1 -->
<svg width="353pt" height="957pt"
 viewBox="0.00 0.00 353.00 957.00" xmlns="http://www.w3.org/2000/svg" xmlns:xlink="http://www.w3.org/1999/xlink">
<g id="graph0" class="graph" transform="scale(1 1) rotate(0) translate(4 953)">
<title>system&#45;design&#45;document&#45;diagram&#45;11</title>
<polygon fill="white" stroke="transparent" points="-4,4 -4,-953 349,-953 349,4 -4,4"/>
<!-- Start -->
<g id="node1" class="node">
<title>Start</title>
<ellipse fill="#c8e6c9" stroke="#334155" cx="172.5" cy="-931" rx="59.29" ry="18"/>
<text text-anchor="middle" x="172.5" y="-928.5" font-family="Arial" font-size="10.00">Start Deployment</text>
</g>
<!-- Core -->
<g id="node2" class="node">
<title>Core</title>
<path fill="#f8fafc" stroke="#334155" d="M261,-866C261,-866 84,-866 84,-866 78,-866 72,-860 72,-854 72,-854 72,-842 72,-842 72,-836 78,-830 84,-830 84,-830 261,-830 261,-830 267,-830 273,-836 273,-842 273,-842 273,-854 273,-854 273,-860 267,-866 261,-866"/>
<text text-anchor="middle" x="172.5" y="-845.5" font-family="Arial" font-size="10.00">core: DNS, cert&#45;manager, MetalLB, Trident</text>
</g>
<!-- Start&#45;&gt;Core -->
<g id="edge1" class="edge">
<title>Start&#45;&gt;Core</title>
<path fill="none" stroke="#475569" d="M172.5,-912.82C172.5,-901.65 172.5,-886.9 172.5,-874.38"/>
<polygon fill="#475569" stroke="#475569" points="175.3,-874.15 172.5,-866.15 169.7,-874.15 175.3,-874.15"/>
</g>
<!-- Ingress -->
<g id="node3" class="node">
<title>Ingress</title>
<path fill="#f8fafc" stroke="#334155" d="M333,-783C333,-783 12,-783 12,-783 6,-783 0,-777 0,-771 0,-771 0,-759 0,-759 0,-753 6,-747 12,-747 12,-747 333,-747 333,-747 339,-747 345,-753 345,-759 345,-759 345,-771 345,-771 345,-777 339,-783 333,-783"/>
<text text-anchor="middle" x="172.5" y="-762.5" font-family="Arial" font-size="10.00">realms/platform&#45;ingress: platform&#45;ingress + restricted&#45;ingress ingress planes</text>
</g>
<!-- Core&#45;&gt;Ingress -->
<g id="edge2" class="edge">
<title>Core&#45;&gt;Ingress</title>
<path fill="none" stroke="#475569" d="M172.5,-829.82C172.5,-818.65 172.5,-803.9 172.5,-791.38"/>
<polygon fill="#475569" stroke="#475569" points="175.3,-791.15 172.5,-783.15 169.7,-791.15 175.3,-791.15"/>
</g>
<!-- Istio -->
<g id="node4" class="node">
<title>Istio</title>
<path fill="#e1f5ff" stroke="#334155" d="M255,-700C255,-700 90,-700 90,-700 84,-700 78,-694 78,-688 78,-688 78,-676 78,-676 78,-670 84,-664 90,-664 90,-664 255,-664 255,-664 261,-664 267,-670 267,-676 267,-676 267,-688 267,-688 267,-694 261,-700 255,-700"/>
<text text-anchor="middle" x="172.5" y="-679.5" font-family="Arial" font-size="10.00">istio: mesh install + multicluster secrets</text>
</g>
<!-- Ingress&#45;&gt;Istio -->
<g id="edge3" class="edge">
<title>Ingress&#45;&gt;Istio</title>
<path fill="none" stroke="#475569" d="M172.5,-746.82C172.5,-735.65 172.5,-720.9 172.5,-708.38"/>
<polygon fill="#475569" stroke="#475569" points="175.3,-708.15 172.5,-700.15 169.7,-708.15 175.3,-708.15"/>
</g>
<!-- Monitoring -->
<g id="node5" class="node">
<title>Monitoring</title>
<path fill="#fff9c4" stroke="#334155" d="M329,-617C329,-617 16,-617 16,-617 10,-617 4,-611 4,-605 4,-605 4,-593 4,-593 4,-587 10,-581 16,-581 16,-581 329,-581 329,-581 335,-581 341,-587 341,-593 341,-593 341,-605 341,-605 341,-611 335,-617 329,-617"/>
<text text-anchor="middle" x="172.5" y="-596.5" font-family="Arial" font-size="10.00">monitoring: Grafana PostgreSQL, Prometheus, Alertmanager, Kiali access</text>
</g>
<!-- Istio&#45;&gt;Monitoring -->
<g id="edge4" class="edge">
<title>Istio&#45;&gt;Monitoring</title>
<path fill="none" stroke="#475569" d="M172.5,-663.82C172.5,-652.65 172.5,-637.9 172.5,-625.38"/>
<polygon fill="#475569" stroke="#475569" points="175.3,-625.15 172.5,-617.15 169.7,-625.15 175.3,-625.15"/>
</g>
<!-- Data -->
<g id="node6" class="node">
<title>Data</title>
<path fill="#f8fafc" stroke="#334155" d="M308.5,-534C308.5,-534 36.5,-534 36.5,-534 30.5,-534 24.5,-528 24.5,-522 24.5,-522 24.5,-510 24.5,-510 24.5,-504 30.5,-498 36.5,-498 36.5,-498 308.5,-498 308.5,-498 314.5,-498 320.5,-504 320.5,-510 320.5,-510 320.5,-522 320.5,-522 320.5,-528 314.5,-534 308.5,-534"/>
<text text-anchor="middle" x="172.5" y="-513.5" font-family="Arial" font-size="10.00">realms/platform&#45;ingress/rocketchat/mongodb: MongoDB platform</text>
</g>
<!-- Monitoring&#45;&gt;Data -->
<g id="edge5" class="edge">
<title>Monitoring&#45;&gt;Data</title>
<path fill="none" stroke="#475569" d="M172.5,-580.82C172.5,-569.65 172.5,-554.9 172.5,-542.38"/>
<polygon fill="#475569" stroke="#475569" points="175.3,-542.15 172.5,-534.15 169.7,-542.15 175.3,-542.15"/>
</g>
<!-- NATS -->
<g id="node7" class="node">
<title>NATS</title>
<path fill="#f8fafc" stroke="#334155" d="M259.5,-451C259.5,-451 85.5,-451 85.5,-451 79.5,-451 73.5,-445 73.5,-439 73.5,-439 73.5,-427 73.5,-427 73.5,-421 79.5,-415 85.5,-415 85.5,-415 259.5,-415 259.5,-415 265.5,-415 271.5,-421 271.5,-427 271.5,-427 271.5,-439 271.5,-439 271.5,-445 265.5,-451 259.5,-451"/>
<text text-anchor="middle" x="172.5" y="-430.5" font-family="Arial" font-size="10.00">realms/platform&#45;ingress/rocketchat: NATS</text>
</g>
<!-- Data&#45;&gt;NATS -->
<g id="edge6" class="edge">
<title>Data&#45;&gt;NATS</title>
<path fill="none" stroke="#475569" d="M172.5,-497.82C172.5,-486.65 172.5,-471.9 172.5,-459.38"/>
<polygon fill="#475569" stroke="#475569" points="175.3,-459.15 172.5,-451.15 169.7,-459.15 175.3,-459.15"/>
</g>
<!-- RocketChat -->
<g id="node8" class="node">
<title>RocketChat</title>
<path fill="#f8fafc" stroke="#334155" d="M274,-368C274,-368 71,-368 71,-368 65,-368 59,-362 59,-356 59,-356 59,-344 59,-344 59,-338 65,-332 71,-332 71,-332 274,-332 274,-332 280,-332 286,-338 286,-344 286,-344 286,-356 286,-356 286,-362 280,-368 274,-368"/>
<text text-anchor="middle" x="172.5" y="-347.5" font-family="Arial" font-size="10.00">realms/platform&#45;ingress/rocketchat: Rocket.Chat</text>
</g>
<!-- NATS&#45;&gt;RocketChat -->
<g id="edge7" class="edge">
<title>NATS&#45;&gt;RocketChat</title>
<path fill="none" stroke="#475569" d="M172.5,-414.82C172.5,-403.65 172.5,-388.9 172.5,-376.38"/>
<polygon fill="#475569" stroke="#475569" points="175.3,-376.15 172.5,-368.15 169.7,-376.15 175.3,-376.15"/>
</g>
<!-- Identity -->
<g id="node9" class="node">
<title>Identity</title>
<path fill="#f8fafc" stroke="#334155" d="M246,-285C246,-285 99,-285 99,-285 93,-285 87,-279 87,-273 87,-273 87,-261 87,-261 87,-255 93,-249 99,-249 99,-249 246,-249 246,-249 252,-249 258,-255 258,-261 258,-261 258,-273 258,-273 258,-279 252,-285 246,-285"/>
<text text-anchor="middle" x="172.5" y="-264.5" font-family="Arial" font-size="10.00">realms/*/keycloak: Keycloak realms</text>
</g>
<!-- RocketChat&#45;&gt;Identity -->
<g id="edge8" class="edge">
<title>RocketChat&#45;&gt;Identity</title>
<path fill="none" stroke="#475569" d="M172.5,-331.82C172.5,-320.65 172.5,-305.9 172.5,-293.38"/>
<polygon fill="#475569" stroke="#475569" points="175.3,-293.15 172.5,-285.15 169.7,-293.15 175.3,-293.15"/>
</g>
<!-- Security -->
<g id="node10" class="node">
<title>Security</title>
<path fill="#ffcdd2" stroke="#334155" d="M242,-202C242,-202 103,-202 103,-202 97,-202 91,-196 91,-190 91,-190 91,-178 91,-178 91,-172 97,-166 103,-166 103,-166 242,-166 242,-166 248,-166 254,-172 254,-178 254,-178 254,-190 254,-190 254,-196 248,-202 242,-202"/>
<text text-anchor="middle" x="172.5" y="-181.5" font-family="Arial" font-size="10.00">stigs/deploy&#45;security&#45;hardening.sh</text>
</g>
<!-- Identity&#45;&gt;Security -->
<g id="edge9" class="edge">
<title>Identity&#45;&gt;Security</title>
<path fill="none" stroke="#475569" d="M172.5,-248.82C172.5,-237.65 172.5,-222.9 172.5,-210.38"/>
<polygon fill="#475569" stroke="#475569" points="175.3,-210.15 172.5,-202.15 169.7,-210.15 175.3,-210.15"/>
</g>
<!-- OpsTools -->
<g id="node11" class="node">
<title>OpsTools</title>
<path fill="#f8fafc" stroke="#334155" d="M247,-119C247,-119 98,-119 98,-119 92,-119 86,-113 86,-107 86,-107 86,-95 86,-95 86,-89 92,-83 98,-83 98,-83 247,-83 247,-83 253,-83 259,-89 259,-95 259,-95 259,-107 259,-107 259,-113 253,-119 247,-119"/>
<text text-anchor="middle" x="172.5" y="-98.5" font-family="Arial" font-size="10.00">misc: Chrony DaemonSet + Toolbox</text>
</g>
<!-- Security&#45;&gt;OpsTools -->
<g id="edge10" class="edge">
<title>Security&#45;&gt;OpsTools</title>
<path fill="none" stroke="#475569" d="M172.5,-165.82C172.5,-154.65 172.5,-139.9 172.5,-127.38"/>
<polygon fill="#475569" stroke="#475569" points="175.3,-127.15 172.5,-119.15 169.7,-127.15 175.3,-127.15"/>
</g>
<!-- Complete -->
<g id="node12" class="node">
<title>Complete</title>
<ellipse fill="#c8e6c9" stroke="#334155" cx="172.5" cy="-18" rx="72.59" ry="18"/>
<text text-anchor="middle" x="172.5" y="-15.5" font-family="Arial" font-size="10.00">Deployment Complete</text>
</g>
<!-- OpsTools&#45;&gt;Complete -->
<g id="edge11" class="edge">
<title>OpsTools&#45;&gt;Complete</title>
<path fill="none" stroke="#475569" d="M172.5,-82.82C172.5,-71.65 172.5,-56.9 172.5,-44.38"/>
<polygon fill="#475569" stroke="#475569" points="175.3,-44.15 172.5,-36.15 169.7,-44.15 175.3,-44.15"/>
</g>
</g>
</svg>
