<?xml version="1.0" encoding="UTF-8" standalone="no"?>
<!DOCTYPE svg PUBLIC "-//W3C//DTD SVG 1.1//EN"
 "http://www.w3.org/Graphics/SVG/1.1/DTD/svg11.dtd">
<!-- Generated by graphviz version 2.42.4 (0)
 -->
<!-- Title: system&#45;design&#45;document&#45;diagram&#45;08 Pages: 1 -->
<svg width="2244pt" height="396pt"
 viewBox="0.00 0.00 2244.00 396.00" xmlns="http://www.w3.org/2000/svg" xmlns:xlink="http://www.w3.org/1999/xlink">
<g id="graph0" class="graph" transform="scale(1 1) rotate(0) translate(4 392)">
<title>system&#45;design&#45;document&#45;diagram&#45;08</title>
<polygon fill="white" stroke="transparent" points="-4,4 -4,-392 2240,-392 2240,4 -4,4"/>
<g id="clust1" class="cluster">
<title>cluster_1_Central</title>
<path fill="white" stroke="#cbd5e1" d="M20,-77C20,-77 456,-77 456,-77 462,-77 468,-83 468,-89 468,-89 468,-232 468,-232 468,-238 462,-244 456,-244 456,-244 20,-244 20,-244 14,-244 8,-238 8,-232 8,-232 8,-89 8,-89 8,-83 14,-77 20,-77"/>
<text text-anchor="middle" x="238" y="-230.4" font-family="Arial" font-size="12.00">Central Monitoring &#45; mgmt&#45;cluster</text>
</g>
<g id="clust2" class="cluster">
<title>cluster_2_Agents</title>
<path fill="white" stroke="#cbd5e1" d="M277,-278C277,-278 547,-278 547,-278 553,-278 559,-284 559,-290 559,-290 559,-339 559,-339 559,-345 553,-351 547,-351 547,-351 277,-351 277,-351 271,-351 265,-345 265,-339 265,-339 265,-290 265,-290 265,-284 271,-278 277,-278"/>
<text text-anchor="middle" x="412" y="-337.4" font-family="Arial" font-size="12.00">Remote Clusters</text>
</g>
<g id="clust3" class="cluster">
<title>cluster_3_Targets</title>
<path fill="white" stroke="#cbd5e1" d="M579,-270C579,-270 1534,-270 1534,-270 1540,-270 1546,-276 1546,-282 1546,-282 1546,-368 1546,-368 1546,-374 1540,-380 1534,-380 1534,-380 579,-380 579,-380 573,-380 567,-374 567,-368 567,-368 567,-282 567,-282 567,-276 573,-270 579,-270"/>
<text text-anchor="middle" x="1056.5" y="-366.4" font-family="Arial" font-size="12.00">Monitoring Targets</text>
</g>
<g id="clust4" class="cluster">
<title>cluster_4_Infra</title>
<path fill="white" stroke="#cbd5e1" d="M1080,-278C1080,-278 1526,-278 1526,-278 1532,-278 1538,-284 1538,-290 1538,-290 1538,-339 1538,-339 1538,-345 1532,-351 1526,-351 1526,-351 1080,-351 1080,-351 1074,-351 1068,-345 1068,-339 1068,-339 1068,-290 1068,-290 1068,-284 1074,-278 1080,-278"/>
<text text-anchor="middle" x="1303" y="-337.4" font-family="Arial" font-size="12.00">Infrastructure</text>
</g>
<g id="clust5" class="cluster">
<title>cluster_5_Mesh</title>
<path fill="white" stroke="#cbd5e1" d="M977,-278C977,-278 1042,-278 1042,-278 1048,-278 1054,-284 1054,-290 1054,-290 1054,-339 1054,-339 1054,-345 1048,-351 1042,-351 1042,-351 977,-351 977,-351 971,-351 965,-345 965,-339 965,-339 965,-290 965,-290 965,-284 971,-278 977,-278"/>
<text text-anchor="middle" x="1009.5" y="-337.4" font-family="Arial" font-size="12.00">Service Mesh</text>
</g>
<g id="clust6" class="cluster">
<title>cluster_6_Apps</title>
<path fill="white" stroke="#cbd5e1" d="M587,-278C587,-278 939,-278 939,-278 945,-278 951,-284 951,-290 951,-290 951,-339 951,-339 951,-345 945,-351 939,-351 939,-351 587,-351 587,-351 581,-351 575,-345 575,-339 575,-339 575,-290 575,-290 575,-284 581,-278 587,-278"/>
<text text-anchor="middle" x="763" y="-337.4" font-family="Arial" font-size="12.00">Applications</text>
</g>
<g id="clust7" class="cluster">
<title>cluster_7_Dashboards</title>
<path fill="white" stroke="#cbd5e1" d="M1567,-278C1567,-278 1857,-278 1857,-278 1863,-278 1869,-284 1869,-290 1869,-290 1869,-339 1869,-339 1869,-345 1863,-351 1857,-351 1857,-351 1567,-351 1567,-351 1561,-351 1555,-345 1555,-339 1555,-339 1555,-290 1555,-290 1555,-284 1561,-278 1567,-278"/>
<text text-anchor="middle" x="1712" y="-337.4" font-family="Arial" font-size="12.00">Grafana Dashboards</text>
</g>
<g id="clust8" class="cluster">
<title>cluster_8_Alerts</title>
<path fill="white" stroke="#cbd5e1" d="M1898,-278C1898,-278 2216,-278 2216,-278 2222,-278 2228,-284 2228,-290 2228,-290 2228,-339 2228,-339 2228,-345 2222,-351 2216,-351 2216,-351 1898,-351 1898,-351 1892,-351 1886,-345 1886,-339 1886,-339 1886,-290 1886,-290 1886,-284 1892,-278 1898,-278"/>
<text text-anchor="middle" x="2057" y="-337.4" font-family="Arial" font-size="12.00">Alert Rules</text>
</g>
<!-- Infra -->
<g id="node1" class="node">
<title>Infra</title>
<path fill="#f8fafc" stroke="#334155" d="M534,-121C534,-121 504,-121 504,-121 498,-121 492,-115 492,-109 492,-109 492,-97 492,-97 492,-91 498,-85 504,-85 504,-85 534,-85 534,-85 540,-85 546,-91 546,-97 546,-97 546,-109 546,-109 546,-115 540,-121 534,-121"/>
<text text-anchor="middle" x="519" y="-100.5" font-family="Arial" font-size="10.00">Infra</text>
</g>
<!-- Mesh -->
<g id="node2" class="node">
<title>Mesh</title>
<path fill="#f8fafc" stroke="#334155" d="M620,-121C620,-121 590,-121 590,-121 584,-121 578,-115 578,-109 578,-109 578,-97 578,-97 578,-91 584,-85 590,-85 590,-85 620,-85 620,-85 626,-85 632,-91 632,-97 632,-97 632,-109 632,-109 632,-115 626,-121 620,-121"/>
<text text-anchor="middle" x="605" y="-100.5" font-family="Arial" font-size="10.00">Mesh</text>
</g>
<!-- Apps -->
<g id="node3" class="node">
<title>Apps</title>
<path fill="#f8fafc" stroke="#334155" d="M706,-121C706,-121 676,-121 676,-121 670,-121 664,-115 664,-109 664,-109 664,-97 664,-97 664,-91 670,-85 676,-85 676,-85 706,-85 706,-85 712,-85 718,-91 718,-97 718,-97 718,-109 718,-109 718,-115 712,-121 706,-121"/>
<text text-anchor="middle" x="691" y="-100.5" font-family="Arial" font-size="10.00">Apps</text>
</g>
<!-- Dashboards -->
<g id="node4" class="node">
<title>Dashboards</title>
<path fill="#f8fafc" stroke="#334155" d="M90.5,-36C90.5,-36 47.5,-36 47.5,-36 41.5,-36 35.5,-30 35.5,-24 35.5,-24 35.5,-12 35.5,-12 35.5,-6 41.5,0 47.5,0 47.5,0 90.5,0 90.5,0 96.5,0 102.5,-6 102.5,-12 102.5,-12 102.5,-24 102.5,-24 102.5,-30 96.5,-36 90.5,-36"/>
<text text-anchor="middle" x="69" y="-15.5" font-family="Arial" font-size="10.00">Dashboards</text>
</g>
<!-- Alerts -->
<g id="node5" class="node">
<title>Alerts</title>
<path fill="#f8fafc" stroke="#334155" d="M792,-121C792,-121 762,-121 762,-121 756,-121 750,-115 750,-109 750,-109 750,-97 750,-97 750,-91 756,-85 762,-85 762,-85 792,-85 792,-85 798,-85 804,-91 804,-97 804,-97 804,-109 804,-109 804,-115 798,-121 792,-121"/>
<text text-anchor="middle" x="777" y="-100.5" font-family="Arial" font-size="10.00">Alerts</text>
</g>
<!-- Prom_Central -->
<g id="node6" class="node">
<title>Prom_Central</title>
<path fill="#f8fafc" stroke="#334155" d="M447.5,-215C447.5,-215 376.5,-215 376.5,-215 370.5,-215 364.5,-209 364.5,-203 364.5,-203 364.5,-191 364.5,-191 364.5,-185 370.5,-179 376.5,-179 376.5,-179 447.5,-179 447.5,-179 453.5,-179 459.5,-185 459.5,-191 459.5,-191 459.5,-203 459.5,-203 459.5,-209 453.5,-215 447.5,-215"/>
<text text-anchor="middle" x="412" y="-200" font-family="Arial" font-size="10.00">Prometheus</text>
<text text-anchor="middle" x="412" y="-189" font-family="Arial" font-size="10.00">Central Federation</text>
</g>
<!-- Prom_Central&#45;&gt;Infra -->
<g id="edge6" class="edge">
<title>Prom_Central&#45;&gt;Infra</title>
<path fill="none" stroke="#475569" stroke-dasharray="5,2" d="M431.88,-178.91C449.03,-164.16 473.95,-142.73 492.75,-126.57"/>
<polygon fill="#475569" stroke="#475569" points="494.63,-128.65 498.87,-121.31 490.98,-124.4 494.63,-128.65"/>
<text text-anchor="middle" x="485" y="-147.8" font-family="Arial" font-size="9.00">Scrapes</text>
</g>
<!-- Prom_Central&#45;&gt;Mesh -->
<g id="edge7" class="edge">
<title>Prom_Central&#45;&gt;Mesh</title>
<path fill="none" stroke="#475569" stroke-dasharray="5,2" d="M455.33,-178.92C472.51,-171.88 492.35,-163.41 510,-155 530.41,-145.28 552.7,-133.38 570.56,-123.53"/>
<polygon fill="#475569" stroke="#475569" points="572.29,-125.77 577.92,-119.44 569.57,-120.87 572.29,-125.77"/>
<text text-anchor="middle" x="545" y="-147.8" font-family="Arial" font-size="9.00">Scrapes</text>
</g>
<!-- Prom_Central&#45;&gt;Apps -->
<g id="edge8" class="edge">
<title>Prom_Central&#45;&gt;Apps</title>
<path fill="none" stroke="#475569" stroke-dasharray="5,2" d="M459.54,-185.57C491.18,-178.16 533.49,-167.36 570,-155 599.62,-144.97 632.23,-131.05 656.13,-120.29"/>
<polygon fill="#475569" stroke="#475569" points="657.44,-122.77 663.57,-116.91 655.12,-117.67 657.44,-122.77"/>
<text text-anchor="middle" x="614" y="-147.8" font-family="Arial" font-size="9.00">Scrapes</text>
</g>
<!-- Prom_Central&#45;&gt;Alerts -->
<g id="edge12" class="edge">
<title>Prom_Central&#45;&gt;Alerts</title>
<path fill="none" stroke="#475569" d="M459.89,-189.7C506.19,-183.05 578.06,-171.29 639,-155 682.32,-143.42 692.03,-136.8 734,-121 736.55,-120.04 739.19,-119.03 741.84,-118.01"/>
<polygon fill="#475569" stroke="#475569" points="743.32,-120.44 749.76,-114.93 741.28,-115.22 743.32,-120.44"/>
</g>
<!-- Grafana -->
<g id="node7" class="node">
<title>Grafana</title>
<path fill="#f8fafc" stroke="#334155" d="M109.5,-121C109.5,-121 28.5,-121 28.5,-121 22.5,-121 16.5,-115 16.5,-109 16.5,-109 16.5,-97 16.5,-97 16.5,-91 22.5,-85 28.5,-85 28.5,-85 109.5,-85 109.5,-85 115.5,-85 121.5,-91 121.5,-97 121.5,-97 121.5,-109 121.5,-109 121.5,-115 115.5,-121 109.5,-121"/>
<text text-anchor="middle" x="69" y="-100.5" font-family="Arial" font-size="10.00">Grafana Dashboards</text>
</g>
<!-- Prom_Central&#45;&gt;Grafana -->
<g id="edge9" class="edge">
<title>Prom_Central&#45;&gt;Grafana</title>
<path fill="none" stroke="#475569" d="M364.31,-183.21C303.02,-166.77 196.55,-138.21 129.59,-120.25"/>
<polygon fill="#475569" stroke="#475569" points="130.08,-117.48 121.63,-118.12 128.63,-122.89 130.08,-117.48"/>
</g>
<!-- Alert -->
<g id="node8" class="node">
<title>Alert</title>
<path fill="#f8fafc" stroke="#334155" d="M214,-121C214,-121 166,-121 166,-121 160,-121 154,-115 154,-109 154,-109 154,-97 154,-97 154,-91 160,-85 166,-85 166,-85 214,-85 214,-85 220,-85 226,-91 226,-97 226,-97 226,-109 226,-109 226,-115 220,-121 214,-121"/>
<text text-anchor="middle" x="190" y="-100.5" font-family="Arial" font-size="10.00">Alertmanager</text>
</g>
<!-- Prom_Central&#45;&gt;Alert -->
<g id="edge10" class="edge">
<title>Prom_Central&#45;&gt;Alert</title>
<path fill="none" stroke="#475569" d="M370.76,-178.91C331.85,-162.79 273.71,-138.69 233.94,-122.21"/>
<polygon fill="#475569" stroke="#475569" points="234.7,-119.49 226.24,-119.02 232.56,-124.67 234.7,-119.49"/>
</g>
<!-- KubeSM -->
<g id="node9" class="node">
<title>KubeSM</title>
<path fill="#f8fafc" stroke="#334155" d="M342,-121C342,-121 270,-121 270,-121 264,-121 258,-115 258,-109 258,-109 258,-97 258,-97 258,-91 264,-85 270,-85 270,-85 342,-85 342,-85 348,-85 354,-91 354,-97 354,-97 354,-109 354,-109 354,-115 348,-121 342,-121"/>
<text text-anchor="middle" x="306" y="-100.5" font-family="Arial" font-size="10.00">kube&#45;state&#45;metrics</text>
</g>
<!-- Prom_Central&#45;&gt;KubeSM -->
<g id="edge4" class="edge">
<title>Prom_Central&#45;&gt;KubeSM</title>
<path fill="none" stroke="#475569" stroke-dasharray="5,2" d="M392.06,-178.7C375.18,-164.05 350.86,-142.93 332.37,-126.89"/>
<polygon fill="#475569" stroke="#475569" points="333.73,-124.36 325.85,-121.23 330.05,-128.59 333.73,-124.36"/>
<text text-anchor="middle" x="379" y="-147.8" font-family="Arial" font-size="9.00">Scrapes</text>
</g>
<!-- NodeExp -->
<g id="node10" class="node">
<title>NodeExp</title>
<path fill="#f8fafc" stroke="#334155" d="M448,-121C448,-121 398,-121 398,-121 392,-121 386,-115 386,-109 386,-109 386,-97 386,-97 386,-91 392,-85 398,-85 398,-85 448,-85 448,-85 454,-85 460,-91 460,-97 460,-97 460,-109 460,-109 460,-115 454,-121 448,-121"/>
<text text-anchor="middle" x="423" y="-100.5" font-family="Arial" font-size="10.00">node&#45;exporter</text>
</g>
<!-- Prom_Central&#45;&gt;NodeExp -->
<g id="edge5" class="edge">
<title>Prom_Central&#45;&gt;NodeExp</title>
<path fill="none" stroke="#475569" stroke-dasharray="5,2" d="M414.07,-178.7C415.73,-164.82 418.08,-145.14 419.96,-129.46"/>
<polygon fill="#475569" stroke="#475569" points="422.77,-129.5 420.94,-121.23 417.21,-128.84 422.77,-129.5"/>
<text text-anchor="middle" x="434" y="-147.8" font-family="Arial" font-size="9.00">Scrapes</text>
</g>
<!-- Grafana&#45;&gt;Dashboards -->
<g id="edge11" class="edge">
<title>Grafana&#45;&gt;Dashboards</title>
<path fill="none" stroke="#475569" d="M69,-84.8C69,-73.12 69,-57.46 69,-44.35"/>
<polygon fill="#475569" stroke="#475569" points="71.8,-44.18 69,-36.18 66.2,-44.18 71.8,-44.18"/>
</g>
<!-- Prom_Site_AD -->
<g id="node11" class="node">
<title>Prom_Site_AD</title>
<path fill="#f8fafc" stroke="#334155" d="M332.5,-322C332.5,-322 285.5,-322 285.5,-322 279.5,-322 273.5,-316 273.5,-310 273.5,-310 273.5,-298 273.5,-298 273.5,-292 279.5,-286 285.5,-286 285.5,-286 332.5,-286 332.5,-286 338.5,-286 344.5,-292 344.5,-298 344.5,-298 344.5,-310 344.5,-310 344.5,-316 338.5,-322 332.5,-322"/>
<text text-anchor="middle" x="309" y="-307" font-family="Arial" font-size="10.00">Prometheus</text>
<text text-anchor="middle" x="309" y="-296" font-family="Arial" font-size="10.00">app&#45;cluster&#45;a</text>
</g>
<!-- Prom_Site_AD&#45;&gt;Prom_Central -->
<g id="edge1" class="edge">
<title>Prom_Site_AD&#45;&gt;Prom_Central</title>
<path fill="none" stroke="#475569" stroke-dasharray="5,2" d="M320.78,-285.72C328.1,-275.48 338,-262.49 348,-252 358.65,-240.83 371.47,-229.64 382.83,-220.36"/>
<polygon fill="#475569" stroke="#475569" points="384.85,-222.33 389.33,-215.14 381.34,-217.97 384.85,-222.33"/>
<text text-anchor="middle" x="376" y="-254.8" font-family="Arial" font-size="9.00">Remote Write</text>
</g>
<!-- Prom_Site_BD -->
<g id="node12" class="node">
<title>Prom_Site_BD</title>
<path fill="#f8fafc" stroke="#334155" d="M435.5,-322C435.5,-322 388.5,-322 388.5,-322 382.5,-322 376.5,-316 376.5,-310 376.5,-310 376.5,-298 376.5,-298 376.5,-292 382.5,-286 388.5,-286 388.5,-286 435.5,-286 435.5,-286 441.5,-286 447.5,-292 447.5,-298 447.5,-298 447.5,-310 447.5,-310 447.5,-316 441.5,-322 435.5,-322"/>
<text text-anchor="middle" x="412" y="-307" font-family="Arial" font-size="10.00">Prometheus</text>
<text text-anchor="middle" x="412" y="-296" font-family="Arial" font-size="10.00">app&#45;cluster&#45;b</text>
</g>
<!-- Prom_Site_BD&#45;&gt;Prom_Central -->
<g id="edge2" class="edge">
<title>Prom_Site_BD&#45;&gt;Prom_Central</title>
<path fill="none" stroke="#475569" stroke-dasharray="5,2" d="M412,-285.66C412,-268.61 412,-242.41 412,-223.09"/>
<polygon fill="#475569" stroke="#475569" points="414.8,-223.02 412,-215.02 409.2,-223.02 414.8,-223.02"/>
<text text-anchor="middle" x="440" y="-254.8" font-family="Arial" font-size="9.00">Remote Write</text>
</g>
<!-- Prom_Site_CD -->
<g id="node13" class="node">
<title>Prom_Site_CD</title>
<path fill="#f8fafc" stroke="#334155" d="M538.5,-322C538.5,-322 491.5,-322 491.5,-322 485.5,-322 479.5,-316 479.5,-310 479.5,-310 479.5,-298 479.5,-298 479.5,-292 485.5,-286 491.5,-286 491.5,-286 538.5,-286 538.5,-286 544.5,-286 550.5,-292 550.5,-298 550.5,-298 550.5,-310 550.5,-310 550.5,-316 544.5,-322 538.5,-322"/>
<text text-anchor="middle" x="515" y="-307" font-family="Arial" font-size="10.00">Prometheus</text>
<text text-anchor="middle" x="515" y="-296" font-family="Arial" font-size="10.00">app&#45;cluster&#45;c</text>
</g>
<!-- Prom_Site_CD&#45;&gt;Prom_Central -->
<g id="edge3" class="edge">
<title>Prom_Site_CD&#45;&gt;Prom_Central</title>
<path fill="none" stroke="#475569" stroke-dasharray="5,2" d="M502.42,-285.84C494.65,-275.63 484.24,-262.65 474,-252 463.42,-240.99 450.85,-229.75 439.8,-220.4"/>
<polygon fill="#475569" stroke="#475569" points="441.43,-218.11 433.5,-215.12 437.84,-222.4 441.43,-218.11"/>
<text text-anchor="middle" x="510" y="-254.8" font-family="Arial" font-size="9.00">Remote Write</text>
</g>
<!-- Kubelet -->
<g id="node14" class="node">
<title>Kubelet</title>
<path fill="#f8fafc" stroke="#334155" d="M1518.5,-322C1518.5,-322 1453.5,-322 1453.5,-322 1447.5,-322 1441.5,-316 1441.5,-310 1441.5,-310 1441.5,-298 1441.5,-298 1441.5,-292 1447.5,-286 1453.5,-286 1453.5,-286 1518.5,-286 1518.5,-286 1524.5,-286 1530.5,-292 1530.5,-298 1530.5,-298 1530.5,-310 1530.5,-310 1530.5,-316 1524.5,-322 1518.5,-322"/>
<text text-anchor="middle" x="1486" y="-301.5" font-family="Arial" font-size="10.00">Kubelet/cAdvisor</text>
</g>
<!-- CoreDNS -->
<g id="node15" class="node">
<title>CoreDNS</title>
<path fill="#f8fafc" stroke="#334155" d="M1397.5,-322C1397.5,-322 1364.5,-322 1364.5,-322 1358.5,-322 1352.5,-316 1352.5,-310 1352.5,-310 1352.5,-298 1352.5,-298 1352.5,-292 1358.5,-286 1364.5,-286 1364.5,-286 1397.5,-286 1397.5,-286 1403.5,-286 1409.5,-292 1409.5,-298 1409.5,-298 1409.5,-310 1409.5,-310 1409.5,-316 1403.5,-322 1397.5,-322"/>
<text text-anchor="middle" x="1381" y="-301.5" font-family="Arial" font-size="10.00">CoreDNS</text>
</g>
<!-- CertMgr -->
<g id="node16" class="node">
<title>CertMgr</title>
<path fill="#f8fafc" stroke="#334155" d="M1308,-322C1308,-322 1260,-322 1260,-322 1254,-322 1248,-316 1248,-310 1248,-310 1248,-298 1248,-298 1248,-292 1254,-286 1260,-286 1260,-286 1308,-286 1308,-286 1314,-286 1320,-292 1320,-298 1320,-298 1320,-310 1320,-310 1320,-316 1314,-322 1308,-322"/>
<text text-anchor="middle" x="1284" y="-301.5" font-family="Arial" font-size="10.00">cert&#45;manager</text>
</g>
<!-- MetalLB -->
<g id="node17" class="node">
<title>MetalLB</title>
<path fill="#f8fafc" stroke="#334155" d="M1204,-322C1204,-322 1174,-322 1174,-322 1168,-322 1162,-316 1162,-310 1162,-310 1162,-298 1162,-298 1162,-292 1168,-286 1174,-286 1174,-286 1204,-286 1204,-286 1210,-286 1216,-292 1216,-298 1216,-298 1216,-310 1216,-310 1216,-316 1210,-322 1204,-322"/>
<text text-anchor="middle" x="1189" y="-301.5" font-family="Arial" font-size="10.00">MetalLB</text>
</g>
<!-- Contour -->
<g id="node18" class="node">
<title>Contour</title>
<path fill="#f8fafc" stroke="#334155" d="M1118,-322C1118,-322 1088,-322 1088,-322 1082,-322 1076,-316 1076,-310 1076,-310 1076,-298 1076,-298 1076,-292 1082,-286 1088,-286 1088,-286 1118,-286 1118,-286 1124,-286 1130,-292 1130,-298 1130,-298 1130,-310 1130,-310 1130,-316 1124,-322 1118,-322"/>
<text text-anchor="middle" x="1103" y="-301.5" font-family="Arial" font-size="10.00">Contour</text>
</g>
<!-- Istio -->
<g id="node19" class="node">
<title>Istio</title>
<path fill="#f8fafc" stroke="#334155" d="M1031.5,-322C1031.5,-322 986.5,-322 986.5,-322 980.5,-322 974.5,-316 974.5,-310 974.5,-310 974.5,-298 974.5,-298 974.5,-292 980.5,-286 986.5,-286 986.5,-286 1031.5,-286 1031.5,-286 1037.5,-286 1043.5,-292 1043.5,-298 1043.5,-298 1043.5,-310 1043.5,-310 1043.5,-316 1037.5,-322 1031.5,-322"/>
<text text-anchor="middle" x="1009" y="-301.5" font-family="Arial" font-size="10.00">Istio Proxies</text>
</g>
<!-- MongoDB -->
<g id="node20" class="node">
<title>MongoDB</title>
<path fill="#f8fafc" stroke="#334155" d="M930.5,-322C930.5,-322 851.5,-322 851.5,-322 845.5,-322 839.5,-316 839.5,-310 839.5,-310 839.5,-298 839.5,-298 839.5,-292 845.5,-286 851.5,-286 851.5,-286 930.5,-286 930.5,-286 936.5,-286 942.5,-292 942.5,-298 942.5,-298 942.5,-310 942.5,-310 942.5,-316 936.5,-322 930.5,-322"/>
<text text-anchor="middle" x="891" y="-301.5" font-family="Arial" font-size="10.00">MongoDB Exporters</text>
</g>
<!-- NATS -->
<g id="node21" class="node">
<title>NATS</title>
<path fill="#f8fafc" stroke="#334155" d="M795,-322C795,-322 733,-322 733,-322 727,-322 721,-316 721,-310 721,-310 721,-298 721,-298 721,-292 727,-286 733,-286 733,-286 795,-286 795,-286 801,-286 807,-292 807,-298 807,-298 807,-310 807,-310 807,-316 801,-322 795,-322"/>
<text text-anchor="middle" x="764" y="-301.5" font-family="Arial" font-size="10.00">NATS Exporters</text>
</g>
<!-- RocketChat -->
<g id="node22" class="node">
<title>RocketChat</title>
<path fill="#f8fafc" stroke="#334155" d="M676.5,-322C676.5,-322 595.5,-322 595.5,-322 589.5,-322 583.5,-316 583.5,-310 583.5,-310 583.5,-298 583.5,-298 583.5,-292 589.5,-286 595.5,-286 595.5,-286 676.5,-286 676.5,-286 682.5,-286 688.5,-292 688.5,-298 688.5,-298 688.5,-310 688.5,-310 688.5,-316 682.5,-322 676.5,-322"/>
<text text-anchor="middle" x="636" y="-301.5" font-family="Arial" font-size="10.00">Rocket.Chat Metrics</text>
</g>
<!-- RC_SLO -->
<g id="node23" class="node">
<title>RC_SLO</title>
<path fill="#f8fafc" stroke="#334155" d="M1849.5,-322C1849.5,-322 1780.5,-322 1780.5,-322 1774.5,-322 1768.5,-316 1768.5,-310 1768.5,-310 1768.5,-298 1768.5,-298 1768.5,-292 1774.5,-286 1780.5,-286 1780.5,-286 1849.5,-286 1849.5,-286 1855.5,-286 1861.5,-292 1861.5,-298 1861.5,-298 1861.5,-310 1861.5,-310 1861.5,-316 1855.5,-322 1849.5,-322"/>
<text text-anchor="middle" x="1815" y="-301.5" font-family="Arial" font-size="10.00">Rocket.Chat SLO</text>
</g>
<!-- Mongo_SLO -->
<g id="node24" class="node">
<title>Mongo_SLO</title>
<path fill="#f8fafc" stroke="#334155" d="M1724.5,-322C1724.5,-322 1667.5,-322 1667.5,-322 1661.5,-322 1655.5,-316 1655.5,-310 1655.5,-310 1655.5,-298 1655.5,-298 1655.5,-292 1661.5,-286 1667.5,-286 1667.5,-286 1724.5,-286 1724.5,-286 1730.5,-286 1736.5,-292 1736.5,-298 1736.5,-298 1736.5,-310 1736.5,-310 1736.5,-316 1730.5,-322 1724.5,-322"/>
<text text-anchor="middle" x="1696" y="-301.5" font-family="Arial" font-size="10.00">MongoDB SLO</text>
</g>
<!-- Edge_SLO -->
<g id="node25" class="node">
<title>Edge_SLO</title>
<path fill="#f8fafc" stroke="#334155" d="M1611,-322C1611,-322 1575,-322 1575,-322 1569,-322 1563,-316 1563,-310 1563,-310 1563,-298 1563,-298 1563,-292 1569,-286 1575,-286 1575,-286 1611,-286 1611,-286 1617,-286 1623,-292 1623,-298 1623,-298 1623,-310 1623,-310 1623,-316 1617,-322 1611,-322"/>
<text text-anchor="middle" x="1593" y="-301.5" font-family="Arial" font-size="10.00">Edge SLO</text>
</g>
<!-- Mongo_Alerts -->
<g id="node26" class="node">
<title>Mongo_Alerts</title>
<path fill="#f8fafc" stroke="#334155" d="M2208,-322C2208,-322 2146,-322 2146,-322 2140,-322 2134,-316 2134,-310 2134,-310 2134,-298 2134,-298 2134,-292 2140,-286 2146,-286 2146,-286 2208,-286 2208,-286 2214,-286 2220,-292 2220,-298 2220,-298 2220,-310 2220,-310 2220,-316 2214,-322 2208,-322"/>
<text text-anchor="middle" x="2177" y="-301.5" font-family="Arial" font-size="10.00">MongoDB Alerts</text>
</g>
<!-- RC_Alerts -->
<g id="node27" class="node">
<title>RC_Alerts</title>
<path fill="#f8fafc" stroke="#334155" d="M2090,-322C2090,-322 2016,-322 2016,-322 2010,-322 2004,-316 2004,-310 2004,-310 2004,-298 2004,-298 2004,-292 2010,-286 2016,-286 2016,-286 2090,-286 2090,-286 2096,-286 2102,-292 2102,-298 2102,-298 2102,-310 2102,-310 2102,-316 2096,-322 2090,-322"/>
<text text-anchor="middle" x="2053" y="-301.5" font-family="Arial" font-size="10.00">Rocket.Chat Alerts</text>
</g>
<!-- MetalLB_Alerts -->
<g id="node28" class="node">
<title>MetalLB_Alerts</title>
<path fill="#f8fafc" stroke="#334155" d="M1960,-322C1960,-322 1906,-322 1906,-322 1900,-322 1894,-316 1894,-310 1894,-310 1894,-298 1894,-298 1894,-292 1900,-286 1906,-286 1906,-286 1960,-286 1960,-286 1966,-286 1972,-292 1972,-298 1972,-298 1972,-310 1972,-310 1972,-316 1966,-322 1960,-322"/>
<text text-anchor="middle" x="1933" y="-301.5" font-family="Arial" font-size="10.00">MetalLB Alerts</text>
</g>
</g>
</svg>
