<?xml version="1.0" encoding="UTF-8" standalone="no"?>
<!DOCTYPE svg PUBLIC "-//W3C//DTD SVG 1.1//EN"
 "http://www.w3.org/Graphics/SVG/1.1/DTD/svg11.dtd">
<!-- Generated by graphviz version 2.42.4 (0)
 -->
<!-- Title: system&#45;design&#45;document&#45;diagram&#45;09 Pages: 1 -->
<svg width="662pt" height="418pt"
 viewBox="0.00 0.00 662.00 418.00" xmlns="http://www.w3.org/2000/svg" xmlns:xlink="http://www.w3.org/1999/xlink">
<g id="graph0" class="graph" transform="scale(1 1) rotate(0) translate(4 414)">
<title>system&#45;design&#45;document&#45;diagram&#45;09</title>
<polygon fill="white" stroke="transparent" points="-4,4 -4,-414 658,-414 658,4 -4,4"/>
<g id="clust1" class="cluster">
<title>cluster_1_Operator</title>
<path fill="white" stroke="#cbd5e1" d="M329,-329C329,-329 634,-329 634,-329 640,-329 646,-335 646,-341 646,-341 646,-390 646,-390 646,-396 640,-402 634,-402 634,-402 329,-402 329,-402 323,-402 317,-396 317,-390 317,-390 317,-341 317,-341 317,-335 323,-329 329,-329"/>
<text text-anchor="middle" x="481.5" y="-388.4" font-family="Arial" font-size="12.00">MongoDB Operator &#45; mgmt&#45;cluster</text>
</g>
<g id="clust2" class="cluster">
<title>cluster_2_Site_AD_DB</title>
<path fill="white" stroke="#cbd5e1" d="M129,-222C129,-222 248,-222 248,-222 254,-222 260,-228 260,-234 260,-234 260,-283 260,-283 260,-289 254,-295 248,-295 248,-295 129,-295 129,-295 123,-295 117,-289 117,-283 117,-283 117,-234 117,-234 117,-228 123,-222 129,-222"/>
<text text-anchor="middle" x="188.5" y="-281.4" font-family="Arial" font-size="12.00">app&#45;cluster&#45;a MongoDB</text>
</g>
<g id="clust3" class="cluster">
<title>cluster_3_Site_BD_DB</title>
<path fill="white" stroke="#cbd5e1" d="M246,-115C246,-115 365,-115 365,-115 371,-115 377,-121 377,-127 377,-127 377,-176 377,-176 377,-182 371,-188 365,-188 365,-188 246,-188 246,-188 240,-188 234,-182 234,-176 234,-176 234,-127 234,-127 234,-121 240,-115 246,-115"/>
<text text-anchor="middle" x="305.5" y="-174.4" font-family="Arial" font-size="12.00">app&#45;cluster&#45;b MongoDB</text>
</g>
<g id="clust4" class="cluster">
<title>cluster_4_Site_CD_DB</title>
<path fill="white" stroke="#cbd5e1" d="M159,-8C159,-8 278,-8 278,-8 284,-8 290,-14 290,-20 290,-20 290,-69 290,-69 290,-75 284,-81 278,-81 278,-81 159,-81 159,-81 153,-81 147,-75 147,-69 147,-69 147,-20 147,-20 147,-14 153,-8 159,-8"/>
<text text-anchor="middle" x="218.5" y="-67.4" font-family="Arial" font-size="12.00">app&#45;cluster&#45;c MongoDB</text>
</g>
<g id="clust5" class="cluster">
<title>cluster_5_Apps</title>
<path fill="white" stroke="#cbd5e1" d="M20,-329C20,-329 290,-329 290,-329 296,-329 302,-335 302,-341 302,-341 302,-390 302,-390 302,-396 296,-402 290,-402 290,-402 20,-402 20,-402 14,-402 8,-396 8,-390 8,-390 8,-341 8,-341 8,-335 14,-329 20,-329"/>
<text text-anchor="middle" x="155" y="-388.4" font-family="Arial" font-size="12.00">Application Layer</text>
</g>
<!-- MongoOp -->
<g id="node1" class="node">
<title>MongoOp</title>
<path fill="#c8e6c9" stroke="#334155" d="M625.5,-373C625.5,-373 498.5,-373 498.5,-373 492.5,-373 486.5,-367 486.5,-361 486.5,-361 486.5,-349 486.5,-349 486.5,-343 492.5,-337 498.5,-337 498.5,-337 625.5,-337 625.5,-337 631.5,-337 637.5,-343 637.5,-349 637.5,-349 637.5,-361 637.5,-361 637.5,-367 631.5,-373 625.5,-373"/>
<text text-anchor="middle" x="562" y="-358" font-family="Arial" font-size="10.00">MongoDB Kubernetes Operator</text>
<text text-anchor="middle" x="562" y="-347" font-family="Arial" font-size="10.00">v1.5.0</text>
</g>
<!-- Site_AD_RS -->
<g id="node3" class="node">
<title>Site_AD_RS</title>
<path fill="#f8fafc" stroke="#334155" d="M230.5,-266C230.5,-266 145.5,-266 145.5,-266 139.5,-266 133.5,-260 133.5,-254 133.5,-254 133.5,-242 133.5,-242 133.5,-236 139.5,-230 145.5,-230 145.5,-230 230.5,-230 230.5,-230 236.5,-230 242.5,-236 242.5,-242 242.5,-242 242.5,-254 242.5,-254 242.5,-260 236.5,-266 230.5,-266"/>
<text text-anchor="middle" x="188" y="-245.5" font-family="Arial" font-size="10.00">ReplicaSet Member 1</text>
</g>
<!-- MongoOp&#45;&gt;Site_AD_RS -->
<g id="edge1" class="edge">
<title>MongoOp&#45;&gt;Site_AD_RS</title>
<path fill="none" stroke="#475569" stroke-dasharray="5,2" d="M501.4,-336.96C491.27,-334.22 480.85,-331.48 471,-329 440.05,-321.22 431.85,-321.15 401,-313 349.34,-299.35 291.29,-281.76 248.85,-268.47"/>
<polygon fill="#475569" stroke="#475569" points="249.59,-265.77 241.12,-266.04 247.91,-271.11 249.59,-265.77"/>
<text text-anchor="middle" x="420.5" y="-305.8" font-family="Arial" font-size="9.00">Manages</text>
</g>
<!-- Site_BD_RS -->
<g id="node4" class="node">
<title>Site_BD_RS</title>
<path fill="#f8fafc" stroke="#334155" d="M347.5,-159C347.5,-159 262.5,-159 262.5,-159 256.5,-159 250.5,-153 250.5,-147 250.5,-147 250.5,-135 250.5,-135 250.5,-129 256.5,-123 262.5,-123 262.5,-123 347.5,-123 347.5,-123 353.5,-123 359.5,-129 359.5,-135 359.5,-135 359.5,-147 359.5,-147 359.5,-153 353.5,-159 347.5,-159"/>
<text text-anchor="middle" x="305" y="-138.5" font-family="Arial" font-size="10.00">ReplicaSet Member 2</text>
</g>
<!-- MongoOp&#45;&gt;Site_BD_RS -->
<g id="edge2" class="edge">
<title>MongoOp&#45;&gt;Site_BD_RS</title>
<path fill="none" stroke="#475569" stroke-dasharray="5,2" d="M540.97,-336.65C494.64,-298.43 383.8,-207.01 332.24,-164.47"/>
<polygon fill="#475569" stroke="#475569" points="333.91,-162.22 325.96,-159.29 330.35,-166.54 333.91,-162.22"/>
<text text-anchor="middle" x="506.5" y="-245.8" font-family="Arial" font-size="9.00">Manages</text>
</g>
<!-- Site_CD_RS -->
<g id="node5" class="node">
<title>Site_CD_RS</title>
<path fill="#f8fafc" stroke="#334155" d="M260.5,-52C260.5,-52 175.5,-52 175.5,-52 169.5,-52 163.5,-46 163.5,-40 163.5,-40 163.5,-28 163.5,-28 163.5,-22 169.5,-16 175.5,-16 175.5,-16 260.5,-16 260.5,-16 266.5,-16 272.5,-22 272.5,-28 272.5,-28 272.5,-40 272.5,-40 272.5,-46 266.5,-52 260.5,-52"/>
<text text-anchor="middle" x="218" y="-31.5" font-family="Arial" font-size="10.00">ReplicaSet Member 3</text>
</g>
<!-- MongoOp&#45;&gt;Site_CD_RS -->
<g id="edge3" class="edge">
<title>MongoOp&#45;&gt;Site_CD_RS</title>
<path fill="none" stroke="#475569" stroke-dasharray="5,2" d="M562.19,-336.68C561.68,-309.92 557.44,-257.89 534,-222 474.64,-131.11 354.42,-78.39 280.58,-53.28"/>
<polygon fill="#475569" stroke="#475569" points="281.17,-50.53 272.7,-50.65 279.4,-55.84 281.17,-50.53"/>
<text text-anchor="middle" x="539.5" y="-198.8" font-family="Arial" font-size="9.00">Manages</text>
</g>
<!-- OpConfig -->
<g id="node2" class="node">
<title>OpConfig</title>
<path fill="#f8fafc" stroke="#334155" d="M442.5,-373C442.5,-373 337.5,-373 337.5,-373 331.5,-373 325.5,-367 325.5,-361 325.5,-361 325.5,-349 325.5,-349 325.5,-343 331.5,-337 337.5,-337 337.5,-337 442.5,-337 442.5,-337 448.5,-337 454.5,-343 454.5,-349 454.5,-349 454.5,-361 454.5,-361 454.5,-367 448.5,-373 442.5,-373"/>
<text text-anchor="middle" x="390" y="-352.5" font-family="Arial" font-size="10.00">Multi&#45;cluster Configuration</text>
</g>
<!-- Site_AD_RS&#45;&gt;Site_BD_RS -->
<g id="edge4" class="edge">
<title>Site_AD_RS&#45;&gt;Site_BD_RS</title>
<path fill="none" stroke="#475569" stroke-dasharray="5,2" d="M204.35,-223.23C211.13,-214.2 219.41,-204.14 228,-196 240.51,-184.14 255.8,-172.88 269.45,-163.73"/>
<polygon fill="#475569" stroke="#475569" points="201.94,-221.78 199.48,-229.89 206.46,-225.09 201.94,-221.78"/>
<polygon fill="#475569" stroke="#475569" points="271.27,-165.89 276.42,-159.16 268.19,-161.21 271.27,-165.89"/>
<text text-anchor="middle" x="251.5" y="-198.8" font-family="Arial" font-size="9.00">Replication</text>
</g>
<!-- Site_AD_RS&#45;&gt;Site_CD_RS -->
<g id="edge5" class="edge">
<title>Site_AD_RS&#45;&gt;Site_CD_RS</title>
<path fill="none" stroke="#475569" stroke-dasharray="5,2" d="M181.91,-221.55C176.49,-194.71 170.61,-151.35 179,-115 183.57,-95.2 193.73,-74.64 202.54,-59.32"/>
<polygon fill="#475569" stroke="#475569" points="179.23,-222.42 183.63,-229.66 184.71,-221.25 179.23,-222.42"/>
<polygon fill="#475569" stroke="#475569" points="205.06,-60.55 206.72,-52.24 200.24,-57.7 205.06,-60.55"/>
<text text-anchor="middle" x="202.5" y="-138.8" font-family="Arial" font-size="9.00">Replication</text>
</g>
<!-- Site_BD_RS&#45;&gt;Site_CD_RS -->
<g id="edge6" class="edge">
<title>Site_BD_RS&#45;&gt;Site_CD_RS</title>
<path fill="none" stroke="#475569" stroke-dasharray="5,2" d="M285.4,-116.35C271.1,-99.08 251.78,-75.77 237.5,-58.53"/>
<polygon fill="#475569" stroke="#475569" points="283.37,-118.29 290.63,-122.66 287.69,-114.71 283.37,-118.29"/>
<polygon fill="#475569" stroke="#475569" points="239.36,-56.39 232.1,-52.02 235.05,-59.96 239.36,-56.39"/>
<text text-anchor="middle" x="292.5" y="-91.8" font-family="Arial" font-size="9.00">Replication</text>
</g>
<!-- RC_Site_A -->
<g id="node6" class="node">
<title>RC_Site_A</title>
<path fill="#f8fafc" stroke="#334155" d="M178.5,-373C178.5,-373 131.5,-373 131.5,-373 125.5,-373 119.5,-367 119.5,-361 119.5,-361 119.5,-349 119.5,-349 119.5,-343 125.5,-337 131.5,-337 131.5,-337 178.5,-337 178.5,-337 184.5,-337 190.5,-343 190.5,-349 190.5,-349 190.5,-361 190.5,-361 190.5,-367 184.5,-373 178.5,-373"/>
<text text-anchor="middle" x="155" y="-358" font-family="Arial" font-size="10.00">Rocket.Chat</text>
<text text-anchor="middle" x="155" y="-347" font-family="Arial" font-size="10.00">app&#45;cluster&#45;a</text>
</g>
<!-- RC_Site_A&#45;&gt;Site_AD_RS -->
<g id="edge7" class="edge">
<title>RC_Site_A&#45;&gt;Site_AD_RS</title>
<path fill="none" stroke="#475569" d="M160.45,-336.66C165.83,-319.54 174.12,-293.17 180.2,-273.83"/>
<polygon fill="#475569" stroke="#475569" points="182.92,-274.49 182.65,-266.02 177.58,-272.81 182.92,-274.49"/>
</g>
<!-- RC_Site_B -->
<g id="node7" class="node">
<title>RC_Site_B</title>
<path fill="#f8fafc" stroke="#334155" d="M281.5,-373C281.5,-373 234.5,-373 234.5,-373 228.5,-373 222.5,-367 222.5,-361 222.5,-361 222.5,-349 222.5,-349 222.5,-343 228.5,-337 234.5,-337 234.5,-337 281.5,-337 281.5,-337 287.5,-337 293.5,-343 293.5,-349 293.5,-349 293.5,-361 293.5,-361 293.5,-367 287.5,-373 281.5,-373"/>
<text text-anchor="middle" x="258" y="-358" font-family="Arial" font-size="10.00">Rocket.Chat</text>
<text text-anchor="middle" x="258" y="-347" font-family="Arial" font-size="10.00">app&#45;cluster&#45;b</text>
</g>
<!-- RC_Site_B&#45;&gt;Site_BD_RS -->
<g id="edge8" class="edge">
<title>RC_Site_B&#45;&gt;Site_BD_RS</title>
<path fill="none" stroke="#475569" d="M261.85,-336.65C270.15,-299.21 289.77,-210.71 299.43,-167.13"/>
<polygon fill="#475569" stroke="#475569" points="302.17,-167.71 301.17,-159.29 296.7,-166.5 302.17,-167.71"/>
</g>
<!-- RC_Site_C -->
<g id="node8" class="node">
<title>RC_Site_C</title>
<path fill="#f8fafc" stroke="#334155" d="M75.5,-373C75.5,-373 28.5,-373 28.5,-373 22.5,-373 16.5,-367 16.5,-361 16.5,-361 16.5,-349 16.5,-349 16.5,-343 22.5,-337 28.5,-337 28.5,-337 75.5,-337 75.5,-337 81.5,-337 87.5,-343 87.5,-349 87.5,-349 87.5,-361 87.5,-361 87.5,-367 81.5,-373 75.5,-373"/>
<text text-anchor="middle" x="52" y="-358" font-family="Arial" font-size="10.00">Rocket.Chat</text>
<text text-anchor="middle" x="52" y="-347" font-family="Arial" font-size="10.00">app&#45;cluster&#45;c</text>
</g>
<!-- RC_Site_C&#45;&gt;Site_CD_RS -->
<g id="edge9" class="edge">
<title>RC_Site_C&#45;&gt;Site_CD_RS</title>
<path fill="none" stroke="#475569" d="M58.3,-336.8C74.54,-293.43 120.48,-176.8 176,-89 182.54,-78.66 190.61,-67.9 197.93,-58.73"/>
<polygon fill="#475569" stroke="#475569" points="200.23,-60.34 203.09,-52.36 195.88,-56.81 200.23,-60.34"/>
</g>
</g>
</svg>
