<?xml version="1.0" encoding="UTF-8" standalone="no"?>
<!DOCTYPE svg PUBLIC "-//W3C//DTD SVG 1.1//EN"
 "http://www.w3.org/Graphics/SVG/1.1/DTD/svg11.dtd">
<!-- Generated by graphviz version 2.42.4 (0)
 -->
<!-- Title: system&#45;design&#45;document&#45;diagram&#45;03 Pages: 1 -->
<svg width="706pt" height="611pt"
 viewBox="0.00 0.00 706.00 611.00" xmlns="http://www.w3.org/2000/svg" xmlns:xlink="http://www.w3.org/1999/xlink">
<g id="graph0" class="graph" transform="scale(1 1) rotate(0) translate(4 607)">
<title>system&#45;design&#45;document&#45;diagram&#45;03</title>
<polygon fill="white" stroke="transparent" points="-4,4 -4,-607 702,-607 702,4 -4,4"/>
<g id="clust1" class="cluster">
<title>cluster_1_Networks</title>
<path fill="white" stroke="#cbd5e1" d="M20,-8C20,-8 648,-8 648,-8 654,-8 660,-14 660,-20 660,-20 660,-583 660,-583 660,-589 654,-595 648,-595 648,-595 20,-595 20,-595 14,-595 8,-589 8,-583 8,-583 8,-20 8,-20 8,-14 14,-8 20,-8"/>
<text text-anchor="middle" x="334" y="-581.4" font-family="Arial" font-size="12.00">Network Topology</text>
</g>
<g id="clust2" class="cluster">
<title>cluster_2_Site_AM_NET</title>
<path fill="white" stroke="#cbd5e1" d="M145,-454C145,-454 615,-454 615,-454 621,-454 627,-460 627,-466 627,-466 627,-554 627,-554 627,-560 621,-566 615,-566 615,-566 145,-566 145,-566 139,-566 133,-560 133,-554 133,-554 133,-466 133,-466 133,-460 139,-454 145,-454"/>
<text text-anchor="middle" x="380" y="-552.4" font-family="Arial" font-size="12.00">mgmt&#45;cluster</text>
<text text-anchor="middle" x="380" y="-539.4" font-family="Arial" font-size="12.00">Nodes: 192.0.2.10&#45;192.0.2.19</text>
<text text-anchor="middle" x="380" y="-526.4" font-family="Arial" font-size="12.00">Storage: 203.0.113.10&#45;203.0.113.17</text>
<text text-anchor="middle" x="380" y="-513.4" font-family="Arial" font-size="12.00">Restricted Ingress: 192.0.2.110&#45;192.0.2.119</text>
</g>
<g id="clust3" class="cluster">
<title>cluster_3_Site_AD_NET</title>
<path fill="white" stroke="#cbd5e1" d="M28,-308C28,-308 500,-308 500,-308 506,-308 512,-314 512,-320 512,-320 512,-408 512,-408 512,-414 506,-420 500,-420 500,-420 28,-420 28,-420 22,-420 16,-414 16,-408 16,-408 16,-320 16,-320 16,-314 22,-308 28,-308"/>
<text text-anchor="middle" x="264" y="-406.4" font-family="Arial" font-size="12.00">app&#45;cluster&#45;a</text>
<text text-anchor="middle" x="264" y="-393.4" font-family="Arial" font-size="12.00">Nodes: 192.0.2.20&#45;192.0.2.29</text>
<text text-anchor="middle" x="264" y="-380.4" font-family="Arial" font-size="12.00">Storage: 203.0.113.20&#45;203.0.113.26</text>
<text text-anchor="middle" x="264" y="-367.4" font-family="Arial" font-size="12.00">Restricted Ingress: 192.0.2.120&#45;192.0.2.129</text>
</g>
<g id="clust4" class="cluster">
<title>cluster_4_Site_BD_NET</title>
<path fill="white" stroke="#cbd5e1" d="M134,-162C134,-162 606,-162 606,-162 612,-162 618,-168 618,-174 618,-174 618,-262 618,-262 618,-268 612,-274 606,-274 606,-274 134,-274 134,-274 128,-274 122,-268 122,-262 122,-262 122,-174 122,-174 122,-168 128,-162 134,-162"/>
<text text-anchor="middle" x="370" y="-260.4" font-family="Arial" font-size="12.00">app&#45;cluster&#45;b</text>
<text text-anchor="middle" x="370" y="-247.4" font-family="Arial" font-size="12.00">Nodes: 192.0.2.30&#45;192.0.2.39</text>
<text text-anchor="middle" x="370" y="-234.4" font-family="Arial" font-size="12.00">Storage: 203.0.113.30&#45;203.0.113.36</text>
<text text-anchor="middle" x="370" y="-221.4" font-family="Arial" font-size="12.00">Restricted Ingress: 192.0.2.130&#45;192.0.2.139</text>
</g>
<g id="clust5" class="cluster">
<title>cluster_5_Site_CD_NET</title>
<path fill="white" stroke="#cbd5e1" d="M134,-16C134,-16 606,-16 606,-16 612,-16 618,-22 618,-28 618,-28 618,-116 618,-116 618,-122 612,-128 606,-128 606,-128 134,-128 134,-128 128,-128 122,-122 122,-116 122,-116 122,-28 122,-28 122,-22 128,-16 134,-16"/>
<text text-anchor="middle" x="370" y="-114.4" font-family="Arial" font-size="12.00">app&#45;cluster&#45;c</text>
<text text-anchor="middle" x="370" y="-101.4" font-family="Arial" font-size="12.00">Nodes: 192.0.2.40&#45;192.0.2.49</text>
<text text-anchor="middle" x="370" y="-88.4" font-family="Arial" font-size="12.00">Storage: 203.0.113.40&#45;203.0.113.46</text>
<text text-anchor="middle" x="370" y="-75.4" font-family="Arial" font-size="12.00">Restricted Ingress: 192.0.2.140&#45;192.0.2.149</text>
</g>
<!-- Site_AM_GW -->
<g id="node1" class="node">
<title>Site_AM_GW</title>
<path fill="#f8fafc" stroke="#334155" d="M607,-498C607,-498 529,-498 529,-498 523,-498 517,-492 517,-486 517,-486 517,-474 517,-474 517,-468 523,-462 529,-462 529,-462 607,-462 607,-462 613,-462 619,-468 619,-474 619,-474 619,-486 619,-486 619,-492 613,-498 607,-498"/>
<text text-anchor="middle" x="568" y="-477.5" font-family="Arial" font-size="10.00">East&#45;West Gateway</text>
</g>
<!-- Site_AD_GW -->
<g id="node4" class="node">
<title>Site_AD_GW</title>
<path fill="#f8fafc" stroke="#334155" d="M492,-352C492,-352 414,-352 414,-352 408,-352 402,-346 402,-340 402,-340 402,-328 402,-328 402,-322 408,-316 414,-316 414,-316 492,-316 492,-316 498,-316 504,-322 504,-328 504,-328 504,-340 504,-340 504,-346 498,-352 492,-352"/>
<text text-anchor="middle" x="453" y="-331.5" font-family="Arial" font-size="10.00">East&#45;West Gateway</text>
</g>
<!-- Site_AM_GW&#45;&gt;Site_AD_GW -->
<g id="edge1" class="edge">
<title>Site_AM_GW&#45;&gt;Site_AD_GW</title>
<path fill="none" stroke="#475569" stroke-dasharray="5,2" d="M530.6,-456.95C522.9,-451.38 515.25,-444.97 509,-438 488.07,-414.65 472.05,-382.09 462.61,-359.87"/>
<polygon fill="#475569" stroke="#475569" points="529.47,-459.58 537.64,-461.83 532.66,-454.97 529.47,-459.58"/>
<polygon fill="#475569" stroke="#475569" points="465.08,-358.51 459.43,-352.19 459.9,-360.65 465.08,-358.51"/>
<text text-anchor="middle" x="534" y="-430.8" font-family="Arial" font-size="9.00">Mesh Traffic</text>
</g>
<!-- Site_BD_GW -->
<g id="node7" class="node">
<title>Site_BD_GW</title>
<path fill="#f8fafc" stroke="#334155" d="M598,-206C598,-206 520,-206 520,-206 514,-206 508,-200 508,-194 508,-194 508,-182 508,-182 508,-176 514,-170 520,-170 520,-170 598,-170 598,-170 604,-170 610,-176 610,-182 610,-182 610,-194 610,-194 610,-200 604,-206 598,-206"/>
<text text-anchor="middle" x="559" y="-185.5" font-family="Arial" font-size="10.00">East&#45;West Gateway</text>
</g>
<!-- Site_AM_GW&#45;&gt;Site_BD_GW -->
<g id="edge2" class="edge">
<title>Site_AM_GW&#45;&gt;Site_BD_GW</title>
<path fill="none" stroke="#475569" stroke-dasharray="5,2" d="M567.21,-453.47C565.5,-398.44 561.49,-269.17 559.79,-214.32"/>
<polygon fill="#475569" stroke="#475569" points="564.42,-453.82 567.46,-461.73 570.01,-453.64 564.42,-453.82"/>
<polygon fill="#475569" stroke="#475569" points="562.58,-214.09 559.53,-206.18 556.98,-214.26 562.58,-214.09"/>
<text text-anchor="middle" x="591" y="-331.8" font-family="Arial" font-size="9.00">Mesh Traffic</text>
</g>
<!-- Site_CD_GW -->
<g id="node10" class="node">
<title>Site_CD_GW</title>
<path fill="#f8fafc" stroke="#334155" d="M598,-60C598,-60 520,-60 520,-60 514,-60 508,-54 508,-48 508,-48 508,-36 508,-36 508,-30 514,-24 520,-24 520,-24 598,-24 598,-24 604,-24 610,-30 610,-36 610,-36 610,-48 610,-48 610,-54 604,-60 598,-60"/>
<text text-anchor="middle" x="559" y="-39.5" font-family="Arial" font-size="10.00">East&#45;West Gateway</text>
</g>
<!-- Site_AM_GW&#45;&gt;Site_CD_GW -->
<g id="edge3" class="edge">
<title>Site_AM_GW&#45;&gt;Site_CD_GW</title>
<path fill="none" stroke="#475569" stroke-dasharray="5,2" d="M597.29,-456.3C607.75,-446.4 618.35,-433.89 624,-420 667.23,-313.79 645.02,-275.08 626,-162 619.84,-125.4 596.16,-89.06 578.69,-66.35"/>
<polygon fill="#475569" stroke="#475569" points="595.24,-454.37 591.18,-461.81 598.99,-458.53 595.24,-454.37"/>
<polygon fill="#475569" stroke="#475569" points="580.87,-64.59 573.72,-60.04 576.47,-68.06 580.87,-64.59"/>
<text text-anchor="middle" x="673" y="-284.8" font-family="Arial" font-size="9.00">Mesh Traffic</text>
</g>
<!-- Site_AM_LB -->
<g id="node2" class="node">
<title>Site_AM_LB</title>
<path fill="#f8fafc" stroke="#334155" d="M473,-498C473,-498 421,-498 421,-498 415,-498 409,-492 409,-486 409,-486 409,-474 409,-474 409,-468 415,-462 421,-462 421,-462 473,-462 473,-462 479,-462 485,-468 485,-474 485,-474 485,-486 485,-486 485,-492 479,-498 473,-498"/>
<text text-anchor="middle" x="447" y="-483" font-family="Arial" font-size="10.00">Contour LB</text>
<text text-anchor="middle" x="447" y="-472" font-family="Arial" font-size="10.00">198.51.100.15</text>
</g>
<!-- Site_AM_MetalLB -->
<g id="node3" class="node">
<title>Site_AM_MetalLB</title>
<path fill="#f8fafc" stroke="#334155" d="M365,-498C365,-498 153,-498 153,-498 147,-498 141,-492 141,-486 141,-486 141,-474 141,-474 141,-468 147,-462 153,-462 153,-462 365,-462 365,-462 371,-462 377,-468 377,-474 377,-474 377,-486 377,-486 377,-492 371,-498 365,-498"/>
<text text-anchor="middle" x="259" y="-483" font-family="Arial" font-size="10.00">MetalLB: 198.51.100.10&#45;198.51.100.19</text>
<text text-anchor="middle" x="259" y="-472" font-family="Arial" font-size="10.00">Restricted Ingress: 198.51.100.110&#45;198.51.100.119</text>
</g>
<!-- Site_AD_GW&#45;&gt;Site_BD_GW -->
<g id="edge4" class="edge">
<title>Site_AD_GW&#45;&gt;Site_BD_GW</title>
<path fill="none" stroke="#475569" stroke-dasharray="5,2" d="M470.43,-309.33C490.06,-282.65 521.8,-239.54 541.47,-212.81"/>
<polygon fill="#475569" stroke="#475569" points="468.06,-307.81 465.58,-315.92 472.57,-311.13 468.06,-307.81"/>
<polygon fill="#475569" stroke="#475569" points="543.95,-214.16 546.44,-206.06 539.44,-210.84 543.95,-214.16"/>
<text text-anchor="middle" x="515" y="-284.8" font-family="Arial" font-size="9.00">Mesh Traffic</text>
</g>
<!-- Site_AD_GW&#45;&gt;Site_CD_GW -->
<g id="edge5" class="edge">
<title>Site_AD_GW&#45;&gt;Site_CD_GW</title>
<path fill="none" stroke="#475569" stroke-dasharray="5,2" d="M404.64,-313.33C398.44,-311.29 392.12,-309.44 386,-308 315.96,-291.51 112.13,-327.48 64,-274 30.7,-237 30.22,-198.57 64,-162 128.74,-91.91 407.87,-173.01 492,-128 516.97,-114.64 535.77,-87.54 547,-67.52"/>
<polygon fill="#475569" stroke="#475569" points="403.93,-316.04 412.4,-315.99 405.75,-310.75 403.93,-316.04"/>
<polygon fill="#475569" stroke="#475569" points="549.6,-68.6 550.93,-60.23 544.67,-65.94 549.6,-68.6"/>
<text text-anchor="middle" x="89" y="-185.8" font-family="Arial" font-size="9.00">Mesh Traffic</text>
</g>
<!-- Site_AD_LB -->
<g id="node5" class="node">
<title>Site_AD_LB</title>
<path fill="#f8fafc" stroke="#334155" d="M358,-352C358,-352 306,-352 306,-352 300,-352 294,-346 294,-340 294,-340 294,-328 294,-328 294,-322 300,-316 306,-316 306,-316 358,-316 358,-316 364,-316 370,-322 370,-328 370,-328 370,-340 370,-340 370,-346 364,-352 358,-352"/>
<text text-anchor="middle" x="332" y="-337" font-family="Arial" font-size="10.00">Contour LB</text>
<text text-anchor="middle" x="332" y="-326" font-family="Arial" font-size="10.00">198.51.100.25</text>
</g>
<!-- Site_AD_MetalLB -->
<g id="node6" class="node">
<title>Site_AD_MetalLB</title>
<path fill="#f8fafc" stroke="#334155" d="M249.5,-352C249.5,-352 36.5,-352 36.5,-352 30.5,-352 24.5,-346 24.5,-340 24.5,-340 24.5,-328 24.5,-328 24.5,-322 30.5,-316 36.5,-316 36.5,-316 249.5,-316 249.5,-316 255.5,-316 261.5,-322 261.5,-328 261.5,-328 261.5,-340 261.5,-340 261.5,-346 255.5,-352 249.5,-352"/>
<text text-anchor="middle" x="143" y="-337" font-family="Arial" font-size="10.00">MetalLB: 198.51.100.20&#45;198.51.100.29</text>
<text text-anchor="middle" x="143" y="-326" font-family="Arial" font-size="10.00">Restricted Ingress: 198.51.100.120&#45;198.51.100.129</text>
</g>
<!-- Site_BD_GW&#45;&gt;Site_CD_GW -->
<g id="edge6" class="edge">
<title>Site_BD_GW&#45;&gt;Site_CD_GW</title>
<path fill="none" stroke="#475569" stroke-dasharray="5,2" d="M559,-161.84C559,-135.6 559,-94.71 559,-68.39"/>
<polygon fill="#475569" stroke="#475569" points="556.2,-161.92 559,-169.92 561.8,-161.92 556.2,-161.92"/>
<polygon fill="#475569" stroke="#475569" points="561.8,-68.06 559,-60.06 556.2,-68.06 561.8,-68.06"/>
<text text-anchor="middle" x="584" y="-138.8" font-family="Arial" font-size="9.00">Mesh Traffic</text>
</g>
<!-- Site_BD_LB -->
<g id="node8" class="node">
<title>Site_BD_LB</title>
<path fill="#f8fafc" stroke="#334155" d="M464,-206C464,-206 412,-206 412,-206 406,-206 400,-200 400,-194 400,-194 400,-182 400,-182 400,-176 406,-170 412,-170 412,-170 464,-170 464,-170 470,-170 476,-176 476,-182 476,-182 476,-194 476,-194 476,-200 470,-206 464,-206"/>
<text text-anchor="middle" x="438" y="-191" font-family="Arial" font-size="10.00">Contour LB</text>
<text text-anchor="middle" x="438" y="-180" font-family="Arial" font-size="10.00">198.51.100.35</text>
</g>
<!-- Site_BD_MetalLB -->
<g id="node9" class="node">
<title>Site_BD_MetalLB</title>
<path fill="#f8fafc" stroke="#334155" d="M355.5,-206C355.5,-206 142.5,-206 142.5,-206 136.5,-206 130.5,-200 130.5,-194 130.5,-194 130.5,-182 130.5,-182 130.5,-176 136.5,-170 142.5,-170 142.5,-170 355.5,-170 355.5,-170 361.5,-170 367.5,-176 367.5,-182 367.5,-182 367.5,-194 367.5,-194 367.5,-200 361.5,-206 355.5,-206"/>
<text text-anchor="middle" x="249" y="-191" font-family="Arial" font-size="10.00">MetalLB: 198.51.100.30&#45;198.51.100.39</text>
<text text-anchor="middle" x="249" y="-180" font-family="Arial" font-size="10.00">Restricted Ingress: 198.51.100.130&#45;198.51.100.139</text>
</g>
<!-- Site_CD_LB -->
<g id="node11" class="node">
<title>Site_CD_LB</title>
<path fill="#f8fafc" stroke="#334155" d="M464,-60C464,-60 412,-60 412,-60 406,-60 400,-54 400,-48 400,-48 400,-36 400,-36 400,-30 406,-24 412,-24 412,-24 464,-24 464,-24 470,-24 476,-30 476,-36 476,-36 476,-48 476,-48 476,-54 470,-60 464,-60"/>
<text text-anchor="middle" x="438" y="-45" font-family="Arial" font-size="10.00">Contour LB</text>
<text text-anchor="middle" x="438" y="-34" font-family="Arial" font-size="10.00">198.51.100.45</text>
</g>
<!-- Site_CD_MetalLB -->
<g id="node12" class="node">
<title>Site_CD_MetalLB</title>
<path fill="#f8fafc" stroke="#334155" d="M355.5,-60C355.5,-60 142.5,-60 142.5,-60 136.5,-60 130.5,-54 130.5,-48 130.5,-48 130.5,-36 130.5,-36 130.5,-30 136.5,-24 142.5,-24 142.5,-24 355.5,-24 355.5,-24 361.5,-24 367.5,-30 367.5,-36 367.5,-36 367.5,-48 367.5,-48 367.5,-54 361.5,-60 355.5,-60"/>
<text text-anchor="middle" x="249" y="-45" font-family="Arial" font-size="10.00">MetalLB: 198.51.100.40&#45;198.51.100.49</text>
<text text-anchor="middle" x="249" y="-34" font-family="Arial" font-size="10.00">Restricted Ingress: 198.51.100.140&#45;198.51.100.149</text>
</g>
</g>
</svg>
