<?xml version="1.0" encoding="UTF-8" standalone="no"?>
<!DOCTYPE svg PUBLIC "-//W3C//DTD SVG 1.1//EN"
 "http://www.w3.org/Graphics/SVG/1.1/DTD/svg11.dtd">
<!-- Generated by graphviz version 2.42.4 (0)
 -->
<!-- Title: system&#45;design&#45;document&#45;diagram&#45;02 Pages: 1 -->
<svg width="2176pt" height="354pt"
 viewBox="0.00 0.00 2175.50 354.00" xmlns="http://www.w3.org/2000/svg" xmlns:xlink="http://www.w3.org/1999/xlink">
<g id="graph0" class="graph" transform="scale(1 1) rotate(0) translate(4 350)">
<title>system&#45;design&#45;document&#45;diagram&#45;02</title>
<polygon fill="white" stroke="transparent" points="-4,4 -4,-350 2171.5,-350 2171.5,4 -4,4"/>
<g id="clust1" class="cluster">
<title>cluster_1_CoreInfra</title>
<path fill="white" stroke="#cbd5e1" d="M185.5,-265C185.5,-265 780.5,-265 780.5,-265 786.5,-265 792.5,-271 792.5,-277 792.5,-277 792.5,-326 792.5,-326 792.5,-332 786.5,-338 780.5,-338 780.5,-338 185.5,-338 185.5,-338 179.5,-338 173.5,-332 173.5,-326 173.5,-326 173.5,-277 173.5,-277 173.5,-271 179.5,-265 185.5,-265"/>
<text text-anchor="middle" x="483" y="-324.4" font-family="Arial" font-size="12.00">Core Infrastructure &#45; All Clusters</text>
</g>
<g id="clust2" class="cluster">
<title>cluster_2_ServiceMesh</title>
<path fill="white" stroke="#cbd5e1" d="M820.5,-265C820.5,-265 1278.5,-265 1278.5,-265 1284.5,-265 1290.5,-271 1290.5,-277 1290.5,-277 1290.5,-326 1290.5,-326 1290.5,-332 1284.5,-338 1278.5,-338 1278.5,-338 820.5,-338 820.5,-338 814.5,-338 808.5,-332 808.5,-326 808.5,-326 808.5,-277 808.5,-277 808.5,-271 814.5,-265 820.5,-265"/>
<text text-anchor="middle" x="1049.5" y="-324.4" font-family="Arial" font-size="12.00">Service Mesh &#45; All Clusters</text>
</g>
<g id="clust3" class="cluster">
<title>cluster_3_Monitoring</title>
<path fill="white" stroke="#cbd5e1" d="M1318.5,-265C1318.5,-265 1802.5,-265 1802.5,-265 1808.5,-265 1814.5,-271 1814.5,-277 1814.5,-277 1814.5,-326 1814.5,-326 1814.5,-332 1808.5,-338 1802.5,-338 1802.5,-338 1318.5,-338 1318.5,-338 1312.5,-338 1306.5,-332 1306.5,-326 1306.5,-326 1306.5,-277 1306.5,-277 1306.5,-271 1312.5,-265 1318.5,-265"/>
<text text-anchor="middle" x="1560.5" y="-324.4" font-family="Arial" font-size="12.00">Monitoring Stack &#45; mgmt&#45;cluster</text>
</g>
<g id="clust4" class="cluster">
<title>cluster_4_AppPlatform</title>
<path fill="white" stroke="#cbd5e1" d="M1842.5,-265C1842.5,-265 2147.5,-265 2147.5,-265 2153.5,-265 2159.5,-271 2159.5,-277 2159.5,-277 2159.5,-326 2159.5,-326 2159.5,-332 2153.5,-338 2147.5,-338 2147.5,-338 1842.5,-338 1842.5,-338 1836.5,-338 1830.5,-332 1830.5,-326 1830.5,-326 1830.5,-277 1830.5,-277 1830.5,-271 1836.5,-265 1842.5,-265"/>
<text text-anchor="middle" x="1995" y="-324.4" font-family="Arial" font-size="12.00">Application Platform</text>
</g>
<!-- CoreInfra -->
<g id="node1" class="node">
<title>CoreInfra</title>
<path fill="#f8fafc" stroke="#334155" d="M43,-215C43,-215 12,-215 12,-215 6,-215 0,-209 0,-203 0,-203 0,-191 0,-191 0,-185 6,-179 12,-179 12,-179 43,-179 43,-179 49,-179 55,-185 55,-191 55,-191 55,-203 55,-203 55,-209 49,-215 43,-215"/>
<text text-anchor="middle" x="27.5" y="-194.5" font-family="Arial" font-size="10.00">CoreInfra</text>
</g>
<!-- ServiceMesh -->
<g id="node2" class="node">
<title>ServiceMesh</title>
<path fill="#f8fafc" stroke="#334155" d="M141.5,-121C141.5,-121 93.5,-121 93.5,-121 87.5,-121 81.5,-115 81.5,-109 81.5,-109 81.5,-97 81.5,-97 81.5,-91 87.5,-85 93.5,-85 93.5,-85 141.5,-85 141.5,-85 147.5,-85 153.5,-91 153.5,-97 153.5,-97 153.5,-109 153.5,-109 153.5,-115 147.5,-121 141.5,-121"/>
<text text-anchor="middle" x="117.5" y="-100.5" font-family="Arial" font-size="10.00">ServiceMesh</text>
</g>
<!-- CoreInfra&#45;&gt;ServiceMesh -->
<g id="edge1" class="edge">
<title>CoreInfra&#45;&gt;ServiceMesh</title>
<path fill="none" stroke="#475569" d="M44.43,-178.7C58.63,-164.17 79.05,-143.3 94.7,-127.31"/>
<polygon fill="#475569" stroke="#475569" points="97.05,-128.9 100.65,-121.23 93.05,-124.99 97.05,-128.9"/>
</g>
<!-- AppPlatform -->
<g id="node3" class="node">
<title>AppPlatform</title>
<path fill="#f8fafc" stroke="#334155" d="M182,-36C182,-36 137,-36 137,-36 131,-36 125,-30 125,-24 125,-24 125,-12 125,-12 125,-6 131,0 137,0 137,0 182,0 182,0 188,0 194,-6 194,-12 194,-12 194,-24 194,-24 194,-30 188,-36 182,-36"/>
<text text-anchor="middle" x="159.5" y="-15.5" font-family="Arial" font-size="10.00">AppPlatform</text>
</g>
<!-- ServiceMesh&#45;&gt;AppPlatform -->
<g id="edge2" class="edge">
<title>ServiceMesh&#45;&gt;AppPlatform</title>
<path fill="none" stroke="#475569" d="M126.2,-84.8C132.23,-72.89 140.34,-56.87 147.05,-43.61"/>
<polygon fill="#475569" stroke="#475569" points="149.69,-44.58 150.81,-36.18 144.7,-42.05 149.69,-44.58"/>
</g>
<!-- Monitoring -->
<g id="node4" class="node">
<title>Monitoring</title>
<path fill="#f8fafc" stroke="#334155" d="M137.5,-309C137.5,-309 101.5,-309 101.5,-309 95.5,-309 89.5,-303 89.5,-297 89.5,-297 89.5,-285 89.5,-285 89.5,-279 95.5,-273 101.5,-273 101.5,-273 137.5,-273 137.5,-273 143.5,-273 149.5,-279 149.5,-285 149.5,-285 149.5,-297 149.5,-297 149.5,-303 143.5,-309 137.5,-309"/>
<text text-anchor="middle" x="119.5" y="-288.5" font-family="Arial" font-size="10.00">Monitoring</text>
</g>
<!-- Monitoring&#45;&gt;CoreInfra -->
<g id="edge3" class="edge">
<title>Monitoring&#45;&gt;CoreInfra</title>
<path fill="none" stroke="#475569" stroke-dasharray="5,2" d="M90.14,-272.87C80.07,-266.18 69.17,-257.96 60.5,-249 52.86,-241.11 45.98,-231.19 40.5,-222.21"/>
<polygon fill="#475569" stroke="#475569" points="42.88,-220.74 36.41,-215.26 38.05,-223.58 42.88,-220.74"/>
<text text-anchor="middle" x="77.5" y="-241.8" font-family="Arial" font-size="9.00">Scrapes</text>
</g>
<!-- Monitoring&#45;&gt;ServiceMesh -->
<g id="edge4" class="edge">
<title>Monitoring&#45;&gt;ServiceMesh</title>
<path fill="none" stroke="#475569" stroke-dasharray="5,2" d="M119.32,-272.83C118.96,-239.89 118.18,-167.67 117.77,-129.23"/>
<polygon fill="#475569" stroke="#475569" points="120.57,-129.09 117.68,-121.12 114.97,-129.15 120.57,-129.09"/>
<text text-anchor="middle" x="136.5" y="-194.8" font-family="Arial" font-size="9.00">Scrapes</text>
</g>
<!-- Monitoring&#45;&gt;AppPlatform -->
<g id="edge5" class="edge">
<title>Monitoring&#45;&gt;AppPlatform</title>
<path fill="none" stroke="#475569" stroke-dasharray="5,2" d="M132.22,-272.86C142.24,-258.3 155.48,-236.4 161.5,-215 177.18,-159.28 173.85,-142.72 169.5,-85 168.47,-71.39 166.27,-56.32 164.2,-44.03"/>
<polygon fill="#475569" stroke="#475569" points="166.93,-43.41 162.8,-36.01 161.42,-44.38 166.93,-43.41"/>
<text text-anchor="middle" x="189.5" y="-147.8" font-family="Arial" font-size="9.00">Scrapes</text>
</g>
<!-- CoreDNS -->
<g id="node5" class="node">
<title>CoreDNS</title>
<path fill="#f8fafc" stroke="#334155" d="M772.5,-309C772.5,-309 710.5,-309 710.5,-309 704.5,-309 698.5,-303 698.5,-297 698.5,-297 698.5,-285 698.5,-285 698.5,-279 704.5,-273 710.5,-273 710.5,-273 772.5,-273 772.5,-273 778.5,-273 784.5,-279 784.5,-285 784.5,-285 784.5,-297 784.5,-297 784.5,-303 778.5,-309 772.5,-309"/>
<text text-anchor="middle" x="741.5" y="-294" font-family="Arial" font-size="10.00">CoreDNS</text>
<text text-anchor="middle" x="741.5" y="-283" font-family="Arial" font-size="10.00">DNS Resolution</text>
</g>
<!-- CertMgr -->
<g id="node6" class="node">
<title>CertMgr</title>
<path fill="#f8fafc" stroke="#334155" d="M654,-309C654,-309 559,-309 559,-309 553,-309 547,-303 547,-297 547,-297 547,-285 547,-285 547,-279 553,-273 559,-273 559,-273 654,-273 654,-273 660,-273 666,-279 666,-285 666,-285 666,-297 666,-297 666,-303 660,-309 654,-309"/>
<text text-anchor="middle" x="606.5" y="-294" font-family="Arial" font-size="10.00">cert&#45;manager</text>
<text text-anchor="middle" x="606.5" y="-283" font-family="Arial" font-size="10.00">Certificate Management</text>
</g>
<!-- MetalLB -->
<g id="node7" class="node">
<title>MetalLB</title>
<path fill="#f8fafc" stroke="#334155" d="M503,-309C503,-309 450,-309 450,-309 444,-309 438,-303 438,-297 438,-297 438,-285 438,-285 438,-279 444,-273 450,-273 450,-273 503,-273 503,-273 509,-273 515,-279 515,-285 515,-285 515,-297 515,-297 515,-303 509,-309 503,-309"/>
<text text-anchor="middle" x="476.5" y="-294" font-family="Arial" font-size="10.00">MetalLB</text>
<text text-anchor="middle" x="476.5" y="-283" font-family="Arial" font-size="10.00">Load Balancer</text>
</g>
<!-- Contour -->
<g id="node8" class="node">
<title>Contour</title>
<path fill="#f8fafc" stroke="#334155" d="M393.5,-309C393.5,-309 325.5,-309 325.5,-309 319.5,-309 313.5,-303 313.5,-297 313.5,-297 313.5,-285 313.5,-285 313.5,-279 319.5,-273 325.5,-273 325.5,-273 393.5,-273 393.5,-273 399.5,-273 405.5,-279 405.5,-285 405.5,-285 405.5,-297 405.5,-297 405.5,-303 399.5,-309 393.5,-309"/>
<text text-anchor="middle" x="359.5" y="-294" font-family="Arial" font-size="10.00">Contour</text>
<text text-anchor="middle" x="359.5" y="-283" font-family="Arial" font-size="10.00">Ingress Controller</text>
</g>
<!-- Trident -->
<g id="node9" class="node">
<title>Trident</title>
<path fill="#f8fafc" stroke="#334155" d="M269.5,-309C269.5,-309 193.5,-309 193.5,-309 187.5,-309 181.5,-303 181.5,-297 181.5,-297 181.5,-285 181.5,-285 181.5,-279 187.5,-273 193.5,-273 193.5,-273 269.5,-273 269.5,-273 275.5,-273 281.5,-279 281.5,-285 281.5,-285 281.5,-297 281.5,-297 281.5,-303 275.5,-309 269.5,-309"/>
<text text-anchor="middle" x="231.5" y="-294" font-family="Arial" font-size="10.00">NetApp Trident</text>
<text text-anchor="middle" x="231.5" y="-283" font-family="Arial" font-size="10.00">Storage Provisioner</text>
</g>
<!-- IstioBase -->
<g id="node10" class="node">
<title>IstioBase</title>
<path fill="#f8fafc" stroke="#334155" d="M1270,-309C1270,-309 1235,-309 1235,-309 1229,-309 1223,-303 1223,-297 1223,-297 1223,-285 1223,-285 1223,-279 1229,-273 1235,-273 1235,-273 1270,-273 1270,-273 1276,-273 1282,-279 1282,-285 1282,-285 1282,-297 1282,-297 1282,-303 1276,-309 1270,-309"/>
<text text-anchor="middle" x="1252.5" y="-288.5" font-family="Arial" font-size="10.00">Istio Base</text>
</g>
<!-- Istiod -->
<g id="node11" class="node">
<title>Istiod</title>
<path fill="#f8fafc" stroke="#334155" d="M1178.5,-309C1178.5,-309 1128.5,-309 1128.5,-309 1122.5,-309 1116.5,-303 1116.5,-297 1116.5,-297 1116.5,-285 1116.5,-285 1116.5,-279 1122.5,-273 1128.5,-273 1128.5,-273 1178.5,-273 1178.5,-273 1184.5,-273 1190.5,-279 1190.5,-285 1190.5,-285 1190.5,-297 1190.5,-297 1190.5,-303 1184.5,-309 1178.5,-309"/>
<text text-anchor="middle" x="1153.5" y="-294" font-family="Arial" font-size="10.00">Istiod</text>
<text text-anchor="middle" x="1153.5" y="-283" font-family="Arial" font-size="10.00">Control Plane</text>
</g>
<!-- Gateway -->
<g id="node12" class="node">
<title>Gateway</title>
<path fill="#f8fafc" stroke="#334155" d="M1072.5,-309C1072.5,-309 994.5,-309 994.5,-309 988.5,-309 982.5,-303 982.5,-297 982.5,-297 982.5,-285 982.5,-285 982.5,-279 988.5,-273 994.5,-273 994.5,-273 1072.5,-273 1072.5,-273 1078.5,-273 1084.5,-279 1084.5,-285 1084.5,-285 1084.5,-297 1084.5,-297 1084.5,-303 1078.5,-309 1072.5,-309"/>
<text text-anchor="middle" x="1033.5" y="-294" font-family="Arial" font-size="10.00">East&#45;West Gateway</text>
<text text-anchor="middle" x="1033.5" y="-283" font-family="Arial" font-size="10.00">Multi&#45;cluster Traffic</text>
</g>
<!-- Kiali -->
<g id="node13" class="node">
<title>Kiali</title>
<path fill="#f8fafc" stroke="#334155" d="M938,-309C938,-309 829,-309 829,-309 823,-309 817,-303 817,-297 817,-297 817,-285 817,-285 817,-279 823,-273 829,-273 829,-273 938,-273 938,-273 944,-273 950,-279 950,-285 950,-285 950,-297 950,-297 950,-303 944,-309 938,-309"/>
<text text-anchor="middle" x="883.5" y="-294" font-family="Arial" font-size="10.00">Kiali</text>
<text text-anchor="middle" x="883.5" y="-283" font-family="Arial" font-size="10.00">Service Mesh Visualization</text>
</g>
<!-- Prometheus -->
<g id="node14" class="node">
<title>Prometheus</title>
<path fill="#f8fafc" stroke="#334155" d="M1794,-309C1794,-309 1751,-309 1751,-309 1745,-309 1739,-303 1739,-297 1739,-297 1739,-285 1739,-285 1739,-279 1745,-273 1751,-273 1751,-273 1794,-273 1794,-273 1800,-273 1806,-279 1806,-285 1806,-285 1806,-297 1806,-297 1806,-303 1800,-309 1794,-309"/>
<text text-anchor="middle" x="1772.5" y="-288.5" font-family="Arial" font-size="10.00">Prometheus</text>
</g>
<!-- Grafana -->
<g id="node15" class="node">
<title>Grafana</title>
<path fill="#f8fafc" stroke="#334155" d="M1694.5,-309C1694.5,-309 1664.5,-309 1664.5,-309 1658.5,-309 1652.5,-303 1652.5,-297 1652.5,-297 1652.5,-285 1652.5,-285 1652.5,-279 1658.5,-273 1664.5,-273 1664.5,-273 1694.5,-273 1694.5,-273 1700.5,-273 1706.5,-279 1706.5,-285 1706.5,-285 1706.5,-297 1706.5,-297 1706.5,-303 1700.5,-309 1694.5,-309"/>
<text text-anchor="middle" x="1679.5" y="-288.5" font-family="Arial" font-size="10.00">Grafana</text>
</g>
<!-- Alertmanager -->
<g id="node16" class="node">
<title>Alertmanager</title>
<path fill="#f8fafc" stroke="#334155" d="M1608.5,-309C1608.5,-309 1560.5,-309 1560.5,-309 1554.5,-309 1548.5,-303 1548.5,-297 1548.5,-297 1548.5,-285 1548.5,-285 1548.5,-279 1554.5,-273 1560.5,-273 1560.5,-273 1608.5,-273 1608.5,-273 1614.5,-273 1620.5,-279 1620.5,-285 1620.5,-285 1620.5,-297 1620.5,-297 1620.5,-303 1614.5,-309 1608.5,-309"/>
<text text-anchor="middle" x="1584.5" y="-288.5" font-family="Arial" font-size="10.00">Alertmanager</text>
</g>
<!-- KubeSM -->
<g id="node17" class="node">
<title>KubeSM</title>
<path fill="#f8fafc" stroke="#334155" d="M1504.5,-309C1504.5,-309 1432.5,-309 1432.5,-309 1426.5,-309 1420.5,-303 1420.5,-297 1420.5,-297 1420.5,-285 1420.5,-285 1420.5,-279 1426.5,-273 1432.5,-273 1432.5,-273 1504.5,-273 1504.5,-273 1510.5,-273 1516.5,-279 1516.5,-285 1516.5,-285 1516.5,-297 1516.5,-297 1516.5,-303 1510.5,-309 1504.5,-309"/>
<text text-anchor="middle" x="1468.5" y="-288.5" font-family="Arial" font-size="10.00">kube&#45;state&#45;metrics</text>
</g>
<!-- NodeExp -->
<g id="node18" class="node">
<title>NodeExp</title>
<path fill="#f8fafc" stroke="#334155" d="M1376.5,-309C1376.5,-309 1326.5,-309 1326.5,-309 1320.5,-309 1314.5,-303 1314.5,-297 1314.5,-297 1314.5,-285 1314.5,-285 1314.5,-279 1320.5,-273 1326.5,-273 1326.5,-273 1376.5,-273 1376.5,-273 1382.5,-273 1388.5,-279 1388.5,-285 1388.5,-285 1388.5,-297 1388.5,-297 1388.5,-303 1382.5,-309 1376.5,-309"/>
<text text-anchor="middle" x="1351.5" y="-288.5" font-family="Arial" font-size="10.00">node&#45;exporter</text>
</g>
<!-- MongoDB -->
<g id="node19" class="node">
<title>MongoDB</title>
<path fill="#f8fafc" stroke="#334155" d="M2139,-309C2139,-309 2064,-309 2064,-309 2058,-309 2052,-303 2052,-297 2052,-297 2052,-285 2052,-285 2052,-279 2058,-273 2064,-273 2064,-273 2139,-273 2139,-273 2145,-273 2151,-279 2151,-285 2151,-285 2151,-297 2151,-297 2151,-303 2145,-309 2139,-309"/>
<text text-anchor="middle" x="2101.5" y="-294" font-family="Arial" font-size="10.00">MongoDB Operator</text>
<text text-anchor="middle" x="2101.5" y="-283" font-family="Arial" font-size="10.00">Multi&#45;cluster</text>
</g>
<!-- NATS -->
<g id="node20" class="node">
<title>NATS</title>
<path fill="#f8fafc" stroke="#334155" d="M2008,-309C2008,-309 1957,-309 1957,-309 1951,-309 1945,-303 1945,-297 1945,-297 1945,-285 1945,-285 1945,-279 1951,-273 1957,-273 1957,-273 2008,-273 2008,-273 2014,-273 2020,-279 2020,-285 2020,-285 2020,-297 2020,-297 2020,-303 2014,-309 2008,-309"/>
<text text-anchor="middle" x="1982.5" y="-294" font-family="Arial" font-size="10.00">NATS Cluster</text>
<text text-anchor="middle" x="1982.5" y="-283" font-family="Arial" font-size="10.00">Messaging</text>
</g>
<!-- RocketChat -->
<g id="node21" class="node">
<title>RocketChat</title>
<path fill="#f8fafc" stroke="#334155" d="M1901,-309C1901,-309 1850,-309 1850,-309 1844,-309 1838,-303 1838,-297 1838,-297 1838,-285 1838,-285 1838,-279 1844,-273 1850,-273 1850,-273 1901,-273 1901,-273 1907,-273 1913,-279 1913,-285 1913,-285 1913,-297 1913,-297 1913,-303 1907,-309 1901,-309"/>
<text text-anchor="middle" x="1875.5" y="-294" font-family="Arial" font-size="10.00">Rocket.Chat</text>
<text text-anchor="middle" x="1875.5" y="-283" font-family="Arial" font-size="10.00">Microservices</text>
</g>
</g>
</svg>
