<?xml version="1.0" encoding="UTF-8" standalone="no"?>
<!DOCTYPE svg PUBLIC "-//W3C//DTD SVG 1.1//EN"
 "http://www.w3.org/Graphics/SVG/1.1/DTD/svg11.dtd">
<!-- Generated by graphviz version 2.42.4 (0)
 -->
<!-- Title: system&#45;design&#45;document&#45;diagram&#45;06 Pages: 1 -->
<svg width="416pt" height="429pt"
 viewBox="0.00 0.00 416.00 429.00" xmlns="http://www.w3.org/2000/svg" xmlns:xlink="http://www.w3.org/1999/xlink">
<g id="graph0" class="graph" transform="scale(1 1) rotate(0) translate(4 425)">
<title>system&#45;design&#45;document&#45;diagram&#45;06</title>
<polygon fill="white" stroke="transparent" points="-4,4 -4,-425 412,-425 412,4 -4,4"/>
<g id="clust1" class="cluster">
<title>cluster_1_Storage</title>
<path fill="white" stroke="#cbd5e1" d="M24,-257C24,-257 250,-257 250,-257 256,-257 262,-263 262,-269 262,-269 262,-401 262,-401 262,-407 256,-413 250,-413 250,-413 24,-413 24,-413 18,-413 12,-407 12,-401 12,-401 12,-269 12,-269 12,-263 18,-257 24,-257"/>
<text text-anchor="middle" x="137" y="-399.4" font-family="Arial" font-size="12.00">NetApp Storage System</text>
</g>
<g id="clust2" class="cluster">
<title>cluster_2_Trident</title>
<path fill="white" stroke="#cbd5e1" d="M69,-174C69,-174 369,-174 369,-174 375,-174 381,-180 381,-186 381,-186 381,-235 381,-235 381,-241 375,-247 369,-247 369,-247 69,-247 69,-247 63,-247 57,-241 57,-235 57,-235 57,-186 57,-186 57,-180 63,-174 69,-174"/>
<text text-anchor="middle" x="219" y="-233.4" font-family="Arial" font-size="12.00">Trident Operator</text>
</g>
<g id="clust3" class="cluster">
<title>cluster_3_StorageClasses</title>
<path fill="white" stroke="#cbd5e1" d="M20,-91C20,-91 330,-91 330,-91 336,-91 342,-97 342,-103 342,-103 342,-152 342,-152 342,-158 336,-164 330,-164 330,-164 20,-164 20,-164 14,-164 8,-158 8,-152 8,-152 8,-103 8,-103 8,-97 14,-91 20,-91"/>
<text text-anchor="middle" x="175" y="-150.4" font-family="Arial" font-size="12.00">Storage Classes</text>
</g>
<g id="clust4" class="cluster">
<title>cluster_4_Workloads</title>
<path fill="white" stroke="#cbd5e1" d="M40,-8C40,-8 388,-8 388,-8 394,-8 400,-14 400,-20 400,-20 400,-69 400,-69 400,-75 394,-81 388,-81 388,-81 40,-81 40,-81 34,-81 28,-75 28,-69 28,-69 28,-20 28,-20 28,-14 34,-8 40,-8"/>
<text text-anchor="middle" x="214" y="-67.4" font-family="Arial" font-size="12.00">Persistent Workloads</text>
</g>
<!-- SVM -->
<g id="node1" class="node">
<title>SVM</title>
<path fill="#f8fafc" stroke="#334155" d="M190.5,-384C190.5,-384 95.5,-384 95.5,-384 89.5,-384 83.5,-378 83.5,-372 83.5,-372 83.5,-360 83.5,-360 83.5,-354 89.5,-348 95.5,-348 95.5,-348 190.5,-348 190.5,-348 196.5,-348 202.5,-354 202.5,-360 202.5,-360 202.5,-372 202.5,-372 202.5,-378 196.5,-384 190.5,-384"/>
<text text-anchor="middle" x="143" y="-369" font-family="Arial" font-size="10.00">Storage Virtual Machine</text>
<text text-anchor="middle" x="143" y="-358" font-family="Arial" font-size="10.00">tridentSVM</text>
</g>
<!-- NFS_LIF -->
<g id="node2" class="node">
<title>NFS_LIF</title>
<path fill="#f8fafc" stroke="#334155" d="M151.5,-301C151.5,-301 32.5,-301 32.5,-301 26.5,-301 20.5,-295 20.5,-289 20.5,-289 20.5,-277 20.5,-277 20.5,-271 26.5,-265 32.5,-265 32.5,-265 151.5,-265 151.5,-265 157.5,-265 163.5,-271 163.5,-277 163.5,-277 163.5,-289 163.5,-289 163.5,-295 157.5,-301 151.5,-301"/>
<text text-anchor="middle" x="92" y="-286" font-family="Arial" font-size="10.00">NFS Data LIF</text>
<text text-anchor="middle" x="92" y="-275" font-family="Arial" font-size="10.00">storage&#45;data.example.internal</text>
</g>
<!-- SVM&#45;&gt;NFS_LIF -->
<g id="edge1" class="edge">
<title>SVM&#45;&gt;NFS_LIF</title>
<path fill="none" stroke="#475569" d="M132.18,-347.82C124.88,-336.22 115.14,-320.75 107.08,-307.95"/>
<polygon fill="#475569" stroke="#475569" points="109.43,-306.43 102.8,-301.15 104.69,-309.42 109.43,-306.43"/>
</g>
<!-- ISCSI_LIF -->
<g id="node3" class="node">
<title>ISCSI_LIF</title>
<path fill="#f8fafc" stroke="#334155" d="M242,-301C242,-301 208,-301 208,-301 202,-301 196,-295 196,-289 196,-289 196,-277 196,-277 196,-271 202,-265 208,-265 208,-265 242,-265 242,-265 248,-265 254,-271 254,-277 254,-277 254,-289 254,-289 254,-295 248,-301 242,-301"/>
<text text-anchor="middle" x="225" y="-280.5" font-family="Arial" font-size="10.00">iSCSI LIF</text>
</g>
<!-- SVM&#45;&gt;ISCSI_LIF -->
<g id="edge2" class="edge">
<title>SVM&#45;&gt;ISCSI_LIF</title>
<path fill="none" stroke="#475569" d="M160.39,-347.82C172.46,-335.9 188.66,-319.89 201.83,-306.89"/>
<polygon fill="#475569" stroke="#475569" points="203.91,-308.77 207.63,-301.15 199.98,-304.78 203.91,-308.77"/>
</g>
<!-- NFSBackend -->
<g id="node5" class="node">
<title>NFSBackend</title>
<path fill="#f8fafc" stroke="#334155" d="M129,-218C129,-218 77,-218 77,-218 71,-218 65,-212 65,-206 65,-206 65,-194 65,-194 65,-188 71,-182 77,-182 77,-182 129,-182 129,-182 135,-182 141,-188 141,-194 141,-194 141,-206 141,-206 141,-212 135,-218 129,-218"/>
<text text-anchor="middle" x="103" y="-203" font-family="Arial" font-size="10.00">NFS Backend</text>
<text text-anchor="middle" x="103" y="-192" font-family="Arial" font-size="10.00">ontap&#45;nas</text>
</g>
<!-- NFS_LIF&#45;&gt;NFSBackend -->
<g id="edge3" class="edge">
<title>NFS_LIF&#45;&gt;NFSBackend</title>
<path fill="none" stroke="#475569" d="M94.33,-264.82C95.85,-253.65 97.85,-238.9 99.55,-226.38"/>
<polygon fill="#475569" stroke="#475569" points="102.37,-226.46 100.67,-218.15 96.82,-225.7 102.37,-226.46"/>
</g>
<!-- iSCSIBackend -->
<g id="node6" class="node">
<title>iSCSIBackend</title>
<path fill="#f8fafc" stroke="#334155" d="M243,-218C243,-218 185,-218 185,-218 179,-218 173,-212 173,-206 173,-206 173,-194 173,-194 173,-188 179,-182 185,-182 185,-182 243,-182 243,-182 249,-182 255,-188 255,-194 255,-194 255,-206 255,-206 255,-212 249,-218 243,-218"/>
<text text-anchor="middle" x="214" y="-203" font-family="Arial" font-size="10.00">iSCSI Backend</text>
<text text-anchor="middle" x="214" y="-192" font-family="Arial" font-size="10.00">ontap&#45;san</text>
</g>
<!-- ISCSI_LIF&#45;&gt;iSCSIBackend -->
<g id="edge4" class="edge">
<title>ISCSI_LIF&#45;&gt;iSCSIBackend</title>
<path fill="none" stroke="#475569" d="M222.67,-264.82C221.15,-253.65 219.15,-238.9 217.45,-226.38"/>
<polygon fill="#475569" stroke="#475569" points="220.18,-225.7 216.33,-218.15 214.63,-226.46 220.18,-225.7"/>
</g>
<!-- TridentOp -->
<g id="node4" class="node">
<title>TridentOp</title>
<path fill="#f8fafc" stroke="#334155" d="M360.5,-218C360.5,-218 299.5,-218 299.5,-218 293.5,-218 287.5,-212 287.5,-206 287.5,-206 287.5,-194 287.5,-194 287.5,-188 293.5,-182 299.5,-182 299.5,-182 360.5,-182 360.5,-182 366.5,-182 372.5,-188 372.5,-194 372.5,-194 372.5,-206 372.5,-206 372.5,-212 366.5,-218 360.5,-218"/>
<text text-anchor="middle" x="330" y="-203" font-family="Arial" font-size="10.00">Trident Operator</text>
<text text-anchor="middle" x="330" y="-192" font-family="Arial" font-size="10.00">v100.2602.0</text>
</g>
<!-- NFSLB -->
<g id="node7" class="node">
<title>NFSLB</title>
<path fill="#f8fafc" stroke="#334155" d="M130,-135C130,-135 28,-135 28,-135 22,-135 16,-129 16,-123 16,-123 16,-111 16,-111 16,-105 22,-99 28,-99 28,-99 130,-99 130,-99 136,-99 142,-105 142,-111 142,-111 142,-123 142,-123 142,-129 136,-135 130,-135"/>
<text text-anchor="middle" x="79" y="-120" font-family="Arial" font-size="10.00">NFS Latebinding</text>
<text text-anchor="middle" x="79" y="-109" font-family="Arial" font-size="10.00">tridentsvm&#45;nfs&#45;latebinding</text>
</g>
<!-- NFSBackend&#45;&gt;NFSLB -->
<g id="edge5" class="edge">
<title>NFSBackend&#45;&gt;NFSLB</title>
<path fill="none" stroke="#475569" d="M97.91,-181.82C94.57,-170.55 90.14,-155.61 86.41,-143.02"/>
<polygon fill="#475569" stroke="#475569" points="89.04,-142.03 84.08,-135.15 83.67,-143.62 89.04,-142.03"/>
</g>
<!-- ISCSILB -->
<g id="node8" class="node">
<title>ISCSILB</title>
<path fill="#f8fafc" stroke="#334155" d="M322,-135C322,-135 186,-135 186,-135 180,-135 174,-129 174,-123 174,-123 174,-111 174,-111 174,-105 180,-99 186,-99 186,-99 322,-99 322,-99 328,-99 334,-105 334,-111 334,-111 334,-123 334,-123 334,-129 328,-135 322,-135"/>
<text text-anchor="middle" x="254" y="-120" font-family="Arial" font-size="10.00">iSCSI Latebinding</text>
<text text-anchor="middle" x="254" y="-109" font-family="Arial" font-size="10.00">tkg&#45;work&#45;storage&#45;iscsi&#45;latebinding</text>
</g>
<!-- iSCSIBackend&#45;&gt;ISCSILB -->
<g id="edge6" class="edge">
<title>iSCSIBackend&#45;&gt;ISCSILB</title>
<path fill="none" stroke="#475569" d="M222.48,-181.82C228.1,-170.44 235.57,-155.33 241.82,-142.66"/>
<polygon fill="#475569" stroke="#475569" points="244.5,-143.57 245.53,-135.15 239.48,-141.09 244.5,-143.57"/>
</g>
<!-- MongoDB -->
<g id="node11" class="node">
<title>MongoDB</title>
<path fill="#f8fafc" stroke="#334155" d="M174,-52C174,-52 134,-52 134,-52 128,-52 122,-46 122,-40 122,-40 122,-28 122,-28 122,-22 128,-16 134,-16 134,-16 174,-16 174,-16 180,-16 186,-22 186,-28 186,-28 186,-40 186,-40 186,-46 180,-52 174,-52"/>
<text text-anchor="middle" x="154" y="-37" font-family="Arial" font-size="10.00">MongoDB</text>
<text text-anchor="middle" x="154" y="-26" font-family="Arial" font-size="10.00">NFS/iSCSI</text>
</g>
<!-- NFSLB&#45;&gt;MongoDB -->
<g id="edge7" class="edge">
<title>NFSLB&#45;&gt;MongoDB</title>
<path fill="none" stroke="#475569" d="M94.91,-98.82C105.84,-87.01 120.5,-71.18 132.48,-58.24"/>
<polygon fill="#475569" stroke="#475569" points="134.74,-59.93 138.12,-52.15 130.63,-56.12 134.74,-59.93"/>
</g>
<!-- NATS -->
<g id="node12" class="node">
<title>NATS</title>
<path fill="#f8fafc" stroke="#334155" d="M78,-52C78,-52 48,-52 48,-52 42,-52 36,-46 36,-40 36,-40 36,-28 36,-28 36,-22 42,-16 48,-16 48,-16 78,-16 78,-16 84,-16 90,-22 90,-28 90,-28 90,-40 90,-40 90,-46 84,-52 78,-52"/>
<text text-anchor="middle" x="63" y="-37" font-family="Arial" font-size="10.00">NATS</text>
<text text-anchor="middle" x="63" y="-26" font-family="Arial" font-size="10.00">1Gi NFS</text>
</g>
<!-- NFSLB&#45;&gt;NATS -->
<g id="edge8" class="edge">
<title>NFSLB&#45;&gt;NATS</title>
<path fill="none" stroke="#475569" d="M75.61,-98.82C73.38,-87.55 70.43,-72.61 67.94,-60.02"/>
<polygon fill="#475569" stroke="#475569" points="70.69,-59.46 66.39,-52.15 65.19,-60.54 70.69,-59.46"/>
</g>
<!-- Prometheus -->
<g id="node9" class="node">
<title>Prometheus</title>
<path fill="#f8fafc" stroke="#334155" d="M379.5,-52C379.5,-52 334.5,-52 334.5,-52 328.5,-52 322.5,-46 322.5,-40 322.5,-40 322.5,-28 322.5,-28 322.5,-22 328.5,-16 334.5,-16 334.5,-16 379.5,-16 379.5,-16 385.5,-16 391.5,-22 391.5,-28 391.5,-28 391.5,-40 391.5,-40 391.5,-46 385.5,-52 379.5,-52"/>
<text text-anchor="middle" x="357" y="-37" font-family="Arial" font-size="10.00">Prometheus</text>
<text text-anchor="middle" x="357" y="-26" font-family="Arial" font-size="10.00">150Gi iSCSI</text>
</g>
<!-- ISCSILB&#45;&gt;Prometheus -->
<g id="edge9" class="edge">
<title>ISCSILB&#45;&gt;Prometheus</title>
<path fill="none" stroke="#475569" d="M280.97,-98.9C289.18,-93.42 298.11,-87.16 306,-81 315.14,-73.86 324.69,-65.51 333.02,-57.9"/>
<polygon fill="#475569" stroke="#475569" points="335.16,-59.74 339.13,-52.26 331.36,-55.63 335.16,-59.74"/>
</g>
<!-- Alertmanager -->
<g id="node10" class="node">
<title>Alertmanager</title>
<path fill="#f8fafc" stroke="#334155" d="M278,-52C278,-52 230,-52 230,-52 224,-52 218,-46 218,-40 218,-40 218,-28 218,-28 218,-22 224,-16 230,-16 230,-16 278,-16 278,-16 284,-16 290,-22 290,-28 290,-28 290,-40 290,-40 290,-46 284,-52 278,-52"/>
<text text-anchor="middle" x="254" y="-37" font-family="Arial" font-size="10.00">Alertmanager</text>
<text text-anchor="middle" x="254" y="-26" font-family="Arial" font-size="10.00">120Gi iSCSI</text>
</g>
<!-- ISCSILB&#45;&gt;Alertmanager -->
<g id="edge10" class="edge">
<title>ISCSILB&#45;&gt;Alertmanager</title>
<path fill="none" stroke="#475569" d="M254,-98.82C254,-87.65 254,-72.9 254,-60.38"/>
<polygon fill="#475569" stroke="#475569" points="256.8,-60.15 254,-52.15 251.2,-60.15 256.8,-60.15"/>
</g>
<!-- ISCSILB&#45;&gt;MongoDB -->
<g id="edge11" class="edge">
<title>ISCSILB&#45;&gt;MongoDB</title>
<path fill="none" stroke="#475569" d="M226.65,-98.87C218.51,-93.43 209.71,-87.21 202,-81 193.26,-73.96 184.24,-65.63 176.41,-58.01"/>
<polygon fill="#475569" stroke="#475569" points="178.33,-55.98 170.67,-52.35 174.4,-59.97 178.33,-55.98"/>
</g>
</g>
</svg>
