<?xml version="1.0" encoding="UTF-8" standalone="no"?>
<!DOCTYPE svg PUBLIC "-//W3C//DTD SVG 1.1//EN"
 "http://www.w3.org/Graphics/SVG/1.1/DTD/svg11.dtd">
<!-- Generated by graphviz version 2.42.4 (0)
 -->
<!-- Title: system&#45;design&#45;document&#45;diagram&#45;07 Pages: 1 -->
<svg width="551pt" height="485pt"
 viewBox="0.00 0.00 551.00 485.00" xmlns="http://www.w3.org/2000/svg" xmlns:xlink="http://www.w3.org/1999/xlink">
<g id="graph0" class="graph" transform="scale(1 1) rotate(0) translate(4 481)">
<title>system&#45;design&#45;document&#45;diagram&#45;07</title>
<polygon fill="white" stroke="transparent" points="-4,4 -4,-481 547,-481 547,4 -4,4"/>
<g id="clust1" class="cluster">
<title>cluster_1_MeshConfig</title>
<path fill="white" stroke="#cbd5e1" d="M20,-8C20,-8 504,-8 504,-8 510,-8 516,-14 516,-20 516,-20 516,-457 516,-457 516,-463 510,-469 504,-469 504,-469 20,-469 20,-469 14,-469 8,-463 8,-457 8,-457 8,-20 8,-20 8,-14 14,-8 20,-8"/>
<text text-anchor="middle" x="262" y="-455.4" font-family="Arial" font-size="12.00">Istio Multi&#45;cluster Mesh</text>
</g>
<g id="clust2" class="cluster">
<title>cluster_2_Primary</title>
<path fill="white" stroke="#cbd5e1" d="M138,-367C138,-367 436,-367 436,-367 442,-367 448,-373 448,-379 448,-379 448,-428 448,-428 448,-434 442,-440 436,-440 436,-440 138,-440 138,-440 132,-440 126,-434 126,-428 126,-428 126,-379 126,-379 126,-373 132,-367 138,-367"/>
<text text-anchor="middle" x="287" y="-426.4" font-family="Arial" font-size="12.00">Primary Cluster &#45; mgmt&#45;cluster</text>
</g>
<g id="clust3" class="cluster">
<title>cluster_3_Remote1</title>
<path fill="white" stroke="#cbd5e1" d="M236,-250C236,-250 436,-250 436,-250 442,-250 448,-256 448,-262 448,-262 448,-311 448,-311 448,-317 442,-323 436,-323 436,-323 236,-323 236,-323 230,-323 224,-317 224,-311 224,-311 224,-262 224,-262 224,-256 230,-250 236,-250"/>
<text text-anchor="middle" x="336" y="-309.4" font-family="Arial" font-size="12.00">Remote &#45; app&#45;cluster&#45;a</text>
</g>
<g id="clust4" class="cluster">
<title>cluster_4_Remote2</title>
<path fill="white" stroke="#cbd5e1" d="M28,-133C28,-133 228,-133 228,-133 234,-133 240,-139 240,-145 240,-145 240,-194 240,-194 240,-200 234,-206 228,-206 228,-206 28,-206 28,-206 22,-206 16,-200 16,-194 16,-194 16,-145 16,-145 16,-139 22,-133 28,-133"/>
<text text-anchor="middle" x="128" y="-192.4" font-family="Arial" font-size="12.00">Remote &#45; app&#45;cluster&#45;b</text>
</g>
<g id="clust5" class="cluster">
<title>cluster_5_Remote3</title>
<path fill="white" stroke="#cbd5e1" d="M235,-16C235,-16 435,-16 435,-16 441,-16 447,-22 447,-28 447,-28 447,-77 447,-77 447,-83 441,-89 435,-89 435,-89 235,-89 235,-89 229,-89 223,-83 223,-77 223,-77 223,-28 223,-28 223,-22 229,-16 235,-16"/>
<text text-anchor="middle" x="335" y="-75.4" font-family="Arial" font-size="12.00">Remote &#45; app&#45;cluster&#45;c</text>
</g>
<!-- P_Istiod -->
<g id="node1" class="node">
<title>P_Istiod</title>
<path fill="#f8fafc" stroke="#334155" d="M428,-411C428,-411 378,-411 378,-411 372,-411 366,-405 366,-399 366,-399 366,-387 366,-387 366,-381 372,-375 378,-375 378,-375 428,-375 428,-375 434,-375 440,-381 440,-387 440,-387 440,-399 440,-399 440,-405 434,-411 428,-411"/>
<text text-anchor="middle" x="403" y="-396" font-family="Arial" font-size="10.00">Istiod</text>
<text text-anchor="middle" x="403" y="-385" font-family="Arial" font-size="10.00">Control Plane</text>
</g>
<!-- R1_Istiod -->
<g id="node4" class="node">
<title>R1_Istiod</title>
<path fill="#f8fafc" stroke="#334155" d="M428,-294C428,-294 378,-294 378,-294 372,-294 366,-288 366,-282 366,-282 366,-270 366,-270 366,-264 372,-258 378,-258 378,-258 428,-258 428,-258 434,-258 440,-264 440,-270 440,-270 440,-282 440,-282 440,-288 434,-294 428,-294"/>
<text text-anchor="middle" x="403" y="-279" font-family="Arial" font-size="10.00">Istiod</text>
<text text-anchor="middle" x="403" y="-268" font-family="Arial" font-size="10.00">Control Plane</text>
</g>
<!-- P_Istiod&#45;&gt;R1_Istiod -->
<g id="edge1" class="edge">
<title>P_Istiod&#45;&gt;R1_Istiod</title>
<path fill="none" stroke="#475569" stroke-dasharray="5,2" d="M403,-366.32C403,-347.27 403,-321.43 403,-302.45"/>
<polygon fill="#475569" stroke="#475569" points="400.2,-366.53 403,-374.53 405.8,-366.53 400.2,-366.53"/>
<polygon fill="#475569" stroke="#475569" points="405.8,-302.25 403,-294.25 400.2,-302.25 405.8,-302.25"/>
<text text-anchor="middle" x="433.5" y="-343.8" font-family="Arial" font-size="9.00">API Access</text>
<text text-anchor="middle" x="433.5" y="-333.8" font-family="Arial" font-size="9.00">Remote Secret</text>
</g>
<!-- R2_Istiod -->
<g id="node6" class="node">
<title>R2_Istiod</title>
<path fill="#f8fafc" stroke="#334155" d="M220,-177C220,-177 170,-177 170,-177 164,-177 158,-171 158,-165 158,-165 158,-153 158,-153 158,-147 164,-141 170,-141 170,-141 220,-141 220,-141 226,-141 232,-147 232,-153 232,-153 232,-165 232,-165 232,-171 226,-177 220,-177"/>
<text text-anchor="middle" x="195" y="-162" font-family="Arial" font-size="10.00">Istiod</text>
<text text-anchor="middle" x="195" y="-151" font-family="Arial" font-size="10.00">Control Plane</text>
</g>
<!-- P_Istiod&#45;&gt;R2_Istiod -->
<g id="edge2" class="edge">
<title>P_Istiod&#45;&gt;R2_Istiod</title>
<path fill="none" stroke="#475569" stroke-dasharray="5,2" d="M379.52,-369.44C363.55,-355.62 341.16,-339.08 318,-331 300.88,-325.03 168.01,-335.63 155,-323 120.17,-289.18 130.99,-259.46 148,-214 152.32,-202.46 160.34,-191.76 168.55,-182.98"/>
<polygon fill="#475569" stroke="#475569" points="377.69,-371.55 385.54,-374.77 381.41,-367.36 377.69,-371.55"/>
<polygon fill="#475569" stroke="#475569" points="170.6,-184.89 174.22,-177.22 166.61,-180.96 170.6,-184.89"/>
<text text-anchor="middle" x="185.5" y="-278.8" font-family="Arial" font-size="9.00">API Access</text>
<text text-anchor="middle" x="185.5" y="-268.8" font-family="Arial" font-size="9.00">Remote Secret</text>
</g>
<!-- R3_Istiod -->
<g id="node8" class="node">
<title>R3_Istiod</title>
<path fill="#f8fafc" stroke="#334155" d="M427,-60C427,-60 377,-60 377,-60 371,-60 365,-54 365,-48 365,-48 365,-36 365,-36 365,-30 371,-24 377,-24 377,-24 427,-24 427,-24 433,-24 439,-30 439,-36 439,-36 439,-48 439,-48 439,-54 433,-60 427,-60"/>
<text text-anchor="middle" x="402" y="-45" font-family="Arial" font-size="10.00">Istiod</text>
<text text-anchor="middle" x="402" y="-34" font-family="Arial" font-size="10.00">Control Plane</text>
</g>
<!-- P_Istiod&#45;&gt;R3_Istiod -->
<g id="edge3" class="edge">
<title>P_Istiod&#45;&gt;R3_Istiod</title>
<path fill="none" stroke="#475569" stroke-dasharray="5,2" d="M447.2,-371.93C456.34,-366.2 465.22,-359.23 472,-351 480.4,-340.8 479.74,-336.02 482,-323 491.11,-270.42 470.61,-98.14 470,-97 463.19,-84.21 451.91,-73.41 440.47,-64.91"/>
<polygon fill="#475569" stroke="#475569" points="445.66,-369.59 440.2,-376.07 448.51,-374.41 445.66,-369.59"/>
<polygon fill="#475569" stroke="#475569" points="441.9,-62.49 433.75,-60.17 438.68,-67.07 441.9,-62.49"/>
<text text-anchor="middle" x="512.5" y="-226.8" font-family="Arial" font-size="9.00">API Access</text>
<text text-anchor="middle" x="512.5" y="-216.8" font-family="Arial" font-size="9.00">Remote Secret</text>
</g>
<!-- P_Gateway -->
<g id="node2" class="node">
<title>P_Gateway</title>
<path fill="#f8fafc" stroke="#334155" d="M322,-411C322,-411 244,-411 244,-411 238,-411 232,-405 232,-399 232,-399 232,-387 232,-387 232,-381 238,-375 244,-375 244,-375 322,-375 322,-375 328,-375 334,-381 334,-387 334,-387 334,-399 334,-399 334,-405 328,-411 322,-411"/>
<text text-anchor="middle" x="283" y="-390.5" font-family="Arial" font-size="10.00">East&#45;West Gateway</text>
</g>
<!-- R1_Gateway -->
<g id="node5" class="node">
<title>R1_Gateway</title>
<path fill="#f8fafc" stroke="#334155" d="M322,-294C322,-294 244,-294 244,-294 238,-294 232,-288 232,-282 232,-282 232,-270 232,-270 232,-264 238,-258 244,-258 244,-258 322,-258 322,-258 328,-258 334,-264 334,-270 334,-270 334,-282 334,-282 334,-288 328,-294 322,-294"/>
<text text-anchor="middle" x="283" y="-273.5" font-family="Arial" font-size="10.00">East&#45;West Gateway</text>
</g>
<!-- P_Gateway&#45;&gt;R1_Gateway -->
<g id="edge7" class="edge">
<title>P_Gateway&#45;&gt;R1_Gateway</title>
<path fill="none" stroke="#475569" stroke-dasharray="5,2" d="M283,-366.32C283,-347.27 283,-321.43 283,-302.45"/>
<polygon fill="#475569" stroke="#475569" points="280.2,-366.53 283,-374.53 285.8,-366.53 280.2,-366.53"/>
<polygon fill="#475569" stroke="#475569" points="285.8,-302.25 283,-294.25 280.2,-302.25 285.8,-302.25"/>
<text text-anchor="middle" x="296.5" y="-338.8" font-family="Arial" font-size="9.00">15443</text>
</g>
<!-- R2_Gateway -->
<g id="node7" class="node">
<title>R2_Gateway</title>
<path fill="#f8fafc" stroke="#334155" d="M114,-177C114,-177 36,-177 36,-177 30,-177 24,-171 24,-165 24,-165 24,-153 24,-153 24,-147 30,-141 36,-141 36,-141 114,-141 114,-141 120,-141 126,-147 126,-153 126,-153 126,-165 126,-165 126,-171 120,-177 114,-177"/>
<text text-anchor="middle" x="75" y="-156.5" font-family="Arial" font-size="10.00">East&#45;West Gateway</text>
</g>
<!-- P_Gateway&#45;&gt;R2_Gateway -->
<g id="edge8" class="edge">
<title>P_Gateway&#45;&gt;R2_Gateway</title>
<path fill="none" stroke="#475569" stroke-dasharray="5,2" d="M229.54,-372.04C224.96,-370.33 220.4,-368.63 216,-367 163.14,-347.37 132.25,-367.01 97,-323 65.4,-283.55 66.98,-220.73 70.96,-185.72"/>
<polygon fill="#475569" stroke="#475569" points="228.76,-374.73 237.23,-374.9 230.72,-369.49 228.76,-374.73"/>
<polygon fill="#475569" stroke="#475569" points="73.78,-185.73 72.01,-177.45 68.23,-185.03 73.78,-185.73"/>
<text text-anchor="middle" x="110.5" y="-273.8" font-family="Arial" font-size="9.00">15443</text>
</g>
<!-- R3_Gateway -->
<g id="node9" class="node">
<title>R3_Gateway</title>
<path fill="#f8fafc" stroke="#334155" d="M321,-60C321,-60 243,-60 243,-60 237,-60 231,-54 231,-48 231,-48 231,-36 231,-36 231,-30 237,-24 243,-24 243,-24 321,-24 321,-24 327,-24 333,-30 333,-36 333,-36 333,-48 333,-48 333,-54 327,-60 321,-60"/>
<text text-anchor="middle" x="282" y="-39.5" font-family="Arial" font-size="10.00">East&#45;West Gateway</text>
</g>
<!-- P_Gateway&#45;&gt;R3_Gateway -->
<g id="edge9" class="edge">
<title>P_Gateway&#45;&gt;R3_Gateway</title>
<path fill="none" stroke="#475569" stroke-dasharray="5,2" d="M315.04,-370.4C336.69,-356.87 366.44,-340.29 395,-331 408,-326.77 446.98,-333.28 456,-323 477.4,-298.61 464.94,-281.19 456,-250 453.69,-241.94 450,-241.37 446,-234 422.39,-190.48 429.95,-171.64 399,-133 386.19,-117.01 343.73,-85.88 313.67,-64.76"/>
<polygon fill="#475569" stroke="#475569" points="313.28,-368.2 308.02,-374.85 316.28,-372.93 313.28,-368.2"/>
<polygon fill="#475569" stroke="#475569" points="315.23,-62.44 307.07,-60.15 312.03,-67.03 315.23,-62.44"/>
<text text-anchor="middle" x="459.5" y="-221.8" font-family="Arial" font-size="9.00">15443</text>
</g>
<!-- P_Kiali -->
<g id="node3" class="node">
<title>P_Kiali</title>
<path fill="#f8fafc" stroke="#334155" d="M187.5,-411C187.5,-411 146.5,-411 146.5,-411 140.5,-411 134.5,-405 134.5,-399 134.5,-399 134.5,-387 134.5,-387 134.5,-381 140.5,-375 146.5,-375 146.5,-375 187.5,-375 187.5,-375 193.5,-375 199.5,-381 199.5,-387 199.5,-387 199.5,-399 199.5,-399 199.5,-405 193.5,-411 187.5,-411"/>
<text text-anchor="middle" x="167" y="-390.5" font-family="Arial" font-size="10.00">Kiali Server</text>
</g>
<!-- R1_Istiod&#45;&gt;R2_Istiod -->
<g id="edge4" class="edge">
<title>R1_Istiod&#45;&gt;R2_Istiod</title>
<path fill="none" stroke="#475569" stroke-dasharray="5,2" d="M361.49,-254.67C357.64,-253.01 353.77,-251.43 350,-250 326.19,-240.99 317.89,-245.14 295,-234 275.81,-224.66 273.19,-218.65 256,-206 245.48,-198.26 234.04,-189.67 223.93,-182.03"/>
<polygon fill="#475569" stroke="#475569" points="360.39,-257.25 368.84,-257.93 362.66,-252.13 360.39,-257.25"/>
<polygon fill="#475569" stroke="#475569" points="225.57,-179.76 217.5,-177.17 222.19,-184.23 225.57,-179.76"/>
<text text-anchor="middle" x="315.5" y="-226.8" font-family="Arial" font-size="9.00">Mutual</text>
<text text-anchor="middle" x="315.5" y="-216.8" font-family="Arial" font-size="9.00">Discovery</text>
</g>
<!-- R1_Istiod&#45;&gt;R3_Istiod -->
<g id="edge5" class="edge">
<title>R1_Istiod&#45;&gt;R3_Istiod</title>
<path fill="none" stroke="#475569" stroke-dasharray="5,2" d="M365.14,-252.87C359.02,-247.51 353.54,-241.21 350,-234 322.32,-177.6 360.69,-104.35 384.89,-67.08"/>
<polygon fill="#475569" stroke="#475569" points="363.43,-255.09 371.42,-257.91 366.93,-250.72 363.43,-255.09"/>
<polygon fill="#475569" stroke="#475569" points="387.42,-68.33 389.52,-60.12 382.76,-65.23 387.42,-68.33"/>
<text text-anchor="middle" x="370.5" y="-161.8" font-family="Arial" font-size="9.00">Mutual</text>
<text text-anchor="middle" x="370.5" y="-151.8" font-family="Arial" font-size="9.00">Discovery</text>
</g>
<!-- R1_Gateway&#45;&gt;R2_Gateway -->
<g id="edge10" class="edge">
<title>R1_Gateway&#45;&gt;R2_Gateway</title>
<path fill="none" stroke="#475569" stroke-dasharray="5,2" d="M236.91,-254.53C208.93,-241.59 172.79,-223.97 142,-206 129.49,-198.7 116.23,-189.85 104.84,-181.87"/>
<polygon fill="#475569" stroke="#475569" points="235.77,-257.09 244.21,-257.88 238.11,-252 235.77,-257.09"/>
<polygon fill="#475569" stroke="#475569" points="106.17,-179.38 98.02,-177.04 102.93,-183.95 106.17,-179.38"/>
<text text-anchor="middle" x="204.5" y="-221.8" font-family="Arial" font-size="9.00">15443</text>
</g>
<!-- R1_Gateway&#45;&gt;R3_Gateway -->
<g id="edge11" class="edge">
<title>R1_Gateway&#45;&gt;R3_Gateway</title>
<path fill="none" stroke="#475569" stroke-dasharray="5,2" d="M270.3,-250.52C268.11,-245.21 266.16,-239.52 265,-234 263.17,-225.3 263.84,-222.81 265,-214 271.96,-161.19 295.39,-150.09 291,-97 290.22,-87.57 288.69,-77.31 287.1,-68.29"/>
<polygon fill="#475569" stroke="#475569" points="267.81,-251.81 273.64,-257.97 272.93,-249.53 267.81,-251.81"/>
<polygon fill="#475569" stroke="#475569" points="289.85,-67.78 285.65,-60.42 284.35,-68.79 289.85,-67.78"/>
<text text-anchor="middle" x="302.5" y="-156.8" font-family="Arial" font-size="9.00">15443</text>
</g>
<!-- R2_Istiod&#45;&gt;R3_Istiod -->
<g id="edge6" class="edge">
<title>R2_Istiod&#45;&gt;R3_Istiod</title>
<path fill="none" stroke="#475569" stroke-dasharray="5,2" d="M239.64,-139.72C277.97,-123.7 329.96,-101.15 349,-89 359.41,-82.35 369.89,-73.76 378.75,-65.8"/>
<polygon fill="#475569" stroke="#475569" points="238.48,-137.17 232.17,-142.83 240.63,-142.34 238.48,-137.17"/>
<polygon fill="#475569" stroke="#475569" points="380.9,-67.63 384.89,-60.15 377.11,-63.5 380.9,-67.63"/>
<text text-anchor="middle" x="354.5" y="-109.8" font-family="Arial" font-size="9.00">Mutual</text>
<text text-anchor="middle" x="354.5" y="-99.8" font-family="Arial" font-size="9.00">Discovery</text>
</g>
<!-- R2_Gateway&#45;&gt;R3_Gateway -->
<g id="edge12" class="edge">
<title>R2_Gateway&#45;&gt;R3_Gateway</title>
<path fill="none" stroke="#475569" stroke-dasharray="5,2" d="M113.14,-136.81C150.39,-116.12 206.75,-84.81 243.96,-64.13"/>
<polygon fill="#475569" stroke="#475569" points="111.62,-134.45 105.99,-140.78 114.34,-139.35 111.62,-134.45"/>
<polygon fill="#475569" stroke="#475569" points="245.5,-66.48 251.14,-60.15 242.78,-61.58 245.5,-66.48"/>
<text text-anchor="middle" x="197.5" y="-104.8" font-family="Arial" font-size="9.00">15443</text>
</g>
</g>
</svg>
