<?xml version="1.0" encoding="UTF-8" standalone="no"?>
<!DOCTYPE svg PUBLIC "-//W3C//DTD SVG 1.1//EN"
 "http://www.w3.org/Graphics/SVG/1.1/DTD/svg11.dtd">
<!-- Generated by graphviz version 2.42.4 (0)
 -->
<!-- Title: system&#45;design&#45;document&#45;diagram&#45;10 Pages: 1 -->
<svg width="679pt" height="301pt"
 viewBox="0.00 0.00 679.00 301.00" xmlns="http://www.w3.org/2000/svg" xmlns:xlink="http://www.w3.org/1999/xlink">
<g id="graph0" class="graph" transform="scale(1 1) rotate(0) translate(4 297)">
<title>system&#45;design&#45;document&#45;diagram&#45;10</title>
<polygon fill="white" stroke="transparent" points="-4,4 -4,-297 675,-297 675,4 -4,4"/>
<g id="clust1" class="cluster">
<title>cluster_1_External</title>
<path fill="white" stroke="#cbd5e1" d="M12,-76C12,-76 91,-76 91,-76 97,-76 103,-82 103,-88 103,-88 103,-137 103,-137 103,-143 97,-149 91,-149 91,-149 12,-149 12,-149 6,-149 0,-143 0,-137 0,-137 0,-88 0,-88 0,-82 6,-76 12,-76"/>
<text text-anchor="middle" x="51.5" y="-135.4" font-family="Arial" font-size="12.00">External Access</text>
</g>
<g id="clust2" class="cluster">
<title>cluster_2_Ingress</title>
<path fill="white" stroke="#cbd5e1" d="M146,-76C146,-76 222,-76 222,-76 228,-76 234,-82 234,-88 234,-88 234,-137 234,-137 234,-143 228,-149 222,-149 222,-149 146,-149 146,-149 140,-149 134,-143 134,-137 134,-137 134,-88 134,-88 134,-82 140,-76 146,-76"/>
<text text-anchor="middle" x="184" y="-135.4" font-family="Arial" font-size="12.00">Ingress Layer</text>
</g>
<g id="clust3" class="cluster">
<title>cluster_3_RocketChat</title>
<path fill="white" stroke="#cbd5e1" d="M277,-8C277,-8 368,-8 368,-8 374,-8 380,-14 380,-20 380,-20 380,-205 380,-205 380,-211 374,-217 368,-217 368,-217 277,-217 277,-217 271,-217 265,-211 265,-205 265,-205 265,-20 265,-20 265,-14 271,-8 277,-8"/>
<text text-anchor="middle" x="322.5" y="-203.4" font-family="Arial" font-size="12.00">Rocket.Chat Pods</text>
</g>
<g id="clust4" class="cluster">
<title>cluster_4_Microservices</title>
<path fill="white" stroke="#cbd5e1" d="M423,-144C423,-144 515,-144 515,-144 521,-144 527,-150 527,-156 527,-156 527,-273 527,-273 527,-279 521,-285 515,-285 515,-285 423,-285 423,-285 417,-285 411,-279 411,-273 411,-273 411,-156 411,-156 411,-150 417,-144 423,-144"/>
<text text-anchor="middle" x="469" y="-271.4" font-family="Arial" font-size="12.00">Microservice Pods</text>
</g>
<g id="clust5" class="cluster">
<title>cluster_5_Backend</title>
<path fill="white" stroke="#cbd5e1" d="M570,-66C570,-66 659,-66 659,-66 665,-66 671,-72 671,-78 671,-78 671,-205 671,-205 671,-211 665,-217 659,-217 659,-217 570,-217 570,-217 564,-217 558,-211 558,-205 558,-205 558,-78 558,-78 558,-72 564,-66 570,-66"/>
<text text-anchor="middle" x="614.5" y="-203.4" font-family="Arial" font-size="12.00">Backend Services</text>
</g>
<!-- Users -->
<g id="node1" class="node">
<title>Users</title>
<path fill="#f8fafc" stroke="#334155" d="M66,-120C66,-120 36,-120 36,-120 30,-120 24,-114 24,-108 24,-108 24,-96 24,-96 24,-90 30,-84 36,-84 36,-84 66,-84 66,-84 72,-84 78,-90 78,-96 78,-96 78,-108 78,-108 78,-114 72,-120 66,-120"/>
<text text-anchor="middle" x="51" y="-99.5" font-family="Arial" font-size="10.00">Users</text>
</g>
<!-- Contour -->
<g id="node2" class="node">
<title>Contour</title>
<path fill="#f8fafc" stroke="#334155" d="M214,-120C214,-120 154,-120 154,-120 148,-120 142,-114 142,-108 142,-108 142,-96 142,-96 142,-90 148,-84 154,-84 154,-84 214,-84 214,-84 220,-84 226,-90 226,-96 226,-96 226,-108 226,-108 226,-114 220,-120 214,-120"/>
<text text-anchor="middle" x="184" y="-99.5" font-family="Arial" font-size="10.00">Contour Ingress</text>
</g>
<!-- Users&#45;&gt;Contour -->
<g id="edge1" class="edge">
<title>Users&#45;&gt;Contour</title>
<path fill="none" stroke="#475569" d="M78.19,-102C94.07,-102 114.82,-102 133.67,-102"/>
<polygon fill="#475569" stroke="#475569" points="133.89,-104.8 141.89,-102 133.89,-99.2 133.89,-104.8"/>
</g>
<!-- RC1 -->
<g id="node3" class="node">
<title>RC1</title>
<path fill="#f8fafc" stroke="#334155" d="M360,-120C360,-120 285,-120 285,-120 279,-120 273,-114 273,-108 273,-108 273,-96 273,-96 273,-90 279,-84 285,-84 285,-84 360,-84 360,-84 366,-84 372,-90 372,-96 372,-96 372,-108 372,-108 372,-114 366,-120 360,-120"/>
<text text-anchor="middle" x="322.5" y="-99.5" font-family="Arial" font-size="10.00">Rocket.Chat Pod 1</text>
</g>
<!-- Contour&#45;&gt;RC1 -->
<g id="edge2" class="edge">
<title>Contour&#45;&gt;RC1</title>
<path fill="none" stroke="#475569" d="M226.32,-102C238.3,-102 251.59,-102 264.34,-102"/>
<polygon fill="#475569" stroke="#475569" points="264.63,-104.8 272.63,-102 264.63,-99.2 264.63,-104.8"/>
</g>
<!-- RC2 -->
<g id="node4" class="node">
<title>RC2</title>
<path fill="#f8fafc" stroke="#334155" d="M360,-188C360,-188 285,-188 285,-188 279,-188 273,-182 273,-176 273,-176 273,-164 273,-164 273,-158 279,-152 285,-152 285,-152 360,-152 360,-152 366,-152 372,-158 372,-164 372,-164 372,-176 372,-176 372,-182 366,-188 360,-188"/>
<text text-anchor="middle" x="322.5" y="-167.5" font-family="Arial" font-size="10.00">Rocket.Chat Pod 2</text>
</g>
<!-- Contour&#45;&gt;RC2 -->
<g id="edge3" class="edge">
<title>Contour&#45;&gt;RC2</title>
<path fill="none" stroke="#475569" d="M221.22,-120.04C238.5,-128.65 259.32,-139.02 277.5,-148.08"/>
<polygon fill="#475569" stroke="#475569" points="276.7,-150.81 285.11,-151.87 279.2,-145.8 276.7,-150.81"/>
</g>
<!-- RC3 -->
<g id="node5" class="node">
<title>RC3</title>
<path fill="#f8fafc" stroke="#334155" d="M360,-52C360,-52 285,-52 285,-52 279,-52 273,-46 273,-40 273,-40 273,-28 273,-28 273,-22 279,-16 285,-16 285,-16 360,-16 360,-16 366,-16 372,-22 372,-28 372,-28 372,-40 372,-40 372,-46 366,-52 360,-52"/>
<text text-anchor="middle" x="322.5" y="-31.5" font-family="Arial" font-size="10.00">Rocket.Chat Pod 3</text>
</g>
<!-- Contour&#45;&gt;RC3 -->
<g id="edge4" class="edge">
<title>Contour&#45;&gt;RC3</title>
<path fill="none" stroke="#475569" d="M221.22,-83.96C238.5,-75.35 259.32,-64.98 277.5,-55.92"/>
<polygon fill="#475569" stroke="#475569" points="279.2,-58.2 285.11,-52.13 276.7,-53.19 279.2,-58.2"/>
</g>
<!-- Presence1 -->
<g id="node6" class="node">
<title>Presence1</title>
<path fill="#f8fafc" stroke="#334155" d="M507,-256C507,-256 431,-256 431,-256 425,-256 419,-250 419,-244 419,-244 419,-232 419,-232 419,-226 425,-220 431,-220 431,-220 507,-220 507,-220 513,-220 519,-226 519,-232 519,-232 519,-244 519,-244 519,-250 513,-256 507,-256"/>
<text text-anchor="middle" x="469" y="-235.5" font-family="Arial" font-size="10.00">Presence Service 1</text>
</g>
<!-- RC1&#45;&gt;Presence1 -->
<g id="edge5" class="edge">
<title>RC1&#45;&gt;Presence1</title>
<path fill="none" stroke="#475569" d="M360.9,-120.1C367.83,-124.62 374.59,-129.93 380,-136 402.11,-160.79 388.84,-179.26 411,-204 414.67,-208.09 418.95,-211.84 423.48,-215.23"/>
<polygon fill="#475569" stroke="#475569" points="422.1,-217.68 430.27,-219.94 425.29,-213.08 422.1,-217.68"/>
</g>
<!-- MongoDB -->
<g id="node8" class="node">
<title>MongoDB</title>
<path fill="#f8fafc" stroke="#334155" d="M646,-116.02C646,-118.36 631.88,-120.25 614.5,-120.25 597.12,-120.25 583,-118.36 583,-116.02 583,-116.02 583,-77.98 583,-77.98 583,-75.64 597.12,-73.75 614.5,-73.75 631.88,-73.75 646,-75.64 646,-77.98 646,-77.98 646,-116.02 646,-116.02"/>
<path fill="none" stroke="#334155" d="M646,-116.02C646,-113.69 631.88,-111.8 614.5,-111.8 597.12,-111.8 583,-113.69 583,-116.02"/>
<text text-anchor="middle" x="614.5" y="-100" font-family="Arial" font-size="10.00">MongoDB</text>
<text text-anchor="middle" x="614.5" y="-89" font-family="Arial" font-size="10.00">ReplicaSet</text>
</g>
<!-- RC1&#45;&gt;MongoDB -->
<g id="edge8" class="edge">
<title>RC1&#45;&gt;MongoDB</title>
<path fill="none" stroke="#475569" d="M372.08,-86.2C384.62,-82.81 398.2,-79.72 411,-78 462.09,-71.12 475.75,-72.44 527,-78 542.86,-79.72 560.08,-83.17 574.95,-86.66"/>
<polygon fill="#475569" stroke="#475569" points="574.51,-89.44 582.94,-88.6 575.82,-83.99 574.51,-89.44"/>
</g>
<!-- RC2&#45;&gt;Presence1 -->
<g id="edge6" class="edge">
<title>RC2&#45;&gt;Presence1</title>
<path fill="none" stroke="#475569" d="M361.84,-188.04C380.45,-196.8 402.94,-207.38 422.42,-216.55"/>
<polygon fill="#475569" stroke="#475569" points="421.3,-219.12 429.73,-219.99 423.68,-214.05 421.3,-219.12"/>
</g>
<!-- RC2&#45;&gt;MongoDB -->
<g id="edge9" class="edge">
<title>RC2&#45;&gt;MongoDB</title>
<path fill="none" stroke="#475569" d="M365.7,-151.83C379.9,-146.19 395.97,-140.33 411,-136 467,-119.87 533.66,-108.48 574.78,-102.33"/>
<polygon fill="#475569" stroke="#475569" points="575.4,-105.07 582.91,-101.13 574.58,-99.53 575.4,-105.07"/>
</g>
<!-- Presence2 -->
<g id="node7" class="node">
<title>Presence2</title>
<path fill="#f8fafc" stroke="#334155" d="M507,-188C507,-188 431,-188 431,-188 425,-188 419,-182 419,-176 419,-176 419,-164 419,-164 419,-158 425,-152 431,-152 431,-152 507,-152 507,-152 513,-152 519,-158 519,-164 519,-164 519,-176 519,-176 519,-182 513,-188 507,-188"/>
<text text-anchor="middle" x="469" y="-167.5" font-family="Arial" font-size="10.00">Presence Service 2</text>
</g>
<!-- RC3&#45;&gt;Presence2 -->
<g id="edge7" class="edge">
<title>RC3&#45;&gt;Presence2</title>
<path fill="none" stroke="#475569" d="M357.56,-52.11C365.26,-56.84 373.17,-62.25 380,-68 407.55,-91.22 433.81,-123.43 450.36,-145.41"/>
<polygon fill="#475569" stroke="#475569" points="448.15,-147.13 455.17,-151.88 452.64,-143.79 448.15,-147.13"/>
</g>
<!-- RC3&#45;&gt;MongoDB -->
<g id="edge10" class="edge">
<title>RC3&#45;&gt;MongoDB</title>
<path fill="none" stroke="#475569" d="M372.16,-38.6C413.75,-43.2 474.92,-51.55 527,-65 543.11,-69.16 560.39,-75.21 575.23,-80.94"/>
<polygon fill="#475569" stroke="#475569" points="574.29,-83.58 582.76,-83.89 576.33,-78.36 574.29,-83.58"/>
</g>
<!-- NATS -->
<g id="node9" class="node">
<title>NATS</title>
<path fill="#f8fafc" stroke="#334155" d="M640,-188C640,-188 589,-188 589,-188 583,-188 577,-182 577,-176 577,-176 577,-164 577,-164 577,-158 583,-152 589,-152 589,-152 640,-152 640,-152 646,-152 652,-158 652,-164 652,-164 652,-176 652,-176 652,-182 646,-188 640,-188"/>
<text text-anchor="middle" x="614.5" y="-167.5" font-family="Arial" font-size="10.00">NATS Cluster</text>
</g>
<!-- Presence1&#45;&gt;NATS -->
<g id="edge11" class="edge">
<title>Presence1&#45;&gt;NATS</title>
<path fill="none" stroke="#475569" d="M508.08,-219.96C526.93,-211.02 549.78,-200.19 569.39,-190.9"/>
<polygon fill="#475569" stroke="#475569" points="570.7,-193.38 576.73,-187.42 568.3,-188.32 570.7,-193.38"/>
</g>
<!-- Presence2&#45;&gt;NATS -->
<g id="edge12" class="edge">
<title>Presence2&#45;&gt;NATS</title>
<path fill="none" stroke="#475569" d="M519.38,-170C535.25,-170 552.75,-170 568.3,-170"/>
<polygon fill="#475569" stroke="#475569" points="568.72,-172.8 576.72,-170 568.72,-167.2 568.72,-172.8"/>
</g>
</g>
</svg>
