<?xml version="1.0" encoding="UTF-8" standalone="no"?>
<!DOCTYPE svg PUBLIC "-//W3C//DTD SVG 1.1//EN"
 "http://www.w3.org/Graphics/SVG/1.1/DTD/svg11.dtd">
<!-- Generated by graphviz version 2.42.4 (0)
 -->
<!-- Title: system&#45;design&#45;document&#45;diagram&#45;01 Pages: 1 -->
<svg width="1299pt" height="513pt"
 viewBox="0.00 0.00 1299.00 513.00" xmlns="http://www.w3.org/2000/svg" xmlns:xlink="http://www.w3.org/1999/xlink">
<g id="graph0" class="graph" transform="scale(1 1) rotate(0) translate(4 509)">
<title>system&#45;design&#45;document&#45;diagram&#45;01</title>
<polygon fill="white" stroke="transparent" points="-4,4 -4,-509 1295,-509 1295,4 -4,4"/>
<g id="clust1" class="cluster">
<title>cluster_1_Site_Site_A</title>
<path fill="white" stroke="#cbd5e1" d="M479,-280C479,-280 1078,-280 1078,-280 1084,-280 1090,-286 1090,-292 1090,-292 1090,-485 1090,-485 1090,-491 1084,-497 1078,-497 1078,-497 479,-497 479,-497 473,-497 467,-491 467,-485 467,-485 467,-292 467,-292 467,-286 473,-280 479,-280"/>
<text text-anchor="middle" x="778.5" y="-483.4" font-family="Arial" font-size="12.00">Site A</text>
</g>
<g id="clust2" class="cluster">
<title>cluster_2_Site_AM</title>
<path fill="white" stroke="#cbd5e1" d="M487,-395C487,-395 1070,-395 1070,-395 1076,-395 1082,-401 1082,-407 1082,-407 1082,-456 1082,-456 1082,-462 1076,-468 1070,-468 1070,-468 487,-468 487,-468 481,-468 475,-462 475,-456 475,-456 475,-407 475,-407 475,-401 481,-395 487,-395"/>
<text text-anchor="middle" x="778.5" y="-454.4" font-family="Arial" font-size="12.00">mgmt&#45;cluster Cluster</text>
</g>
<g id="clust3" class="cluster">
<title>cluster_3_Site_AD</title>
<path fill="white" stroke="#cbd5e1" d="M584,-288C584,-288 1070,-288 1070,-288 1076,-288 1082,-294 1082,-300 1082,-300 1082,-349 1082,-349 1082,-355 1076,-361 1070,-361 1070,-361 584,-361 584,-361 578,-361 572,-355 572,-349 572,-349 572,-300 572,-300 572,-294 578,-288 584,-288"/>
<text text-anchor="middle" x="827" y="-347.4" font-family="Arial" font-size="12.00">app&#45;cluster&#45;a Cluster</text>
</g>
<g id="clust4" class="cluster">
<title>cluster_4_Site_Site_B</title>
<path fill="white" stroke="#cbd5e1" d="M769,-144C769,-144 1271,-144 1271,-144 1277,-144 1283,-150 1283,-156 1283,-156 1283,-242 1283,-242 1283,-248 1277,-254 1271,-254 1271,-254 769,-254 769,-254 763,-254 757,-248 757,-242 757,-242 757,-156 757,-156 757,-150 763,-144 769,-144"/>
<text text-anchor="middle" x="1020" y="-240.4" font-family="Arial" font-size="12.00">Site B</text>
</g>
<g id="clust5" class="cluster">
<title>cluster_5_Site_BD</title>
<path fill="white" stroke="#cbd5e1" d="M777,-152C777,-152 1263,-152 1263,-152 1269,-152 1275,-158 1275,-164 1275,-164 1275,-213 1275,-213 1275,-219 1269,-225 1263,-225 1263,-225 777,-225 777,-225 771,-225 765,-219 765,-213 765,-213 765,-164 765,-164 765,-158 771,-152 777,-152"/>
<text text-anchor="middle" x="1020" y="-211.4" font-family="Arial" font-size="12.00">app&#45;cluster&#45;b Cluster</text>
</g>
<g id="clust6" class="cluster">
<title>cluster_6_Site_Site_C</title>
<path fill="white" stroke="#cbd5e1" d="M235,-8C235,-8 736,-8 736,-8 742,-8 748,-14 748,-20 748,-20 748,-106 748,-106 748,-112 742,-118 736,-118 736,-118 235,-118 235,-118 229,-118 223,-112 223,-106 223,-106 223,-20 223,-20 223,-14 229,-8 235,-8"/>
<text text-anchor="middle" x="485.5" y="-104.4" font-family="Arial" font-size="12.00">Site C</text>
</g>
<g id="clust7" class="cluster">
<title>cluster_7_Site_CD</title>
<path fill="white" stroke="#cbd5e1" d="M243,-16C243,-16 728,-16 728,-16 734,-16 740,-22 740,-28 740,-28 740,-77 740,-77 740,-83 734,-89 728,-89 728,-89 243,-89 243,-89 237,-89 231,-83 231,-77 231,-77 231,-28 231,-28 231,-22 237,-16 243,-16"/>
<text text-anchor="middle" x="485.5" y="-75.4" font-family="Arial" font-size="12.00">app&#45;cluster&#45;c Cluster</text>
</g>
<g id="clust8" class="cluster">
<title>cluster_8_External</title>
<path fill="white" stroke="#cbd5e1" d="M20,-288C20,-288 310,-288 310,-288 316,-288 322,-294 322,-300 322,-300 322,-349 322,-349 322,-355 316,-361 310,-361 310,-361 20,-361 20,-361 14,-361 8,-355 8,-349 8,-349 8,-300 8,-300 8,-294 14,-288 20,-288"/>
<text text-anchor="middle" x="165" y="-347.4" font-family="Arial" font-size="12.00">External Services</text>
</g>
<!-- Site_AM -->
<g id="node1" class="node">
<title>Site_AM</title>
<path fill="#f8fafc" stroke="#334155" d="M155,-439C155,-439 125,-439 125,-439 119,-439 113,-433 113,-427 113,-427 113,-415 113,-415 113,-409 119,-403 125,-403 125,-403 155,-403 155,-403 161,-403 167,-409 167,-415 167,-415 167,-427 167,-427 167,-433 161,-439 155,-439"/>
<text text-anchor="middle" x="140" y="-418.5" font-family="Arial" font-size="10.00">Site AM</text>
</g>
<!-- REGISTRY -->
<g id="node22" class="node">
<title>REGISTRY</title>
<path fill="#ffebee" stroke="#334155" d="M302,-332C302,-332 182,-332 182,-332 176,-332 170,-326 170,-320 170,-320 170,-308 170,-308 170,-302 176,-296 182,-296 182,-296 302,-296 302,-296 308,-296 314,-302 314,-308 314,-308 314,-320 314,-320 314,-326 308,-332 302,-332"/>
<text text-anchor="middle" x="242" y="-317" font-family="Arial" font-size="10.00">Container Registry</text>
<text text-anchor="middle" x="242" y="-306" font-family="Arial" font-size="10.00">registry.example.internal:8443</text>
</g>
<!-- Site_AM&#45;&gt;REGISTRY -->
<g id="edge10" class="edge">
<title>Site_AM&#45;&gt;REGISTRY</title>
<path fill="none" stroke="#475569" d="M156.84,-402.66C174.07,-384.92 200.93,-357.28 219.87,-337.78"/>
<polygon fill="#475569" stroke="#475569" points="221.9,-339.71 225.47,-332.02 217.89,-335.8 221.9,-339.71"/>
</g>
<!-- STORAGE -->
<g id="node23" class="node">
<title>STORAGE</title>
<path fill="#ffebee" stroke="#334155" d="M125.5,-332C125.5,-332 28.5,-332 28.5,-332 22.5,-332 16.5,-326 16.5,-320 16.5,-320 16.5,-308 16.5,-308 16.5,-302 22.5,-296 28.5,-296 28.5,-296 125.5,-296 125.5,-296 131.5,-296 137.5,-302 137.5,-308 137.5,-308 137.5,-320 137.5,-320 137.5,-326 131.5,-332 125.5,-332"/>
<text text-anchor="middle" x="77" y="-317" font-family="Arial" font-size="10.00">NetApp Storage</text>
<text text-anchor="middle" x="77" y="-306" font-family="Arial" font-size="10.00">storage.example.internal</text>
</g>
<!-- Site_AM&#45;&gt;STORAGE -->
<g id="edge14" class="edge">
<title>Site_AM&#45;&gt;STORAGE</title>
<path fill="none" stroke="#475569" d="M121.96,-402.74C115.4,-395.8 108.3,-387.45 103,-379 95.37,-366.83 89.19,-352.04 84.77,-339.74"/>
<polygon fill="#475569" stroke="#475569" points="87.38,-338.73 82.12,-332.08 82.09,-340.55 87.38,-338.73"/>
</g>
<!-- Site_AD -->
<g id="node2" class="node">
<title>Site_AD</title>
<path fill="#f8fafc" stroke="#334155" d="M65,-439C65,-439 35,-439 35,-439 29,-439 23,-433 23,-427 23,-427 23,-415 23,-415 23,-409 29,-403 35,-403 35,-403 65,-403 65,-403 71,-403 77,-409 77,-415 77,-415 77,-427 77,-427 77,-433 71,-439 65,-439"/>
<text text-anchor="middle" x="50" y="-418.5" font-family="Arial" font-size="10.00">Site AD</text>
</g>
<!-- Site_AD&#45;&gt;REGISTRY -->
<g id="edge11" class="edge">
<title>Site_AD&#45;&gt;REGISTRY</title>
<path fill="none" stroke="#475569" d="M77.1,-405.18C110.15,-387.11 166.21,-356.45 203.67,-335.96"/>
<polygon fill="#475569" stroke="#475569" points="205.23,-338.3 210.9,-332.01 202.54,-333.39 205.23,-338.3"/>
</g>
<!-- Site_AD&#45;&gt;STORAGE -->
<g id="edge15" class="edge">
<title>Site_AD&#45;&gt;STORAGE</title>
<path fill="none" stroke="#475569" d="M54.46,-402.66C58.86,-385.54 65.64,-359.17 70.62,-339.83"/>
<polygon fill="#475569" stroke="#475569" points="73.34,-340.46 72.62,-332.02 67.92,-339.07 73.34,-340.46"/>
</g>
<!-- Site_BD -->
<g id="node3" class="node">
<title>Site_BD</title>
<path fill="#f8fafc" stroke="#334155" d="M330,-439C330,-439 300,-439 300,-439 294,-439 288,-433 288,-427 288,-427 288,-415 288,-415 288,-409 294,-403 300,-403 300,-403 330,-403 330,-403 336,-403 342,-409 342,-415 342,-415 342,-427 342,-427 342,-433 336,-439 330,-439"/>
<text text-anchor="middle" x="315" y="-418.5" font-family="Arial" font-size="10.00">Site BD</text>
</g>
<!-- Site_BD&#45;&gt;REGISTRY -->
<g id="edge12" class="edge">
<title>Site_BD&#45;&gt;REGISTRY</title>
<path fill="none" stroke="#475569" d="M310.12,-402.64C306.78,-392.37 301.72,-379.38 295,-369 287.68,-357.7 277.72,-346.78 268.41,-337.76"/>
<polygon fill="#475569" stroke="#475569" points="270.16,-335.57 262.42,-332.12 266.32,-339.65 270.16,-335.57"/>
</g>
<!-- Site_BD&#45;&gt;STORAGE -->
<g id="edge16" class="edge">
<title>Site_BD&#45;&gt;STORAGE</title>
<path fill="none" stroke="#475569" d="M287.54,-403.19C282.16,-400.25 276.48,-397.37 271,-395 235.13,-379.48 224.68,-379.39 187,-369 172.45,-364.99 167.97,-366.71 154,-361 138.17,-354.53 121.74,-345.14 108.15,-336.53"/>
<polygon fill="#475569" stroke="#475569" points="109.56,-334.1 101.32,-332.12 106.52,-338.81 109.56,-334.1"/>
</g>
<!-- Site_CD -->
<g id="node4" class="node">
<title>Site_CD</title>
<path fill="#f8fafc" stroke="#334155" d="M243,-439C243,-439 213,-439 213,-439 207,-439 201,-433 201,-427 201,-427 201,-415 201,-415 201,-409 207,-403 213,-403 213,-403 243,-403 243,-403 249,-403 255,-409 255,-415 255,-415 255,-427 255,-427 255,-433 249,-439 243,-439"/>
<text text-anchor="middle" x="228" y="-418.5" font-family="Arial" font-size="10.00">Site CD</text>
</g>
<!-- Site_CD&#45;&gt;REGISTRY -->
<g id="edge13" class="edge">
<title>Site_CD&#45;&gt;REGISTRY</title>
<path fill="none" stroke="#475569" d="M230.31,-402.66C232.58,-385.61 236.08,-359.41 238.65,-340.09"/>
<polygon fill="#475569" stroke="#475569" points="241.45,-340.32 239.73,-332.02 235.9,-339.58 241.45,-340.32"/>
</g>
<!-- Site_CD&#45;&gt;STORAGE -->
<g id="edge17" class="edge">
<title>Site_CD&#45;&gt;STORAGE</title>
<path fill="none" stroke="#475569" d="M203.4,-402.9C177.52,-384.9 136.69,-356.51 108.47,-336.88"/>
<polygon fill="#475569" stroke="#475569" points="109.75,-334.36 101.59,-332.1 106.56,-338.96 109.75,-334.36"/>
</g>
<!-- Site_AM_ISTIO -->
<g id="node5" class="node">
<title>Site_AM_ISTIO</title>
<path fill="#f8fafc" stroke="#334155" d="M934,-439C934,-439 862,-439 862,-439 856,-439 850,-433 850,-427 850,-427 850,-415 850,-415 850,-409 856,-403 862,-403 862,-403 934,-403 934,-403 940,-403 946,-409 946,-415 946,-415 946,-427 946,-427 946,-433 940,-439 934,-439"/>
<text text-anchor="middle" x="898" y="-418.5" font-family="Arial" font-size="10.00">Istio Control Plane</text>
</g>
<!-- Site_AD_ISTIO -->
<g id="node10" class="node">
<title>Site_AD_ISTIO</title>
<path fill="#f8fafc" stroke="#334155" d="M934,-332C934,-332 862,-332 862,-332 856,-332 850,-326 850,-320 850,-320 850,-308 850,-308 850,-302 856,-296 862,-296 862,-296 934,-296 934,-296 940,-296 946,-302 946,-308 946,-308 946,-320 946,-320 946,-326 940,-332 934,-332"/>
<text text-anchor="middle" x="898" y="-311.5" font-family="Arial" font-size="10.00">Istio Control Plane</text>
</g>
<!-- Site_AM_ISTIO&#45;&gt;Site_AD_ISTIO -->
<g id="edge4" class="edge">
<title>Site_AM_ISTIO&#45;&gt;Site_AD_ISTIO</title>
<path fill="none" stroke="#475569" stroke-dasharray="5,2" d="M898,-394.54C898,-378.02 898,-356.57 898,-340.12"/>
<polygon fill="#475569" stroke="#475569" points="895.2,-394.66 898,-402.66 900.8,-394.66 895.2,-394.66"/>
<polygon fill="#475569" stroke="#475569" points="900.8,-340.02 898,-332.02 895.2,-340.02 900.8,-340.02"/>
<text text-anchor="middle" x="926" y="-371.8" font-family="Arial" font-size="9.00">Service Mesh</text>
</g>
<!-- Site_BD_ISTIO -->
<g id="node14" class="node">
<title>Site_BD_ISTIO</title>
<path fill="#f8fafc" stroke="#334155" d="M1127,-196C1127,-196 1055,-196 1055,-196 1049,-196 1043,-190 1043,-184 1043,-184 1043,-172 1043,-172 1043,-166 1049,-160 1055,-160 1055,-160 1127,-160 1127,-160 1133,-160 1139,-166 1139,-172 1139,-172 1139,-184 1139,-184 1139,-190 1133,-196 1127,-196"/>
<text text-anchor="middle" x="1091" y="-175.5" font-family="Arial" font-size="10.00">Istio Control Plane</text>
</g>
<!-- Site_AM_ISTIO&#45;&gt;Site_BD_ISTIO -->
<g id="edge5" class="edge">
<title>Site_AM_ISTIO&#45;&gt;Site_BD_ISTIO</title>
<path fill="none" stroke="#475569" stroke-dasharray="5,2" d="M944.82,-400.19C950.54,-398.23 956.36,-396.43 962,-395 989.79,-387.95 1070.98,-400.44 1090,-379 1133.21,-330.3 1113.66,-245.65 1100.1,-203.84"/>
<polygon fill="#475569" stroke="#475569" points="943.68,-397.62 937.1,-402.96 945.58,-402.9 943.68,-397.62"/>
<polygon fill="#475569" stroke="#475569" points="1102.7,-202.76 1097.49,-196.07 1097.39,-204.54 1102.7,-202.76"/>
<text text-anchor="middle" x="1144" y="-311.8" font-family="Arial" font-size="9.00">Service Mesh</text>
</g>
<!-- Site_CD_ISTIO -->
<g id="node18" class="node">
<title>Site_CD_ISTIO</title>
<path fill="#f8fafc" stroke="#334155" d="M323,-60C323,-60 251,-60 251,-60 245,-60 239,-54 239,-48 239,-48 239,-36 239,-36 239,-30 245,-24 251,-24 251,-24 323,-24 323,-24 329,-24 335,-30 335,-36 335,-36 335,-48 335,-48 335,-54 329,-60 323,-60"/>
<text text-anchor="middle" x="287" y="-39.5" font-family="Arial" font-size="10.00">Istio Control Plane</text>
</g>
<!-- Site_AM_ISTIO&#45;&gt;Site_CD_ISTIO -->
<g id="edge6" class="edge">
<title>Site_AM_ISTIO&#45;&gt;Site_CD_ISTIO</title>
<path fill="none" stroke="#475569" stroke-dasharray="5,2" d="M852.4,-400.21C846.3,-398.15 840.06,-396.33 834,-395 764.15,-379.68 571.14,-404 514,-361 404.03,-278.25 325.79,-126.92 298.06,-67.7"/>
<polygon fill="#475569" stroke="#475569" points="851.55,-402.88 860.03,-402.93 853.43,-397.6 851.55,-402.88"/>
<polygon fill="#475569" stroke="#475569" points="300.53,-66.37 294.63,-60.29 295.45,-68.73 300.53,-66.37"/>
<text text-anchor="middle" x="449" y="-264.8" font-family="Arial" font-size="9.00">Service Mesh</text>
</g>
<!-- Site_AM_PROM -->
<g id="node6" class="node">
<title>Site_AM_PROM</title>
<path fill="#f8fafc" stroke="#334155" d="M1062,-439C1062,-439 990,-439 990,-439 984,-439 978,-433 978,-427 978,-427 978,-415 978,-415 978,-409 984,-403 990,-403 990,-403 1062,-403 1062,-403 1068,-403 1074,-409 1074,-415 1074,-415 1074,-427 1074,-427 1074,-433 1068,-439 1062,-439"/>
<text text-anchor="middle" x="1026" y="-424" font-family="Arial" font-size="10.00">Prometheus Stack</text>
<text text-anchor="middle" x="1026" y="-413" font-family="Arial" font-size="10.00">Central Monitoring</text>
</g>
<!-- Site_AD_PROM -->
<g id="node11" class="node">
<title>Site_AD_PROM</title>
<path fill="#f8fafc" stroke="#334155" d="M1061.5,-332C1061.5,-332 990.5,-332 990.5,-332 984.5,-332 978.5,-326 978.5,-320 978.5,-320 978.5,-308 978.5,-308 978.5,-302 984.5,-296 990.5,-296 990.5,-296 1061.5,-296 1061.5,-296 1067.5,-296 1073.5,-302 1073.5,-308 1073.5,-308 1073.5,-320 1073.5,-320 1073.5,-326 1067.5,-332 1061.5,-332"/>
<text text-anchor="middle" x="1026" y="-311.5" font-family="Arial" font-size="10.00">Prometheus Agent</text>
</g>
<!-- Site_AM_PROM&#45;&gt;Site_AD_PROM -->
<g id="edge1" class="edge">
<title>Site_AM_PROM&#45;&gt;Site_AD_PROM</title>
<path fill="none" stroke="#475569" stroke-dasharray="5,2" d="M1026,-402.66C1026,-385.61 1026,-359.41 1026,-340.09"/>
<polygon fill="#475569" stroke="#475569" points="1028.8,-340.02 1026,-332.02 1023.2,-340.02 1028.8,-340.02"/>
<text text-anchor="middle" x="1054" y="-371.8" font-family="Arial" font-size="9.00">Remote Write</text>
</g>
<!-- Site_BD_PROM -->
<g id="node15" class="node">
<title>Site_BD_PROM</title>
<path fill="#f8fafc" stroke="#334155" d="M1254.5,-196C1254.5,-196 1183.5,-196 1183.5,-196 1177.5,-196 1171.5,-190 1171.5,-184 1171.5,-184 1171.5,-172 1171.5,-172 1171.5,-166 1177.5,-160 1183.5,-160 1183.5,-160 1254.5,-160 1254.5,-160 1260.5,-160 1266.5,-166 1266.5,-172 1266.5,-172 1266.5,-184 1266.5,-184 1266.5,-190 1260.5,-196 1254.5,-196"/>
<text text-anchor="middle" x="1219" y="-175.5" font-family="Arial" font-size="10.00">Prometheus Agent</text>
</g>
<!-- Site_AM_PROM&#45;&gt;Site_BD_PROM -->
<g id="edge2" class="edge">
<title>Site_AM_PROM&#45;&gt;Site_BD_PROM</title>
<path fill="none" stroke="#475569" stroke-dasharray="5,2" d="M1074.31,-418.62C1115.84,-414.55 1173.43,-401.38 1202,-361 1235.31,-313.91 1229.89,-241.95 1223.95,-204.16"/>
<polygon fill="#475569" stroke="#475569" points="1226.7,-203.63 1222.6,-196.2 1221.17,-204.56 1226.7,-203.63"/>
<text text-anchor="middle" x="1255" y="-311.8" font-family="Arial" font-size="9.00">Remote Write</text>
</g>
<!-- Site_CD_PROM -->
<g id="node19" class="node">
<title>Site_CD_PROM</title>
<path fill="#f8fafc" stroke="#334155" d="M578.5,-60C578.5,-60 507.5,-60 507.5,-60 501.5,-60 495.5,-54 495.5,-48 495.5,-48 495.5,-36 495.5,-36 495.5,-30 501.5,-24 507.5,-24 507.5,-24 578.5,-24 578.5,-24 584.5,-24 590.5,-30 590.5,-36 590.5,-36 590.5,-48 590.5,-48 590.5,-54 584.5,-60 578.5,-60"/>
<text text-anchor="middle" x="543" y="-39.5" font-family="Arial" font-size="10.00">Prometheus Agent</text>
</g>
<!-- Site_AM_PROM&#45;&gt;Site_CD_PROM -->
<g id="edge3" class="edge">
<title>Site_AM_PROM&#45;&gt;Site_CD_PROM</title>
<path fill="none" stroke="#475569" stroke-dasharray="5,2" d="M987.65,-402.97C979.33,-399.86 970.48,-396.98 962,-395 875.55,-374.87 626.16,-424.37 564,-361 485.37,-280.84 518.21,-127.91 535.2,-67.98"/>
<polygon fill="#475569" stroke="#475569" points="537.93,-68.62 537.48,-60.15 532.56,-67.05 537.93,-68.62"/>
<text text-anchor="middle" x="547" y="-264.8" font-family="Arial" font-size="9.00">Remote Write</text>
</g>
<!-- Site_AM_MONGO -->
<g id="node7" class="node">
<title>Site_AM_MONGO</title>
<path fill="#f8fafc" stroke="#334155" d="M805.5,-439C805.5,-439 730.5,-439 730.5,-439 724.5,-439 718.5,-433 718.5,-427 718.5,-427 718.5,-415 718.5,-415 718.5,-409 724.5,-403 730.5,-403 730.5,-403 805.5,-403 805.5,-403 811.5,-403 817.5,-409 817.5,-415 817.5,-415 817.5,-427 817.5,-427 817.5,-433 811.5,-439 805.5,-439"/>
<text text-anchor="middle" x="768" y="-418.5" font-family="Arial" font-size="10.00">MongoDB Operator</text>
</g>
<!-- Site_AM_GRAFANA -->
<g id="node8" class="node">
<title>Site_AM_GRAFANA</title>
<path fill="#f8fafc" stroke="#334155" d="M674.5,-439C674.5,-439 599.5,-439 599.5,-439 593.5,-439 587.5,-433 587.5,-427 587.5,-427 587.5,-415 587.5,-415 587.5,-409 593.5,-403 599.5,-403 599.5,-403 674.5,-403 674.5,-403 680.5,-403 686.5,-409 686.5,-415 686.5,-415 686.5,-427 686.5,-427 686.5,-433 680.5,-439 674.5,-439"/>
<text text-anchor="middle" x="637" y="-418.5" font-family="Arial" font-size="10.00">Grafana Dashboard</text>
</g>
<!-- Site_AM_ALERT -->
<g id="node9" class="node">
<title>Site_AM_ALERT</title>
<path fill="#f8fafc" stroke="#334155" d="M543,-439C543,-439 495,-439 495,-439 489,-439 483,-433 483,-427 483,-427 483,-415 483,-415 483,-409 489,-403 495,-403 495,-403 543,-403 543,-403 549,-403 555,-409 555,-415 555,-415 555,-427 555,-427 555,-433 549,-439 543,-439"/>
<text text-anchor="middle" x="519" y="-418.5" font-family="Arial" font-size="10.00">Alertmanager</text>
</g>
<!-- Site_AD_ROCKET -->
<g id="node12" class="node">
<title>Site_AD_ROCKET</title>
<path fill="#f8fafc" stroke="#334155" d="M806,-332C806,-332 734,-332 734,-332 728,-332 722,-326 722,-320 722,-320 722,-308 722,-308 722,-302 728,-296 734,-296 734,-296 806,-296 806,-296 812,-296 818,-302 818,-308 818,-308 818,-320 818,-320 818,-326 812,-332 806,-332"/>
<text text-anchor="middle" x="770" y="-311.5" font-family="Arial" font-size="10.00">Rocket.Chat Pods</text>
</g>
<!-- Site_AD_MONGO -->
<g id="node13" class="node">
<title>Site_AD_MONGO</title>
<path fill="#f8fafc" stroke="#334155" d="M677.5,-332C677.5,-332 592.5,-332 592.5,-332 586.5,-332 580.5,-326 580.5,-320 580.5,-320 580.5,-308 580.5,-308 580.5,-302 586.5,-296 592.5,-296 592.5,-296 677.5,-296 677.5,-296 683.5,-296 689.5,-302 689.5,-308 689.5,-308 689.5,-320 689.5,-320 689.5,-326 683.5,-332 677.5,-332"/>
<text text-anchor="middle" x="635" y="-311.5" font-family="Arial" font-size="10.00">MongoDB ReplicaSet</text>
</g>
<!-- Site_BD_MONGO -->
<g id="node17" class="node">
<title>Site_BD_MONGO</title>
<path fill="#f8fafc" stroke="#334155" d="M870.5,-196C870.5,-196 785.5,-196 785.5,-196 779.5,-196 773.5,-190 773.5,-184 773.5,-184 773.5,-172 773.5,-172 773.5,-166 779.5,-160 785.5,-160 785.5,-160 870.5,-160 870.5,-160 876.5,-160 882.5,-166 882.5,-172 882.5,-172 882.5,-184 882.5,-184 882.5,-190 876.5,-196 870.5,-196"/>
<text text-anchor="middle" x="828" y="-175.5" font-family="Arial" font-size="10.00">MongoDB ReplicaSet</text>
</g>
<!-- Site_AD_MONGO&#45;&gt;Site_BD_MONGO -->
<g id="edge7" class="edge">
<title>Site_AD_MONGO&#45;&gt;Site_BD_MONGO</title>
<path fill="none" stroke="#475569" stroke-dasharray="5,2" d="M666.67,-291.01C702.52,-266.12 760.58,-225.81 796.4,-200.94"/>
<polygon fill="#475569" stroke="#475569" points="664.81,-288.89 659.84,-295.76 668,-293.49 664.81,-288.89"/>
<polygon fill="#475569" stroke="#475569" points="798.28,-203.04 803.26,-196.18 795.09,-198.44 798.28,-203.04"/>
<text text-anchor="middle" x="725.5" y="-264.8" font-family="Arial" font-size="9.00">Replication</text>
</g>
<!-- Site_CD_MONGO -->
<g id="node21" class="node">
<title>Site_CD_MONGO</title>
<path fill="#f8fafc" stroke="#334155" d="M719.5,-60C719.5,-60 634.5,-60 634.5,-60 628.5,-60 622.5,-54 622.5,-48 622.5,-48 622.5,-36 622.5,-36 622.5,-30 628.5,-24 634.5,-24 634.5,-24 719.5,-24 719.5,-24 725.5,-24 731.5,-30 731.5,-36 731.5,-36 731.5,-48 731.5,-48 731.5,-54 725.5,-60 719.5,-60"/>
<text text-anchor="middle" x="677" y="-39.5" font-family="Arial" font-size="10.00">MongoDB ReplicaSet</text>
</g>
<!-- Site_AD_MONGO&#45;&gt;Site_CD_MONGO -->
<g id="edge8" class="edge">
<title>Site_AD_MONGO&#45;&gt;Site_CD_MONGO</title>
<path fill="none" stroke="#475569" stroke-dasharray="5,2" d="M638.95,-287.6C646.98,-236 665.11,-119.46 673.09,-68.1"/>
<polygon fill="#475569" stroke="#475569" points="636.15,-287.36 637.69,-295.7 641.69,-288.23 636.15,-287.36"/>
<polygon fill="#475569" stroke="#475569" points="675.87,-68.49 674.33,-60.16 670.33,-67.63 675.87,-68.49"/>
<text text-anchor="middle" x="683.5" y="-175.8" font-family="Arial" font-size="9.00">Replication</text>
</g>
<!-- Site_BD_ROCKET -->
<g id="node16" class="node">
<title>Site_BD_ROCKET</title>
<path fill="#f8fafc" stroke="#334155" d="M999,-196C999,-196 927,-196 927,-196 921,-196 915,-190 915,-184 915,-184 915,-172 915,-172 915,-166 921,-160 927,-160 927,-160 999,-160 999,-160 1005,-160 1011,-166 1011,-172 1011,-172 1011,-184 1011,-184 1011,-190 1005,-196 999,-196"/>
<text text-anchor="middle" x="963" y="-175.5" font-family="Arial" font-size="10.00">Rocket.Chat Pods</text>
</g>
<!-- Site_BD_MONGO&#45;&gt;Site_CD_MONGO -->
<g id="edge9" class="edge">
<title>Site_BD_MONGO&#45;&gt;Site_CD_MONGO</title>
<path fill="none" stroke="#475569" stroke-dasharray="5,2" d="M802.47,-154.35C774.59,-129.6 730.19,-90.21 702.37,-65.51"/>
<polygon fill="#475569" stroke="#475569" points="800.73,-156.54 808.57,-159.76 804.44,-152.35 800.73,-156.54"/>
<polygon fill="#475569" stroke="#475569" points="704.2,-63.39 696.36,-60.18 700.48,-67.58 704.2,-63.39"/>
<text text-anchor="middle" x="802.5" y="-128.8" font-family="Arial" font-size="9.00">Replication</text>
</g>
<!-- Site_CD_ROCKET -->
<g id="node20" class="node">
<title>Site_CD_ROCKET</title>
<path fill="#f8fafc" stroke="#334155" d="M451,-60C451,-60 379,-60 379,-60 373,-60 367,-54 367,-48 367,-48 367,-36 367,-36 367,-30 373,-24 379,-24 379,-24 451,-24 451,-24 457,-24 463,-30 463,-36 463,-36 463,-48 463,-48 463,-54 457,-60 451,-60"/>
<text text-anchor="middle" x="415" y="-39.5" font-family="Arial" font-size="10.00">Rocket.Chat Pods</text>
</g>
</g>
</svg>
